ISO-10303-21;
HEADER;
FILE_DESCRIPTION(('Open CASCADE Model'),'2;1');
FILE_NAME('Open CASCADE Shape Model','2026-08-30T00:00:00',('Author'),(
    'Open CASCADE'),'Open CASCADE STEP processor 7.9','Open CASCADE 7.9'
  ,'Unknown');
FILE_SCHEMA(('AUTOMOTIVE_DESIGN { 1 0 10303 214 1 1 1 1 }'));
ENDSEC;
DATA;
#1 = APPLICATION_PROTOCOL_DEFINITION('international standard',
  'automotive_design',2000,#2);
#2 = APPLICATION_CONTEXT(
  'core data for automotive mechanical design processes');
#3 = SHAPE_DEFINITION_REPRESENTATION(#4,#10);
#4 = PRODUCT_DEFINITION_SHAPE('','',#5);
#5 = PRODUCT_DEFINITION('design','',#6,#9);
#6 = PRODUCT_DEFINITION_FORMATION('','',#7);
#7 = PRODUCT('Open CASCADE STEP translator 7.9 5',
  'Open CASCADE STEP translator 7.9 5','',(#8));
#8 = PRODUCT_CONTEXT('',#2,'mechanical');
#9 = PRODUCT_DEFINITION_CONTEXT('part definition',#2,'design');
#10 = SHAPE_REPRESENTATION('',(#11,#15,#19),#23);
#11 = AXIS2_PLACEMENT_3D('',#12,#13,#14);
#12 = CARTESIAN_POINT('',(0.,0.,0.));
#13 = DIRECTION('',(0.,0.,1.));
#14 = DIRECTION('',(1.,0.,-0.));
#15 = AXIS2_PLACEMENT_3D('',#16,#17,#18);
#16 = CARTESIAN_POINT('',(0.,0.,0.));
#17 = DIRECTION('',(0.,0.,1.));
#18 = DIRECTION('',(1.,0.,-0.));
#19 = AXIS2_PLACEMENT_3D('',#20,#21,#22);
#20 = CARTESIAN_POINT('',(0.,0.,0.));
#21 = DIRECTION('',(0.,0.,1.));
#22 = DIRECTION('',(1.,0.,-0.));
#23 = ( GEOMETRIC_REPRESENTATION_CONTEXT(3) 
GLOBAL_UNCERTAINTY_ASSIGNED_CONTEXT((#27)) GLOBAL_UNIT_ASSIGNED_CONTEXT(
(#24,#25,#26)) REPRESENTATION_CONTEXT('Context #1',
  '3D Context with UNIT and UNCERTAINTY') );
#24 = ( LENGTH_UNIT() NAMED_UNIT(*) SI_UNIT(.MILLI.,.METRE.) );
#25 = ( NAMED_UNIT(*) PLANE_ANGLE_UNIT() SI_UNIT($,.RADIAN.) );
#26 = ( NAMED_UNIT(*) SI_UNIT($,.STERADIAN.) SOLID_ANGLE_UNIT() );
#27 = UNCERTAINTY_MEASURE_WITH_UNIT(LENGTH_MEASURE(1.E-07),#24,
  'distance_accuracy_value','confusion accuracy');
#28 = PRODUCT_RELATED_PRODUCT_CATEGORY('part',$,(#7));
#29 = SHAPE_DEFINITION_REPRESENTATION(#30,#36);
#30 = PRODUCT_DEFINITION_SHAPE('','',#31);
#31 = PRODUCT_DEFINITION('design','',#32,#35);
#32 = PRODUCT_DEFINITION_FORMATION('','',#33);
#33 = PRODUCT('Open CASCADE STEP translator 7.9 5.1',
  'Open CASCADE STEP translator 7.9 5.1','',(#34));
#34 = PRODUCT_CONTEXT('',#2,'mechanical');
#35 = PRODUCT_DEFINITION_CONTEXT('part definition',#2,'design');
#36 = ADVANCED_BREP_SHAPE_REPRESENTATION('',(#11,#37),#1056);
#37 = MANIFOLD_SOLID_BREP('',#38);
#38 = CLOSED_SHELL('',(#39,#127,#162,#197,#305,#766,#801,#877,#907,#991,
    #1018,#1023,#1028,#1051));
#39 = ADVANCED_FACE('',(#40),#53,.T.);
#40 = FACE_BOUND('',#41,.T.);
#41 = EDGE_LOOP('',(#42,#76,#99,#126));
#42 = ORIENTED_EDGE('',*,*,#43,.F.);
#43 = EDGE_CURVE('',#44,#44,#46,.T.);
#44 = VERTEX_POINT('',#45);
#45 = CARTESIAN_POINT('',(17.4,-4.261770861033E-15,23.));
#46 = SURFACE_CURVE('',#47,(#52,#64),.PCURVE_S1.);
#47 = CIRCLE('',#48,17.4);
#48 = AXIS2_PLACEMENT_3D('',#49,#50,#51);
#49 = CARTESIAN_POINT('',(0.,0.,23.));
#50 = DIRECTION('',(0.,0.,1.));
#51 = DIRECTION('',(1.,0.,-0.));
#52 = PCURVE('',#53,#58);
#53 = CYLINDRICAL_SURFACE('',#54,17.4);
#54 = AXIS2_PLACEMENT_3D('',#55,#56,#57);
#55 = CARTESIAN_POINT('',(0.,0.,21.4));
#56 = DIRECTION('',(0.,0.,1.));
#57 = DIRECTION('',(1.,0.,-0.));
#58 = DEFINITIONAL_REPRESENTATION('',(#59),#63);
#59 = LINE('',#60,#61);
#60 = CARTESIAN_POINT('',(0.,1.6));
#61 = VECTOR('',#62,1.);
#62 = DIRECTION('',(1.,0.));
#63 = ( GEOMETRIC_REPRESENTATION_CONTEXT(2) 
PARAMETRIC_REPRESENTATION_CONTEXT() REPRESENTATION_CONTEXT('2D SPACE',''
  ) );
#64 = PCURVE('',#65,#70);
#65 = PLANE('',#66);
#66 = AXIS2_PLACEMENT_3D('',#67,#68,#69);
#67 = CARTESIAN_POINT('',(0.,0.,23.));
#68 = DIRECTION('',(0.,0.,1.));
#69 = DIRECTION('',(1.,0.,-0.));
#70 = DEFINITIONAL_REPRESENTATION('',(#71),#75);
#71 = CIRCLE('',#72,17.4);
#72 = AXIS2_PLACEMENT_2D('',#73,#74);
#73 = CARTESIAN_POINT('',(0.,0.));
#74 = DIRECTION('',(1.,0.));
#75 = ( GEOMETRIC_REPRESENTATION_CONTEXT(2) 
PARAMETRIC_REPRESENTATION_CONTEXT() REPRESENTATION_CONTEXT('2D SPACE',''
  ) );
#76 = ORIENTED_EDGE('',*,*,#77,.F.);
#77 = EDGE_CURVE('',#78,#44,#80,.T.);
#78 = VERTEX_POINT('',#79);
#79 = CARTESIAN_POINT('',(17.4,-4.261770861033E-15,21.4));
#80 = SEAM_CURVE('',#81,(#85,#92),.PCURVE_S1.);
#81 = LINE('',#82,#83);
#82 = CARTESIAN_POINT('',(17.4,-4.261770861033E-15,21.4));
#83 = VECTOR('',#84,1.);
#84 = DIRECTION('',(0.,0.,1.));
#85 = PCURVE('',#53,#86);
#86 = DEFINITIONAL_REPRESENTATION('',(#87),#91);
#87 = LINE('',#88,#89);
#88 = CARTESIAN_POINT('',(6.28318530718,-0.));
#89 = VECTOR('',#90,1.);
#90 = DIRECTION('',(0.,1.));
#91 = ( GEOMETRIC_REPRESENTATION_CONTEXT(2) 
PARAMETRIC_REPRESENTATION_CONTEXT() REPRESENTATION_CONTEXT('2D SPACE',''
  ) );
#92 = PCURVE('',#53,#93);
#93 = DEFINITIONAL_REPRESENTATION('',(#94),#98);
#94 = LINE('',#95,#96);
#95 = CARTESIAN_POINT('',(0.,-0.));
#96 = VECTOR('',#97,1.);
#97 = DIRECTION('',(0.,1.));
#98 = ( GEOMETRIC_REPRESENTATION_CONTEXT(2) 
PARAMETRIC_REPRESENTATION_CONTEXT() REPRESENTATION_CONTEXT('2D SPACE',''
  ) );
#99 = ORIENTED_EDGE('',*,*,#100,.T.);
#100 = EDGE_CURVE('',#78,#78,#101,.T.);
#101 = SURFACE_CURVE('',#102,(#107,#114),.PCURVE_S1.);
#102 = CIRCLE('',#103,17.4);
#103 = AXIS2_PLACEMENT_3D('',#104,#105,#106);
#104 = CARTESIAN_POINT('',(0.,0.,21.4));
#105 = DIRECTION('',(0.,0.,1.));
#106 = DIRECTION('',(1.,0.,-0.));
#107 = PCURVE('',#53,#108);
#108 = DEFINITIONAL_REPRESENTATION('',(#109),#113);
#109 = LINE('',#110,#111);
#110 = CARTESIAN_POINT('',(0.,0.));
#111 = VECTOR('',#112,1.);
#112 = DIRECTION('',(1.,0.));
#113 = ( GEOMETRIC_REPRESENTATION_CONTEXT(2) 
PARAMETRIC_REPRESENTATION_CONTEXT() REPRESENTATION_CONTEXT('2D SPACE',''
  ) );
#114 = PCURVE('',#115,#120);
#115 = PLANE('',#116);
#116 = AXIS2_PLACEMENT_3D('',#117,#118,#119);
#117 = CARTESIAN_POINT('',(0.,0.,21.4));
#118 = DIRECTION('',(0.,0.,1.));
#119 = DIRECTION('',(1.,0.,-0.));
#120 = DEFINITIONAL_REPRESENTATION('',(#121),#125);
#121 = CIRCLE('',#122,17.4);
#122 = AXIS2_PLACEMENT_2D('',#123,#124);
#123 = CARTESIAN_POINT('',(0.,0.));
#124 = DIRECTION('',(1.,0.));
#125 = ( GEOMETRIC_REPRESENTATION_CONTEXT(2) 
PARAMETRIC_REPRESENTATION_CONTEXT() REPRESENTATION_CONTEXT('2D SPACE',''
  ) );
#126 = ORIENTED_EDGE('',*,*,#77,.T.);
#127 = ADVANCED_FACE('',(#128,#131),#65,.T.);
#128 = FACE_BOUND('',#129,.T.);
#129 = EDGE_LOOP('',(#130));
#130 = ORIENTED_EDGE('',*,*,#43,.T.);
#131 = FACE_BOUND('',#132,.T.);
#132 = EDGE_LOOP('',(#133));
#133 = ORIENTED_EDGE('',*,*,#134,.F.);
#134 = EDGE_CURVE('',#135,#135,#137,.T.);
#135 = VERTEX_POINT('',#136);
#136 = CARTESIAN_POINT('',(4.9,-1.200153863164E-15,23.));
#137 = SURFACE_CURVE('',#138,(#143,#150),.PCURVE_S1.);
#138 = CIRCLE('',#139,4.9);
#139 = AXIS2_PLACEMENT_3D('',#140,#141,#142);
#140 = CARTESIAN_POINT('',(0.,0.,23.));
#141 = DIRECTION('',(0.,0.,1.));
#142 = DIRECTION('',(1.,0.,-0.));
#143 = PCURVE('',#65,#144);
#144 = DEFINITIONAL_REPRESENTATION('',(#145),#149);
#145 = CIRCLE('',#146,4.9);
#146 = AXIS2_PLACEMENT_2D('',#147,#148);
#147 = CARTESIAN_POINT('',(0.,0.));
#148 = DIRECTION('',(1.,0.));
#149 = ( GEOMETRIC_REPRESENTATION_CONTEXT(2) 
PARAMETRIC_REPRESENTATION_CONTEXT() REPRESENTATION_CONTEXT('2D SPACE',''
  ) );
#150 = PCURVE('',#151,#156);
#151 = CYLINDRICAL_SURFACE('',#152,4.9);
#152 = AXIS2_PLACEMENT_3D('',#153,#154,#155);
#153 = CARTESIAN_POINT('',(0.,0.,-1.));
#154 = DIRECTION('',(0.,0.,1.));
#155 = DIRECTION('',(1.,0.,-0.));
#156 = DEFINITIONAL_REPRESENTATION('',(#157),#161);
#157 = LINE('',#158,#159);
#158 = CARTESIAN_POINT('',(0.,24.));
#159 = VECTOR('',#160,1.);
#160 = DIRECTION('',(1.,0.));
#161 = ( GEOMETRIC_REPRESENTATION_CONTEXT(2) 
PARAMETRIC_REPRESENTATION_CONTEXT() REPRESENTATION_CONTEXT('2D SPACE',''
  ) );
#162 = ADVANCED_FACE('',(#163,#166),#115,.F.);
#163 = FACE_BOUND('',#164,.F.);
#164 = EDGE_LOOP('',(#165));
#165 = ORIENTED_EDGE('',*,*,#100,.T.);
#166 = FACE_BOUND('',#167,.F.);
#167 = EDGE_LOOP('',(#168));
#168 = ORIENTED_EDGE('',*,*,#169,.F.);
#169 = EDGE_CURVE('',#170,#170,#172,.T.);
#170 = VERTEX_POINT('',#171);
#171 = CARTESIAN_POINT('',(15.25,-3.735172737399E-15,21.4));
#172 = SURFACE_CURVE('',#173,(#178,#185),.PCURVE_S1.);
#173 = CIRCLE('',#174,15.25);
#174 = AXIS2_PLACEMENT_3D('',#175,#176,#177);
#175 = CARTESIAN_POINT('',(0.,0.,21.4));
#176 = DIRECTION('',(0.,0.,1.));
#177 = DIRECTION('',(1.,0.,-0.));
#178 = PCURVE('',#115,#179);
#179 = DEFINITIONAL_REPRESENTATION('',(#180),#184);
#180 = CIRCLE('',#181,15.25);
#181 = AXIS2_PLACEMENT_2D('',#182,#183);
#182 = CARTESIAN_POINT('',(0.,0.));
#183 = DIRECTION('',(1.,0.));
#184 = ( GEOMETRIC_REPRESENTATION_CONTEXT(2) 
PARAMETRIC_REPRESENTATION_CONTEXT() REPRESENTATION_CONTEXT('2D SPACE',''
  ) );
#185 = PCURVE('',#186,#191);
#186 = CYLINDRICAL_SURFACE('',#187,15.25);
#187 = AXIS2_PLACEMENT_3D('',#188,#189,#190);
#188 = CARTESIAN_POINT('',(0.,0.,1.6));
#189 = DIRECTION('',(0.,0.,1.));
#190 = DIRECTION('',(1.,0.,-0.));
#191 = DEFINITIONAL_REPRESENTATION('',(#192),#196);
#192 = LINE('',#193,#194);
#193 = CARTESIAN_POINT('',(0.,19.8));
#194 = VECTOR('',#195,1.);
#195 = DIRECTION('',(1.,0.));
#196 = ( GEOMETRIC_REPRESENTATION_CONTEXT(2) 
PARAMETRIC_REPRESENTATION_CONTEXT() REPRESENTATION_CONTEXT('2D SPACE',''
  ) );
#197 = ADVANCED_FACE('',(#198),#151,.F.);
#198 = FACE_BOUND('',#199,.F.);
#199 = EDGE_LOOP('',(#200,#223,#224,#225,#253,#276,#303,#304));
#200 = ORIENTED_EDGE('',*,*,#201,.T.);
#201 = EDGE_CURVE('',#202,#135,#204,.T.);
#202 = VERTEX_POINT('',#203);
#203 = CARTESIAN_POINT('',(4.9,5.388445916248E-16,17.3));
#204 = SEAM_CURVE('',#205,(#209,#216),.PCURVE_S1.);
#205 = LINE('',#206,#207);
#206 = CARTESIAN_POINT('',(4.9,-1.200153863164E-15,-1.));
#207 = VECTOR('',#208,1.);
#208 = DIRECTION('',(0.,0.,1.));
#209 = PCURVE('',#151,#210);
#210 = DEFINITIONAL_REPRESENTATION('',(#211),#215);
#211 = LINE('',#212,#213);
#212 = CARTESIAN_POINT('',(6.28318530718,-0.));
#213 = VECTOR('',#214,1.);
#214 = DIRECTION('',(0.,1.));
#215 = ( GEOMETRIC_REPRESENTATION_CONTEXT(2) 
PARAMETRIC_REPRESENTATION_CONTEXT() REPRESENTATION_CONTEXT('2D SPACE',''
  ) );
#216 = PCURVE('',#151,#217);
#217 = DEFINITIONAL_REPRESENTATION('',(#218),#222);
#218 = LINE('',#219,#220);
#219 = CARTESIAN_POINT('',(0.,-0.));
#220 = VECTOR('',#221,1.);
#221 = DIRECTION('',(0.,1.));
#222 = ( GEOMETRIC_REPRESENTATION_CONTEXT(2) 
PARAMETRIC_REPRESENTATION_CONTEXT() REPRESENTATION_CONTEXT('2D SPACE',''
  ) );
#223 = ORIENTED_EDGE('',*,*,#134,.F.);
#224 = ORIENTED_EDGE('',*,*,#201,.F.);
#225 = ORIENTED_EDGE('',*,*,#226,.F.);
#226 = EDGE_CURVE('',#227,#202,#229,.T.);
#227 = VERTEX_POINT('',#228);
#228 = CARTESIAN_POINT('',(4.9,-8.133697966727E-14,12.9));
#229 = SEAM_CURVE('',#230,(#234,#241),.PCURVE_S1.);
#230 = LINE('',#231,#232);
#231 = CARTESIAN_POINT('',(4.9,-1.200153863164E-15,-1.));
#232 = VECTOR('',#233,1.);
#233 = DIRECTION('',(0.,0.,1.));
#234 = PCURVE('',#151,#235);
#235 = DEFINITIONAL_REPRESENTATION('',(#236),#240);
#236 = LINE('',#237,#238);
#237 = CARTESIAN_POINT('',(6.28318530718,-0.));
#238 = VECTOR('',#239,1.);
#239 = DIRECTION('',(0.,1.));
#240 = ( GEOMETRIC_REPRESENTATION_CONTEXT(2) 
PARAMETRIC_REPRESENTATION_CONTEXT() REPRESENTATION_CONTEXT('2D SPACE',''
  ) );
#241 = PCURVE('',#242,#247);
#242 = PLANE('',#243);
#243 = AXIS2_PLACEMENT_3D('',#244,#245,#246);
#244 = CARTESIAN_POINT('',(4.9,0.,15.1));
#245 = DIRECTION('',(1.,0.,0.));
#246 = DIRECTION('',(-0.,0.,1.));
#247 = DEFINITIONAL_REPRESENTATION('',(#248),#252);
#248 = LINE('',#249,#250);
#249 = CARTESIAN_POINT('',(-16.1,1.200153863164E-15));
#250 = VECTOR('',#251,1.);
#251 = DIRECTION('',(1.,0.));
#252 = ( GEOMETRIC_REPRESENTATION_CONTEXT(2) 
PARAMETRIC_REPRESENTATION_CONTEXT() REPRESENTATION_CONTEXT('2D SPACE',''
  ) );
#253 = ORIENTED_EDGE('',*,*,#254,.F.);
#254 = EDGE_CURVE('',#255,#227,#257,.T.);
#255 = VERTEX_POINT('',#256);
#256 = CARTESIAN_POINT('',(4.9,-1.200153863164E-15,0.));
#257 = SEAM_CURVE('',#258,(#262,#269),.PCURVE_S1.);
#258 = LINE('',#259,#260);
#259 = CARTESIAN_POINT('',(4.9,-1.200153863164E-15,-1.));
#260 = VECTOR('',#261,1.);
#261 = DIRECTION('',(0.,0.,1.));
#262 = PCURVE('',#151,#263);
#263 = DEFINITIONAL_REPRESENTATION('',(#264),#268);
#264 = LINE('',#265,#266);
#265 = CARTESIAN_POINT('',(6.28318530718,-0.));
#266 = VECTOR('',#267,1.);
#267 = DIRECTION('',(0.,1.));
#268 = ( GEOMETRIC_REPRESENTATION_CONTEXT(2) 
PARAMETRIC_REPRESENTATION_CONTEXT() REPRESENTATION_CONTEXT('2D SPACE',''
  ) );
#269 = PCURVE('',#151,#270);
#270 = DEFINITIONAL_REPRESENTATION('',(#271),#275);
#271 = LINE('',#272,#273);
#272 = CARTESIAN_POINT('',(0.,-0.));
#273 = VECTOR('',#274,1.);
#274 = DIRECTION('',(0.,1.));
#275 = ( GEOMETRIC_REPRESENTATION_CONTEXT(2) 
PARAMETRIC_REPRESENTATION_CONTEXT() REPRESENTATION_CONTEXT('2D SPACE',''
  ) );
#276 = ORIENTED_EDGE('',*,*,#277,.T.);
#277 = EDGE_CURVE('',#255,#255,#278,.T.);
#278 = SURFACE_CURVE('',#279,(#284,#291),.PCURVE_S1.);
#279 = CIRCLE('',#280,4.9);
#280 = AXIS2_PLACEMENT_3D('',#281,#282,#283);
#281 = CARTESIAN_POINT('',(0.,0.,0.));
#282 = DIRECTION('',(0.,0.,1.));
#283 = DIRECTION('',(1.,0.,-0.));
#284 = PCURVE('',#151,#285);
#285 = DEFINITIONAL_REPRESENTATION('',(#286),#290);
#286 = LINE('',#287,#288);
#287 = CARTESIAN_POINT('',(0.,1.));
#288 = VECTOR('',#289,1.);
#289 = DIRECTION('',(1.,0.));
#290 = ( GEOMETRIC_REPRESENTATION_CONTEXT(2) 
PARAMETRIC_REPRESENTATION_CONTEXT() REPRESENTATION_CONTEXT('2D SPACE',''
  ) );
#291 = PCURVE('',#292,#297);
#292 = PLANE('',#293);
#293 = AXIS2_PLACEMENT_3D('',#294,#295,#296);
#294 = CARTESIAN_POINT('',(0.,0.,0.));
#295 = DIRECTION('',(0.,0.,1.));
#296 = DIRECTION('',(1.,0.,-0.));
#297 = DEFINITIONAL_REPRESENTATION('',(#298),#302);
#298 = CIRCLE('',#299,4.9);
#299 = AXIS2_PLACEMENT_2D('',#300,#301);
#300 = CARTESIAN_POINT('',(0.,0.));
#301 = DIRECTION('',(1.,0.));
#302 = ( GEOMETRIC_REPRESENTATION_CONTEXT(2) 
PARAMETRIC_REPRESENTATION_CONTEXT() REPRESENTATION_CONTEXT('2D SPACE',''
  ) );
#303 = ORIENTED_EDGE('',*,*,#254,.T.);
#304 = ORIENTED_EDGE('',*,*,#226,.T.);
#305 = ADVANCED_FACE('',(#306,#571),#186,.T.);
#306 = FACE_BOUND('',#307,.T.);
#307 = EDGE_LOOP('',(#308,#407,#428,#429,#430,#520,#543,#570));
#308 = ORIENTED_EDGE('',*,*,#309,.F.);
#309 = EDGE_CURVE('',#310,#312,#314,.T.);
#310 = VERTEX_POINT('',#311);
#311 = CARTESIAN_POINT('',(15.25,-1.598164072887E-15,17.3));
#312 = VERTEX_POINT('',#313);
#313 = CARTESIAN_POINT('',(15.25,-3.735172737399E-15,12.9));
#314 = SURFACE_CURVE('',#315,(#342,#372),.PCURVE_S1.);
#315 = B_SPLINE_CURVE_WITH_KNOTS('',7,(#316,#317,#318,#319,#320,#321,
    #322,#323,#324,#325,#326,#327,#328,#329,#330,#331,#332,#333,#334,
    #335,#336,#337,#338,#339,#340,#341),.UNSPECIFIED.,.F.,.F.,(8,6,6,6,8
    ),(0.,0.245149496927,0.500038564917,0.754942493253,1.),
  .UNSPECIFIED.);
#316 = CARTESIAN_POINT('',(15.25,-4.440892098501E-16,17.3));
#317 = CARTESIAN_POINT('',(15.25,-0.292880746909,17.3));
#318 = CARTESIAN_POINT('',(15.243437523568,-0.577590869399,
    17.254511584711));
#319 = CARTESIAN_POINT('',(15.230972672905,-0.846006608735,
    17.168099488514));
#320 = CARTESIAN_POINT('',(15.214307377141,-1.091436798387,
    17.046799221629));
#321 = CARTESIAN_POINT('',(15.195741167334,-1.308818035304,
    16.898077936305));
#322 = CARTESIAN_POINT('',(15.177325977413,-1.495192953094,
    16.730757394808));
#323 = CARTESIAN_POINT('',(15.142900149244,-1.811455807242,
    16.372027602937));
#324 = CARTESIAN_POINT('',(15.126530568602,-1.943248194871,
    16.174885748946));
#325 = CARTESIAN_POINT('',(15.112519991887,-2.04690336842,15.9681502717)
  );
#326 = CARTESIAN_POINT('',(15.101603987124,-2.123678178961,
    15.755077814423));
#327 = CARTESIAN_POINT('',(15.094189404283,-2.174536201435,
    15.53808701197));
#328 = CARTESIAN_POINT('',(15.090477129634,-2.2,15.319130889183));
#329 = CARTESIAN_POINT('',(15.090477129634,-2.2,14.880856335217));
#330 = CARTESIAN_POINT('',(15.094189826816,-2.17453328093,
    14.661902401849));
#331 = CARTESIAN_POINT('',(15.101604397508,-2.123675425221,
    14.444918779552));
#332 = CARTESIAN_POINT('',(15.112519912187,-2.046903397675,
    14.231851617818));
#333 = CARTESIAN_POINT('',(15.126530351383,-1.943250092023,
    14.025116730514));
#334 = CARTESIAN_POINT('',(15.142900097943,-1.811456278538,
    13.827972931643));
#335 = CARTESIAN_POINT('',(15.177318709984,-1.495259717437,
    13.469318334474));
#336 = CARTESIAN_POINT('',(15.195735394953,-1.30888582417,
    13.301960966219));
#337 = CARTESIAN_POINT('',(15.214309346559,-1.091442299314,
    13.153175674623));
#338 = CARTESIAN_POINT('',(15.230981354502,-0.845917648638,
    13.031840186991));
#339 = CARTESIAN_POINT('',(15.243444064826,-0.577430593386,
    12.945443157667));
#340 = CARTESIAN_POINT('',(15.25,-0.292734843407,12.9));
#341 = CARTESIAN_POINT('',(15.25,-8.881784197001E-16,12.9));
#342 = PCURVE('',#186,#343);
#343 = DEFINITIONAL_REPRESENTATION('',(#344),#371);
#344 = B_SPLINE_CURVE_WITH_KNOTS('',7,(#345,#346,#347,#348,#349,#350,
    #351,#352,#353,#354,#355,#356,#357,#358,#359,#360,#361,#362,#363,
    #364,#365,#366,#367,#368,#369,#370),.UNSPECIFIED.,.F.,.F.,(8,6,6,6,8
    ),(0.,0.245149496927,0.500038564917,0.754942493253,1.),
  .UNSPECIFIED.);
#345 = CARTESIAN_POINT('',(6.28318530718,15.7));
#346 = CARTESIAN_POINT('',(6.2639800123,15.7));
#347 = CARTESIAN_POINT('',(6.245310483829,15.654511584711));
#348 = CARTESIAN_POINT('',(6.22769795012,15.568099488514));
#349 = CARTESIAN_POINT('',(6.211572157228,15.446799221629));
#350 = CARTESIAN_POINT('',(6.197267811369,15.298077936305));
#351 = CARTESIAN_POINT('',(6.184987609282,15.130757394808));
#352 = CARTESIAN_POINT('',(6.16412656037,14.772027602937));
#353 = CARTESIAN_POINT('',(6.155419027565,14.574885748946));
#354 = CARTESIAN_POINT('',(6.148560501345,14.3681502717));
#355 = CARTESIAN_POINT('',(6.143475496997,14.155077814423));
#356 = CARTESIAN_POINT('',(6.140105286217,13.938087011969));
#357 = CARTESIAN_POINT('',(6.138417878528,13.719130889183));
#358 = CARTESIAN_POINT('',(6.138417878528,13.280856335217));
#359 = CARTESIAN_POINT('',(6.140105479689,13.061902401849));
#360 = CARTESIAN_POINT('',(6.143475679617,12.844918779553));
#361 = CARTESIAN_POINT('',(6.148560498681,12.631851617818));
#362 = CARTESIAN_POINT('',(6.1554189024,12.425116730514));
#363 = CARTESIAN_POINT('',(6.164126529283,12.227972931643));
#364 = CARTESIAN_POINT('',(6.184983205432,11.869318334474));
#365 = CARTESIAN_POINT('',(6.197263350639,11.701960966219));
#366 = CARTESIAN_POINT('',(6.211571812895,11.553175674623));
#367 = CARTESIAN_POINT('',(6.227703801101,11.431840186991));
#368 = CARTESIAN_POINT('',(6.245320994117,11.345443157667));
#369 = CARTESIAN_POINT('',(6.263989579743,11.3));
#370 = CARTESIAN_POINT('',(6.28318530718,11.3));
#371 = ( GEOMETRIC_REPRESENTATION_CONTEXT(2) 
PARAMETRIC_REPRESENTATION_CONTEXT() REPRESENTATION_CONTEXT('2D SPACE',''
  ) );
#372 = PCURVE('',#373,#378);
#373 = CYLINDRICAL_SURFACE('',#374,2.2);
#374 = AXIS2_PLACEMENT_3D('',#375,#376,#377);
#375 = CARTESIAN_POINT('',(4.9,0.,15.1));
#376 = DIRECTION('',(1.,0.,0.));
#377 = DIRECTION('',(-0.,0.,1.));
#378 = DEFINITIONAL_REPRESENTATION('',(#379),#406);
#379 = B_SPLINE_CURVE_WITH_KNOTS('',7,(#380,#381,#382,#383,#384,#385,
    #386,#387,#388,#389,#390,#391,#392,#393,#394,#395,#396,#397,#398,
    #399,#400,#401,#402,#403,#404,#405),.UNSPECIFIED.,.F.,.F.,(8,6,6,6,8
    ),(0.,0.245149496927,0.500038564917,0.754942493253,1.),
  .UNSPECIFIED.);
#380 = CARTESIAN_POINT('',(-8.881784197001E-16,10.35));
#381 = CARTESIAN_POINT('',(0.133127612232,10.35));
#382 = CARTESIAN_POINT('',(0.262541218134,10.343437523568));
#383 = CARTESIAN_POINT('',(0.388402340975,10.330972672905));
#384 = CARTESIAN_POINT('',(0.510555482812,10.314307377141));
#385 = CARTESIAN_POINT('',(0.628583929719,10.295741167334));
#386 = CARTESIAN_POINT('',(0.741657137879,10.277325977413));
#387 = CARTESIAN_POINT('',(0.95903694056,10.242900149244));
#388 = CARTESIAN_POINT('',(1.065870778523,10.226530568602));
#389 = CARTESIAN_POINT('',(1.169738869278,10.212519991887));
#390 = CARTESIAN_POINT('',(1.271419032133,10.201603987124));
#391 = CARTESIAN_POINT('',(1.371666024352,10.194189404283));
#392 = CARTESIAN_POINT('',(1.471191377166,10.190477129634));
#393 = CARTESIAN_POINT('',(1.670407083514,10.190477129634));
#394 = CARTESIAN_POINT('',(1.769931425643,10.194189826816));
#395 = CARTESIAN_POINT('',(1.87017547377,10.201604397508));
#396 = CARTESIAN_POINT('',(1.97185307962,10.212519912187));
#397 = CARTESIAN_POINT('',(2.075720467225,10.226530351383));
#398 = CARTESIAN_POINT('',(2.18255538909,10.242900097943));
#399 = CARTESIAN_POINT('',(2.399889625972,10.277318709984));
#400 = CARTESIAN_POINT('',(2.512975104627,10.295735394953));
#401 = CARTESIAN_POINT('',(2.631041425962,10.314309346559));
#402 = CARTESIAN_POINT('',(2.753236428186,10.330981354502));
#403 = CARTESIAN_POINT('',(2.879124298879,10.343444064826));
#404 = CARTESIAN_POINT('',(3.008531361132,10.35));
#405 = CARTESIAN_POINT('',(3.14159265359,10.35));
#406 = ( GEOMETRIC_REPRESENTATION_CONTEXT(2) 
PARAMETRIC_REPRESENTATION_CONTEXT() REPRESENTATION_CONTEXT('2D SPACE',''
  ) );
#407 = ORIENTED_EDGE('',*,*,#408,.T.);
#408 = EDGE_CURVE('',#310,#170,#409,.T.);
#409 = SEAM_CURVE('',#410,(#414,#421),.PCURVE_S1.);
#410 = LINE('',#411,#412);
#411 = CARTESIAN_POINT('',(15.25,-3.735172737399E-15,1.6));
#412 = VECTOR('',#413,1.);
#413 = DIRECTION('',(0.,0.,1.));
#414 = PCURVE('',#186,#415);
#415 = DEFINITIONAL_REPRESENTATION('',(#416),#420);
#416 = LINE('',#417,#418);
#417 = CARTESIAN_POINT('',(0.,-0.));
#418 = VECTOR('',#419,1.);
#419 = DIRECTION('',(0.,1.));
#420 = ( GEOMETRIC_REPRESENTATION_CONTEXT(2) 
PARAMETRIC_REPRESENTATION_CONTEXT() REPRESENTATION_CONTEXT('2D SPACE',''
  ) );
#421 = PCURVE('',#186,#422);
#422 = DEFINITIONAL_REPRESENTATION('',(#423),#427);
#423 = LINE('',#424,#425);
#424 = CARTESIAN_POINT('',(6.28318530718,-0.));
#425 = VECTOR('',#426,1.);
#426 = DIRECTION('',(0.,1.));
#427 = ( GEOMETRIC_REPRESENTATION_CONTEXT(2) 
PARAMETRIC_REPRESENTATION_CONTEXT() REPRESENTATION_CONTEXT('2D SPACE',''
  ) );
#428 = ORIENTED_EDGE('',*,*,#169,.F.);
#429 = ORIENTED_EDGE('',*,*,#408,.F.);
#430 = ORIENTED_EDGE('',*,*,#431,.F.);
#431 = EDGE_CURVE('',#312,#310,#432,.T.);
#432 = SURFACE_CURVE('',#433,(#460,#490),.PCURVE_S1.);
#433 = B_SPLINE_CURVE_WITH_KNOTS('',7,(#434,#435,#436,#437,#438,#439,
    #440,#441,#442,#443,#444,#445,#446,#447,#448,#449,#450,#451,#452,
    #453,#454,#455,#456,#457,#458,#459),.UNSPECIFIED.,.F.,.F.,(8,6,6,6,8
    ),(0.,0.245154945546,0.5000504238,0.754945902053,1.),.UNSPECIFIED.);
#434 = CARTESIAN_POINT('',(15.25,8.422851137639E-16,12.9));
#435 = CARTESIAN_POINT('',(15.25,0.292880746909,12.9));
#436 = CARTESIAN_POINT('',(15.243437523568,0.577590869399,
    12.945488415289));
#437 = CARTESIAN_POINT('',(15.230972672905,0.846006608735,
    13.031900511486));
#438 = CARTESIAN_POINT('',(15.214307377141,1.091436798387,
    13.153200778371));
#439 = CARTESIAN_POINT('',(15.195741167334,1.308818035304,
    13.301922063695));
#440 = CARTESIAN_POINT('',(15.177325977413,1.495192953094,
    13.469242605192));
#441 = CARTESIAN_POINT('',(15.142900097943,1.811456278538,
    13.827972931643));
#442 = CARTESIAN_POINT('',(15.126530351383,1.943250092022,
    14.025116730513));
#443 = CARTESIAN_POINT('',(15.112519912187,2.046903397675,
    14.231851617819));
#444 = CARTESIAN_POINT('',(15.101604397508,2.123675425221,
    14.444918779551));
#445 = CARTESIAN_POINT('',(15.094189826816,2.17453328093,14.661902401849
    ));
#446 = CARTESIAN_POINT('',(15.090477129634,2.2,14.880856335217));
#447 = CARTESIAN_POINT('',(15.090477129634,2.2,15.319143664783));
#448 = CARTESIAN_POINT('',(15.094189826816,2.17453328093,15.538097598151
    ));
#449 = CARTESIAN_POINT('',(15.101604397508,2.123675425222,
    15.755081220447));
#450 = CARTESIAN_POINT('',(15.112519912187,2.046903397674,
    15.968148382183));
#451 = CARTESIAN_POINT('',(15.126530351383,1.943250092023,
    16.174883269486));
#452 = CARTESIAN_POINT('',(15.142900097943,1.811456278538,
    16.372027068357));
#453 = CARTESIAN_POINT('',(15.177319034579,1.495256735455,16.73068504792
    ));
#454 = CARTESIAN_POINT('',(15.195736263579,1.308877214673,
    16.898047127258));
#455 = CARTESIAN_POINT('',(15.214310305474,1.091430138674,
    17.046830864535));
#456 = CARTESIAN_POINT('',(15.230981559637,0.845909141762,
    17.168160964596));
#457 = CARTESIAN_POINT('',(15.243443761497,0.577430574386,
    17.254554844691));
#458 = CARTESIAN_POINT('',(15.25,0.292741463072,17.3));
#459 = CARTESIAN_POINT('',(15.25,1.246418557483E-15,17.3));
#460 = PCURVE('',#186,#461);
#461 = DEFINITIONAL_REPRESENTATION('',(#462),#489);
#462 = B_SPLINE_CURVE_WITH_KNOTS('',7,(#463,#464,#465,#466,#467,#468,
    #469,#470,#471,#472,#473,#474,#475,#476,#477,#478,#479,#480,#481,
    #482,#483,#484,#485,#486,#487,#488),.UNSPECIFIED.,.F.,.F.,(8,6,6,6,8
    ),(0.,0.245154945546,0.5000504238,0.754945902053,1.),.UNSPECIFIED.);
#463 = CARTESIAN_POINT('',(0.,11.3));
#464 = CARTESIAN_POINT('',(1.920529487929E-02,11.3));
#465 = CARTESIAN_POINT('',(3.787482335101E-02,11.345488415289));
#466 = CARTESIAN_POINT('',(5.548735705982E-02,11.431900511486));
#467 = CARTESIAN_POINT('',(7.161314995146E-02,11.553200778371));
#468 = CARTESIAN_POINT('',(8.591749581086E-02,11.701922063695));
#469 = CARTESIAN_POINT('',(9.819769789735E-02,11.869242605192));
#470 = CARTESIAN_POINT('',(0.119058777897,12.227972931643));
#471 = CARTESIAN_POINT('',(0.127766404779,12.425116730513));
#472 = CARTESIAN_POINT('',(0.134624808499,12.631851617819));
#473 = CARTESIAN_POINT('',(0.139709627563,12.844918779551));
#474 = CARTESIAN_POINT('',(0.14307982749,13.061902401849));
#475 = CARTESIAN_POINT('',(0.144767428651,13.280856335217));
#476 = CARTESIAN_POINT('',(0.144767428651,13.719143664783));
#477 = CARTESIAN_POINT('',(0.14307982749,13.938097598151));
#478 = CARTESIAN_POINT('',(0.139709627563,14.155081220447));
#479 = CARTESIAN_POINT('',(0.134624808499,14.368148382182));
#480 = CARTESIAN_POINT('',(0.127766404779,14.574883269486));
#481 = CARTESIAN_POINT('',(0.119058777897,14.772027068357));
#482 = CARTESIAN_POINT('',(9.820190505273E-02,15.13068504792));
#483 = CARTESIAN_POINT('',(8.592138878683E-02,15.298047127258));
#484 = CARTESIAN_POINT('',(7.161269570433E-02,15.446830864536));
#485 = CARTESIAN_POINT('',(5.548094792546E-02,15.568160964595));
#486 = CARTESIAN_POINT('',(3.786431243925E-02,15.654554844691));
#487 = CARTESIAN_POINT('',(1.91961615129E-02,15.7));
#488 = CARTESIAN_POINT('',(0.,15.7));
#489 = ( GEOMETRIC_REPRESENTATION_CONTEXT(2) 
PARAMETRIC_REPRESENTATION_CONTEXT() REPRESENTATION_CONTEXT('2D SPACE',''
  ) );
#490 = PCURVE('',#373,#491);
#491 = DEFINITIONAL_REPRESENTATION('',(#492),#519);
#492 = B_SPLINE_CURVE_WITH_KNOTS('',7,(#493,#494,#495,#496,#497,#498,
    #499,#500,#501,#502,#503,#504,#505,#506,#507,#508,#509,#510,#511,
    #512,#513,#514,#515,#516,#517,#518),.UNSPECIFIED.,.F.,.F.,(8,6,6,6,8
    ),(0.,0.245154945546,0.5000504238,0.754945902053,1.),.UNSPECIFIED.);
#493 = CARTESIAN_POINT('',(3.14159265359,10.35));
#494 = CARTESIAN_POINT('',(3.274720265821,10.35));
#495 = CARTESIAN_POINT('',(3.404133871724,10.343437523568));
#496 = CARTESIAN_POINT('',(3.529994994564,10.330972672905));
#497 = CARTESIAN_POINT('',(3.652148136402,10.314307377141));
#498 = CARTESIAN_POINT('',(3.770176583309,10.295741167334));
#499 = CARTESIAN_POINT('',(3.883249791469,10.277325977413));
#500 = CARTESIAN_POINT('',(4.10062991809,10.242900097943));
#501 = CARTESIAN_POINT('',(4.207464839954,10.226530351383));
#502 = CARTESIAN_POINT('',(4.31133222756,10.212519912187));
#503 = CARTESIAN_POINT('',(4.413009833409,10.201604397508));
#504 = CARTESIAN_POINT('',(4.513253881537,10.194189826816));
#505 = CARTESIAN_POINT('',(4.612778223665,10.190477129634));
#506 = CARTESIAN_POINT('',(4.811999737104,10.190477129634));
#507 = CARTESIAN_POINT('',(4.911524079233,10.194189826816));
#508 = CARTESIAN_POINT('',(5.01176812736,10.201604397508));
#509 = CARTESIAN_POINT('',(5.11344573321,10.212519912187));
#510 = CARTESIAN_POINT('',(5.217313120815,10.226530351383));
#511 = CARTESIAN_POINT('',(5.324148042679,10.242900097943));
#512 = CARTESIAN_POINT('',(5.541484329194,10.277319034579));
#513 = CARTESIAN_POINT('',(5.65457309865,10.295736263579));
#514 = CARTESIAN_POINT('',(5.772640105478,10.314310305474));
#515 = CARTESIAN_POINT('',(5.894832693137,10.330981559637));
#516 = CARTESIAN_POINT('',(6.02071696464,10.343443761497));
#517 = CARTESIAN_POINT('',(6.150121005783,10.35));
#518 = CARTESIAN_POINT('',(6.28318530718,10.35));
#519 = ( GEOMETRIC_REPRESENTATION_CONTEXT(2) 
PARAMETRIC_REPRESENTATION_CONTEXT() REPRESENTATION_CONTEXT('2D SPACE',''
  ) );
#520 = ORIENTED_EDGE('',*,*,#521,.F.);
#521 = EDGE_CURVE('',#522,#312,#524,.T.);
#522 = VERTEX_POINT('',#523);
#523 = CARTESIAN_POINT('',(15.25,-3.735172737399E-15,1.6));
#524 = SEAM_CURVE('',#525,(#529,#536),.PCURVE_S1.);
#525 = LINE('',#526,#527);
#526 = CARTESIAN_POINT('',(15.25,-3.735172737399E-15,1.6));
#527 = VECTOR('',#528,1.);
#528 = DIRECTION('',(0.,0.,1.));
#529 = PCURVE('',#186,#530);
#530 = DEFINITIONAL_REPRESENTATION('',(#531),#535);
#531 = LINE('',#532,#533);
#532 = CARTESIAN_POINT('',(6.28318530718,-0.));
#533 = VECTOR('',#534,1.);
#534 = DIRECTION('',(0.,1.));
#535 = ( GEOMETRIC_REPRESENTATION_CONTEXT(2) 
PARAMETRIC_REPRESENTATION_CONTEXT() REPRESENTATION_CONTEXT('2D SPACE',''
  ) );
#536 = PCURVE('',#186,#537);
#537 = DEFINITIONAL_REPRESENTATION('',(#538),#542);
#538 = LINE('',#539,#540);
#539 = CARTESIAN_POINT('',(0.,-0.));
#540 = VECTOR('',#541,1.);
#541 = DIRECTION('',(0.,1.));
#542 = ( GEOMETRIC_REPRESENTATION_CONTEXT(2) 
PARAMETRIC_REPRESENTATION_CONTEXT() REPRESENTATION_CONTEXT('2D SPACE',''
  ) );
#543 = ORIENTED_EDGE('',*,*,#544,.T.);
#544 = EDGE_CURVE('',#522,#522,#545,.T.);
#545 = SURFACE_CURVE('',#546,(#551,#558),.PCURVE_S1.);
#546 = CIRCLE('',#547,15.25);
#547 = AXIS2_PLACEMENT_3D('',#548,#549,#550);
#548 = CARTESIAN_POINT('',(0.,0.,1.6));
#549 = DIRECTION('',(0.,0.,1.));
#550 = DIRECTION('',(1.,0.,-0.));
#551 = PCURVE('',#186,#552);
#552 = DEFINITIONAL_REPRESENTATION('',(#553),#557);
#553 = LINE('',#554,#555);
#554 = CARTESIAN_POINT('',(0.,0.));
#555 = VECTOR('',#556,1.);
#556 = DIRECTION('',(1.,0.));
#557 = ( GEOMETRIC_REPRESENTATION_CONTEXT(2) 
PARAMETRIC_REPRESENTATION_CONTEXT() REPRESENTATION_CONTEXT('2D SPACE',''
  ) );
#558 = PCURVE('',#559,#564);
#559 = PLANE('',#560);
#560 = AXIS2_PLACEMENT_3D('',#561,#562,#563);
#561 = CARTESIAN_POINT('',(0.,0.,1.6));
#562 = DIRECTION('',(0.,0.,1.));
#563 = DIRECTION('',(1.,0.,-0.));
#564 = DEFINITIONAL_REPRESENTATION('',(#565),#569);
#565 = CIRCLE('',#566,15.25);
#566 = AXIS2_PLACEMENT_2D('',#567,#568);
#567 = CARTESIAN_POINT('',(0.,0.));
#568 = DIRECTION('',(1.,0.));
#569 = ( GEOMETRIC_REPRESENTATION_CONTEXT(2) 
PARAMETRIC_REPRESENTATION_CONTEXT() REPRESENTATION_CONTEXT('2D SPACE',''
  ) );
#570 = ORIENTED_EDGE('',*,*,#521,.T.);
#571 = FACE_BOUND('',#572,.T.);
#572 = EDGE_LOOP('',(#573));
#573 = ORIENTED_EDGE('',*,*,#574,.F.);
#574 = EDGE_CURVE('',#575,#575,#577,.T.);
#575 = VERTEX_POINT('',#576);
#576 = CARTESIAN_POINT('',(-5.388445916248E-16,15.25,17.3));
#577 = SURFACE_CURVE('',#578,(#637,#699),.PCURVE_S1.);
#578 = B_SPLINE_CURVE_WITH_KNOTS('',8,(#579,#580,#581,#582,#583,#584,
    #585,#586,#587,#588,#589,#590,#591,#592,#593,#594,#595,#596,#597,
    #598,#599,#600,#601,#602,#603,#604,#605,#606,#607,#608,#609,#610,
    #611,#612,#613,#614,#615,#616,#617,#618,#619,#620,#621,#622,#623,
    #624,#625,#626,#627,#628,#629,#630,#631,#632,#633,#634,#635,#636),
  .UNSPECIFIED.,.T.,.F.,(9,7,7,7,7,7,7,7,9),(0.,0.137145944067,
    0.279740574284,0.45062159476,0.596663929306,0.690979100156,
    0.794723009599,0.899381917484,1.),.UNSPECIFIED.);
#579 = CARTESIAN_POINT('',(0.,15.25,17.3));
#580 = CARTESIAN_POINT('',(0.256270653546,15.25,17.3));
#581 = CARTESIAN_POINT('',(0.506413338776,15.245078142676,
    17.265883688534));
#582 = CARTESIAN_POINT('',(0.745350706484,15.235646991904,
    17.200504024588));
#583 = CARTESIAN_POINT('',(0.968721703561,15.222640025023,
    17.107449355072));
#584 = CARTESIAN_POINT('',(1.17295476223,15.207345048463,16.991028739633
    ));
#585 = CARTESIAN_POINT('',(1.355411764752,15.191137369854,
    16.856247800931));
#586 = CARTESIAN_POINT('',(1.514574378105,15.17521627152,16.708773483421
    ));
#587 = CARTESIAN_POINT('',(1.791304375485,15.145093671872,
    16.394884915534));
#588 = CARTESIAN_POINT('',(1.910300097964,15.130622963763,
    16.224171212443));
#589 = CARTESIAN_POINT('',(2.008032678339,15.117773958155,
    16.045676075668));
#590 = CARTESIAN_POINT('',(2.085290773691,15.107061989505,
    15.861614043062));
#591 = CARTESIAN_POINT('',(2.142749937389,15.098823518559,
    15.673706263502));
#592 = CARTESIAN_POINT('',(2.180902151076,15.093261335621,
    15.483347981273));
#593 = CARTESIAN_POINT('',(2.2,15.090477129634,15.291739528035));
#594 = CARTESIAN_POINT('',(2.2,15.090477129634,14.870225245042));
#595 = CARTESIAN_POINT('',(2.172573005819,15.094475406022,
    14.640784992842));
#596 = CARTESIAN_POINT('',(2.117860590914,15.102452664519,
    14.413473278109));
#597 = CARTESIAN_POINT('',(2.035281088965,15.114205368715,
    14.190266828384));
#598 = CARTESIAN_POINT('',(1.923784356399,15.129327329171,
    13.973726547255));
#599 = CARTESIAN_POINT('',(1.782012197856,15.147096424831,
    13.767253965345));
#600 = CARTESIAN_POINT('',(1.608534707295,15.166344250942,
    13.575455937662));
#601 = CARTESIAN_POINT('',(1.226103661193,15.201660809496,
    13.259081461953));
#602 = CARTESIAN_POINT('',(1.01929732063,15.218401656402,13.123263578022
    ));
#603 = CARTESIAN_POINT('',(0.784982555695,15.23390365131,13.009250187826
    ));
#604 = CARTESIAN_POINT('',(0.528858573382,15.246116401792,
    12.925863531464));
#605 = CARTESIAN_POINT('',(0.258721859206,15.25316259766,12.878942592039
    ));
#606 = CARTESIAN_POINT('',(-1.65775611224E-02,15.254185705408,
    12.871293834536));
#607 = CARTESIAN_POINT('',(-0.287960273038,15.249486156531,
    12.902576714518));
#608 = CARTESIAN_POINT('',(-0.714483481425,15.234174107671,
    13.012089261116));
#609 = CARTESIAN_POINT('',(-0.877986277289,15.226201274938,
    13.070083395285));
#610 = CARTESIAN_POINT('',(-1.036050639922,15.216486545854,
    13.142692754647));
#611 = CARTESIAN_POINT('',(-1.187162702975,15.205356189263,
    13.229315270287));
#612 = CARTESIAN_POINT('',(-1.329889662555,15.193219948414,
    13.329164607972));
#613 = CARTESIAN_POINT('',(-1.462901824422,15.180543475496,
    13.441280838253));
#614 = CARTESIAN_POINT('',(-1.584997268984,15.167813435758,
    13.564540666456));
#615 = CARTESIAN_POINT('',(-1.816270941295,15.141945674091,
    13.844102512397));
#616 = CARTESIAN_POINT('',(-1.922979494539,15.128890234342,
    14.002526582653));
#617 = CARTESIAN_POINT('',(-2.013838571076,15.116949145624,
    14.171247430536));
#618 = CARTESIAN_POINT('',(-2.087702308284,15.106715295607,
    14.348393729964));
#619 = CARTESIAN_POINT('',(-2.14369792429,15.098685690499,
    14.531961421701));
#620 = CARTESIAN_POINT('',(-2.181231953921,15.093212985276,
    14.719855315859));
#621 = CARTESIAN_POINT('',(-2.2,15.090477129634,14.909925706737));
#622 = CARTESIAN_POINT('',(-2.2,15.090477129634,15.291750706685));
#623 = CARTESIAN_POINT('',(-2.180899960697,15.093261652521,
    15.48335911481));
#624 = CARTESIAN_POINT('',(-2.142747121112,15.098823933499,
    15.673712362086));
#625 = CARTESIAN_POINT('',(-2.085289411448,15.107062154847,
    15.861614801315));
#626 = CARTESIAN_POINT('',(-2.008033408055,15.117773826885,
    16.045673964922));
#627 = CARTESIAN_POINT('',(-1.910301638652,15.130622788023,
    16.224169219203));
#628 = CARTESIAN_POINT('',(-1.791304787869,15.145093626984,
    16.394884447776));
#629 = CARTESIAN_POINT('',(-1.514630187671,15.17521019654,
    16.708710179895));
#630 = CARTESIAN_POINT('',(-1.355472094868,15.191131956329,
    16.856206607424));
#631 = CARTESIAN_POINT('',(-1.172972792174,15.207345039764,
    16.991036963056));
#632 = CARTESIAN_POINT('',(-0.968669640219,15.222645932556,
    17.107495914565));
#633 = CARTESIAN_POINT('',(-0.745229678996,15.235654885334,
    17.200558669632));
#634 = CARTESIAN_POINT('',(-0.506258296557,15.245082821122,
    17.265916133519));
#635 = CARTESIAN_POINT('',(-0.256148780187,15.25,17.3));
#636 = CARTESIAN_POINT('',(0.,15.25,17.3));
#637 = PCURVE('',#186,#638);
#638 = DEFINITIONAL_REPRESENTATION('',(#639),#698);
#639 = B_SPLINE_CURVE_WITH_KNOTS('',8,(#640,#641,#642,#643,#644,#645,
    #646,#647,#648,#649,#650,#651,#652,#653,#654,#655,#656,#657,#658,
    #659,#660,#661,#662,#663,#664,#665,#666,#667,#668,#669,#670,#671,
    #672,#673,#674,#675,#676,#677,#678,#679,#680,#681,#682,#683,#684,
    #685,#686,#687,#688,#689,#690,#691,#692,#693,#694,#695,#696,#697),
  .UNSPECIFIED.,.T.,.F.,(9,7,7,7,7,7,7,7,9),(0.,0.137145944067,
    0.279740574284,0.45062159476,0.596663929306,0.690979100156,
    0.794723009599,0.899381917484,1.),.UNSPECIFIED.);
#640 = CARTESIAN_POINT('',(1.570796326795,15.7));
#641 = CARTESIAN_POINT('',(1.553991693776,15.7));
#642 = CARTESIAN_POINT('',(1.537588885562,15.665883688534));
#643 = CARTESIAN_POINT('',(1.521913669876,15.600504024588));
#644 = CARTESIAN_POINT('',(1.507246073289,15.507449355072));
#645 = CARTESIAN_POINT('',(1.493819047146,15.391028739633));
#646 = CARTESIAN_POINT('',(1.481808780462,15.256247800931));
#647 = CARTESIAN_POINT('',(1.47132020859,15.108773483421));
#648 = CARTESIAN_POINT('',(1.453066790792,14.794884915534));
#649 = CARTESIAN_POINT('',(1.445206930382,14.624171212443));
#650 = CARTESIAN_POINT('',(1.438743468293,14.445676075668));
#651 = CARTESIAN_POINT('',(1.433629018786,14.261614043062));
#652 = CARTESIAN_POINT('',(1.42982268757,14.073706263503));
#653 = CARTESIAN_POINT('',(1.42729445391,13.883347981273));
#654 = CARTESIAN_POINT('',(1.426028898143,13.691739528035));
#655 = CARTESIAN_POINT('',(1.426028898143,13.270225245042));
#656 = CARTESIAN_POINT('',(1.427846399869,13.040784992842));
#657 = CARTESIAN_POINT('',(1.431472032862,12.813473278109));
#658 = CARTESIAN_POINT('',(1.436941612258,12.590266828384));
#659 = CARTESIAN_POINT('',(1.444319464168,12.373726547255));
#660 = CARTESIAN_POINT('',(1.453687578747,12.167253965345));
#661 = CARTESIAN_POINT('',(1.46513101573,11.975455937662));
#662 = CARTESIAN_POINT('',(1.4903151654,11.659081461953));
#663 = CARTESIAN_POINT('',(1.503919720858,11.523263578022));
#664 = CARTESIAN_POINT('',(1.519315404677,11.409250187826));
#665 = CARTESIAN_POINT('',(1.536123431257,11.325863531464));
#666 = CARTESIAN_POINT('',(1.553834618069,11.278942592039));
#667 = CARTESIAN_POINT('',(1.571880539544,11.271293834536));
#668 = CARTESIAN_POINT('',(1.589675721148,11.302576714518));
#669 = CARTESIAN_POINT('',(1.617662473197,11.412089261115));
#670 = CARTESIAN_POINT('',(1.628395823132,11.470083395285));
#671 = CARTESIAN_POINT('',(1.638778896721,11.542692754647));
#672 = CARTESIAN_POINT('',(1.648713365298,11.629315270287));
#673 = CARTESIAN_POINT('',(1.658105252189,11.729164607972));
#674 = CARTESIAN_POINT('',(1.666866292204,11.841280838253));
#675 = CARTESIAN_POINT('',(1.674915724477,11.964540666456));
#676 = CARTESIAN_POINT('',(1.690175778208,12.244102512397));
#677 = CARTESIAN_POINT('',(1.697224847769,12.402526582653));
#678 = CARTESIAN_POINT('',(1.70323374139,12.571247430536));
#679 = CARTESIAN_POINT('',(1.708123387776,12.748393729964));
#680 = CARTESIAN_POINT('',(1.711832771459,12.931961421701));
#681 = CARTESIAN_POINT('',(1.714320065456,13.119855315859));
#682 = CARTESIAN_POINT('',(1.715563755446,13.309925706737));
#683 = CARTESIAN_POINT('',(1.715563755446,13.691750706685));
#684 = CARTESIAN_POINT('',(1.714298054576,13.88335911481));
#685 = CARTESIAN_POINT('',(1.71176977933,14.073712362086));
#686 = CARTESIAN_POINT('',(1.707963544826,14.261614801315));
#687 = CARTESIAN_POINT('',(1.702849233899,14.445673964922));
#688 = CARTESIAN_POINT('',(1.696385824854,14.624169219204));
#689 = CARTESIAN_POINT('',(1.688525889999,14.794884447776));
#690 = CARTESIAN_POINT('',(1.67027612626,15.108710179895));
#691 = CARTESIAN_POINT('',(1.659787844648,15.256206607424));
#692 = CARTESIAN_POINT('',(1.647774782405,15.391036963056));
#693 = CARTESIAN_POINT('',(1.63434314861,15.507495914565));
#694 = CARTESIAN_POINT('',(1.619671036413,15.600558669631));
#695 = CARTESIAN_POINT('',(1.603993601503,15.665916133519));
#696 = CARTESIAN_POINT('',(1.587592968119,15.7));
#697 = CARTESIAN_POINT('',(1.570796326795,15.7));
#698 = ( GEOMETRIC_REPRESENTATION_CONTEXT(2) 
PARAMETRIC_REPRESENTATION_CONTEXT() REPRESENTATION_CONTEXT('2D SPACE',''
  ) );
#699 = PCURVE('',#700,#705);
#700 = CYLINDRICAL_SURFACE('',#701,2.2);
#701 = AXIS2_PLACEMENT_3D('',#702,#703,#704);
#702 = CARTESIAN_POINT('',(0.,4.9,15.1));
#703 = DIRECTION('',(0.,1.,0.));
#704 = DIRECTION('',(0.,-0.,1.));
#705 = DEFINITIONAL_REPRESENTATION('',(#706),#765);
#706 = B_SPLINE_CURVE_WITH_KNOTS('',8,(#707,#708,#709,#710,#711,#712,
    #713,#714,#715,#716,#717,#718,#719,#720,#721,#722,#723,#724,#725,
    #726,#727,#728,#729,#730,#731,#732,#733,#734,#735,#736,#737,#738,
    #739,#740,#741,#742,#743,#744,#745,#746,#747,#748,#749,#750,#751,
    #752,#753,#754,#755,#756,#757,#758,#759,#760,#761,#762,#763,#764),
  .UNSPECIFIED.,.F.,.F.,(9,7,7,7,7,7,7,7,9),(0.,0.137145944067,
    0.279740574284,0.45062159476,0.596663929306,0.690979100156,
    0.794723009599,0.899381917484,1.),.UNSPECIFIED.);
#707 = CARTESIAN_POINT('',(0.,10.35));
#708 = CARTESIAN_POINT('',(0.116486660703,10.35));
#709 = CARTESIAN_POINT('',(0.230187816658,10.345078142676));
#710 = CARTESIAN_POINT('',(0.34120441991,10.335646991904));
#711 = CARTESIAN_POINT('',(0.449478911893,10.322640025023));
#712 = CARTESIAN_POINT('',(0.554816150402,10.307345048463));
#713 = CARTESIAN_POINT('',(0.656852231759,10.291137369854));
#714 = CARTESIAN_POINT('',(0.754978747703,10.27521627152));
#715 = CARTESIAN_POINT('',(0.945186075049,10.245093671872));
#716 = CARTESIAN_POINT('',(1.039162319033,10.230622963763));
#717 = CARTESIAN_POINT('',(1.130788335244,10.217773958155));
#718 = CARTESIAN_POINT('',(1.220578950705,10.207061989505));
#719 = CARTESIAN_POINT('',(1.309011654215,10.198823518559));
#720 = CARTESIAN_POINT('',(1.396547362555,10.193261335621));
#721 = CARTESIAN_POINT('',(1.48364199587,10.190477129634));
#722 = CARTESIAN_POINT('',(1.67523939723,10.190477129634));
#723 = CARTESIAN_POINT('',(1.779530027105,10.194475406022));
#724 = CARTESIAN_POINT('',(1.884591040118,10.202452664519));
#725 = CARTESIAN_POINT('',(1.991233766298,10.214205368715));
#726 = CARTESIAN_POINT('',(2.100253091943,10.229327329171));
#727 = CARTESIAN_POINT('',(2.212468979548,10.247096424831));
#728 = CARTESIAN_POINT('',(2.328798481313,10.266344250942));
#729 = CARTESIAN_POINT('',(2.554404329509,10.301660809496));
#730 = CARTESIAN_POINT('',(2.666186639566,10.318401656402));
#731 = CARTESIAN_POINT('',(2.782996228026,10.33390365131));
#732 = CARTESIAN_POINT('',(2.903083753154,10.346116401792));
#733 = CARTESIAN_POINT('',(3.025203670082,10.35316259766));
#734 = CARTESIAN_POINT('',(3.148283450545,10.354185705408));
#735 = CARTESIAN_POINT('',(3.271300303431,10.349486156531));
#736 = CARTESIAN_POINT('',(3.471462967218,10.334174107671));
#737 = CARTESIAN_POINT('',(3.550003158546,10.326201274938));
#738 = CARTESIAN_POINT('',(3.628539756092,10.316486545854));
#739 = CARTESIAN_POINT('',(3.707075643407,10.305356189263));
#740 = CARTESIAN_POINT('',(3.785614643462,10.293219948414));
#741 = CARTESIAN_POINT('',(3.86415852437,10.280543475496));
#742 = CARTESIAN_POINT('',(3.94270383873,10.267813435758));
#743 = CARTESIAN_POINT('',(4.107624516639,10.241945674091));
#744 = CARTESIAN_POINT('',(4.194027233273,10.228890234342));
#745 = CARTESIAN_POINT('',(4.280427112667,10.216949145624));
#746 = CARTESIAN_POINT('',(4.366819058651,10.206715295607));
#747 = CARTESIAN_POINT('',(4.453206588531,10.198685690499));
#748 = CARTESIAN_POINT('',(4.539596135031,10.193212985276));
#749 = CARTESIAN_POINT('',(4.625991574356,10.190477129634));
#750 = CARTESIAN_POINT('',(4.799548392514,10.190477129634));
#751 = CARTESIAN_POINT('',(4.886642993701,10.193261652521));
#752 = CARTESIAN_POINT('',(4.974176609312,10.198823933499));
#753 = CARTESIAN_POINT('',(5.062606930285,10.207062154847));
#754 = CARTESIAN_POINT('',(5.152396003562,10.217773826885));
#755 = CARTESIAN_POINT('',(5.244021851281,10.230622788023));
#756 = CARTESIAN_POINT('',(5.337998948683,10.245093626984));
#757 = CARTESIAN_POINT('',(5.528168199384,10.27521019654));
#758 = CARTESIAN_POINT('',(5.626300906287,10.291131956329));
#759 = CARTESIAN_POINT('',(5.728364977917,10.307345039764));
#760 = CARTESIAN_POINT('',(5.833736399307,10.322645932556));
#761 = CARTESIAN_POINT('',(5.942039294951,10.335654885334));
#762 = CARTESIAN_POINT('',(6.053067974926,10.345082821122));
#763 = CARTESIAN_POINT('',(6.166754043458,10.35));
#764 = CARTESIAN_POINT('',(6.28318530718,10.35));
#765 = ( GEOMETRIC_REPRESENTATION_CONTEXT(2) 
PARAMETRIC_REPRESENTATION_CONTEXT() REPRESENTATION_CONTEXT('2D SPACE',''
  ) );
#766 = ADVANCED_FACE('',(#767,#798),#292,.F.);
#767 = FACE_BOUND('',#768,.F.);
#768 = EDGE_LOOP('',(#769));
#769 = ORIENTED_EDGE('',*,*,#770,.T.);
#770 = EDGE_CURVE('',#771,#771,#773,.T.);
#771 = VERTEX_POINT('',#772);
#772 = CARTESIAN_POINT('',(17.4,-4.261770861033E-15,0.));
#773 = SURFACE_CURVE('',#774,(#779,#786),.PCURVE_S1.);
#774 = CIRCLE('',#775,17.4);
#775 = AXIS2_PLACEMENT_3D('',#776,#777,#778);
#776 = CARTESIAN_POINT('',(0.,0.,0.));
#777 = DIRECTION('',(0.,0.,1.));
#778 = DIRECTION('',(1.,0.,-0.));
#779 = PCURVE('',#292,#780);
#780 = DEFINITIONAL_REPRESENTATION('',(#781),#785);
#781 = CIRCLE('',#782,17.4);
#782 = AXIS2_PLACEMENT_2D('',#783,#784);
#783 = CARTESIAN_POINT('',(0.,0.));
#784 = DIRECTION('',(1.,0.));
#785 = ( GEOMETRIC_REPRESENTATION_CONTEXT(2) 
PARAMETRIC_REPRESENTATION_CONTEXT() REPRESENTATION_CONTEXT('2D SPACE',''
  ) );
#786 = PCURVE('',#787,#792);
#787 = CYLINDRICAL_SURFACE('',#788,17.4);
#788 = AXIS2_PLACEMENT_3D('',#789,#790,#791);
#789 = CARTESIAN_POINT('',(0.,0.,0.));
#790 = DIRECTION('',(0.,0.,1.));
#791 = DIRECTION('',(1.,0.,-0.));
#792 = DEFINITIONAL_REPRESENTATION('',(#793),#797);
#793 = LINE('',#794,#795);
#794 = CARTESIAN_POINT('',(0.,0.));
#795 = VECTOR('',#796,1.);
#796 = DIRECTION('',(1.,0.));
#797 = ( GEOMETRIC_REPRESENTATION_CONTEXT(2) 
PARAMETRIC_REPRESENTATION_CONTEXT() REPRESENTATION_CONTEXT('2D SPACE',''
  ) );
#798 = FACE_BOUND('',#799,.F.);
#799 = EDGE_LOOP('',(#800));
#800 = ORIENTED_EDGE('',*,*,#277,.F.);
#801 = ADVANCED_FACE('',(#802),#373,.F.);
#802 = FACE_BOUND('',#803,.F.);
#803 = EDGE_LOOP('',(#804,#805,#826,#848,#875,#876));
#804 = ORIENTED_EDGE('',*,*,#309,.F.);
#805 = ORIENTED_EDGE('',*,*,#806,.F.);
#806 = EDGE_CURVE('',#202,#310,#807,.T.);
#807 = SEAM_CURVE('',#808,(#812,#819),.PCURVE_S1.);
#808 = LINE('',#809,#810);
#809 = CARTESIAN_POINT('',(4.9,5.388445916248E-16,17.3));
#810 = VECTOR('',#811,1.);
#811 = DIRECTION('',(1.,0.,0.));
#812 = PCURVE('',#373,#813);
#813 = DEFINITIONAL_REPRESENTATION('',(#814),#818);
#814 = LINE('',#815,#816);
#815 = CARTESIAN_POINT('',(6.28318530718,-0.));
#816 = VECTOR('',#817,1.);
#817 = DIRECTION('',(0.,1.));
#818 = ( GEOMETRIC_REPRESENTATION_CONTEXT(2) 
PARAMETRIC_REPRESENTATION_CONTEXT() REPRESENTATION_CONTEXT('2D SPACE',''
  ) );
#819 = PCURVE('',#373,#820);
#820 = DEFINITIONAL_REPRESENTATION('',(#821),#825);
#821 = LINE('',#822,#823);
#822 = CARTESIAN_POINT('',(0.,-0.));
#823 = VECTOR('',#824,1.);
#824 = DIRECTION('',(0.,1.));
#825 = ( GEOMETRIC_REPRESENTATION_CONTEXT(2) 
PARAMETRIC_REPRESENTATION_CONTEXT() REPRESENTATION_CONTEXT('2D SPACE',''
  ) );
#826 = ORIENTED_EDGE('',*,*,#827,.T.);
#827 = EDGE_CURVE('',#202,#227,#828,.T.);
#828 = SURFACE_CURVE('',#829,(#834,#841),.PCURVE_S1.);
#829 = CIRCLE('',#830,2.2);
#830 = AXIS2_PLACEMENT_3D('',#831,#832,#833);
#831 = CARTESIAN_POINT('',(4.9,0.,15.1));
#832 = DIRECTION('',(1.,0.,0.));
#833 = DIRECTION('',(-0.,0.,1.));
#834 = PCURVE('',#373,#835);
#835 = DEFINITIONAL_REPRESENTATION('',(#836),#840);
#836 = LINE('',#837,#838);
#837 = CARTESIAN_POINT('',(0.,0.));
#838 = VECTOR('',#839,1.);
#839 = DIRECTION('',(1.,0.));
#840 = ( GEOMETRIC_REPRESENTATION_CONTEXT(2) 
PARAMETRIC_REPRESENTATION_CONTEXT() REPRESENTATION_CONTEXT('2D SPACE',''
  ) );
#841 = PCURVE('',#242,#842);
#842 = DEFINITIONAL_REPRESENTATION('',(#843),#847);
#843 = CIRCLE('',#844,2.2);
#844 = AXIS2_PLACEMENT_2D('',#845,#846);
#845 = CARTESIAN_POINT('',(0.,0.));
#846 = DIRECTION('',(1.,0.));
#847 = ( GEOMETRIC_REPRESENTATION_CONTEXT(2) 
PARAMETRIC_REPRESENTATION_CONTEXT() REPRESENTATION_CONTEXT('2D SPACE',''
  ) );
#848 = ORIENTED_EDGE('',*,*,#849,.T.);
#849 = EDGE_CURVE('',#227,#202,#850,.T.);
#850 = SURFACE_CURVE('',#851,(#856,#863),.PCURVE_S1.);
#851 = CIRCLE('',#852,2.2);
#852 = AXIS2_PLACEMENT_3D('',#853,#854,#855);
#853 = CARTESIAN_POINT('',(4.9,0.,15.1));
#854 = DIRECTION('',(1.,0.,0.));
#855 = DIRECTION('',(-0.,0.,1.));
#856 = PCURVE('',#373,#857);
#857 = DEFINITIONAL_REPRESENTATION('',(#858),#862);
#858 = LINE('',#859,#860);
#859 = CARTESIAN_POINT('',(0.,0.));
#860 = VECTOR('',#861,1.);
#861 = DIRECTION('',(1.,0.));
#862 = ( GEOMETRIC_REPRESENTATION_CONTEXT(2) 
PARAMETRIC_REPRESENTATION_CONTEXT() REPRESENTATION_CONTEXT('2D SPACE',''
  ) );
#863 = PCURVE('',#864,#869);
#864 = PLANE('',#865);
#865 = AXIS2_PLACEMENT_3D('',#866,#867,#868);
#866 = CARTESIAN_POINT('',(4.9,0.,15.1));
#867 = DIRECTION('',(1.,0.,0.));
#868 = DIRECTION('',(-0.,0.,1.));
#869 = DEFINITIONAL_REPRESENTATION('',(#870),#874);
#870 = CIRCLE('',#871,2.2);
#871 = AXIS2_PLACEMENT_2D('',#872,#873);
#872 = CARTESIAN_POINT('',(0.,0.));
#873 = DIRECTION('',(1.,0.));
#874 = ( GEOMETRIC_REPRESENTATION_CONTEXT(2) 
PARAMETRIC_REPRESENTATION_CONTEXT() REPRESENTATION_CONTEXT('2D SPACE',''
  ) );
#875 = ORIENTED_EDGE('',*,*,#806,.T.);
#876 = ORIENTED_EDGE('',*,*,#431,.F.);
#877 = ADVANCED_FACE('',(#878,#904),#559,.T.);
#878 = FACE_BOUND('',#879,.T.);
#879 = EDGE_LOOP('',(#880));
#880 = ORIENTED_EDGE('',*,*,#881,.T.);
#881 = EDGE_CURVE('',#882,#882,#884,.T.);
#882 = VERTEX_POINT('',#883);
#883 = CARTESIAN_POINT('',(17.4,-4.261770861033E-15,1.6));
#884 = SURFACE_CURVE('',#885,(#890,#897),.PCURVE_S1.);
#885 = CIRCLE('',#886,17.4);
#886 = AXIS2_PLACEMENT_3D('',#887,#888,#889);
#887 = CARTESIAN_POINT('',(0.,0.,1.6));
#888 = DIRECTION('',(0.,0.,1.));
#889 = DIRECTION('',(1.,0.,-0.));
#890 = PCURVE('',#559,#891);
#891 = DEFINITIONAL_REPRESENTATION('',(#892),#896);
#892 = CIRCLE('',#893,17.4);
#893 = AXIS2_PLACEMENT_2D('',#894,#895);
#894 = CARTESIAN_POINT('',(0.,0.));
#895 = DIRECTION('',(1.,0.));
#896 = ( GEOMETRIC_REPRESENTATION_CONTEXT(2) 
PARAMETRIC_REPRESENTATION_CONTEXT() REPRESENTATION_CONTEXT('2D SPACE',''
  ) );
#897 = PCURVE('',#787,#898);
#898 = DEFINITIONAL_REPRESENTATION('',(#899),#903);
#899 = LINE('',#900,#901);
#900 = CARTESIAN_POINT('',(0.,1.6));
#901 = VECTOR('',#902,1.);
#902 = DIRECTION('',(1.,0.));
#903 = ( GEOMETRIC_REPRESENTATION_CONTEXT(2) 
PARAMETRIC_REPRESENTATION_CONTEXT() REPRESENTATION_CONTEXT('2D SPACE',''
  ) );
#904 = FACE_BOUND('',#905,.T.);
#905 = EDGE_LOOP('',(#906));
#906 = ORIENTED_EDGE('',*,*,#544,.F.);
#907 = ADVANCED_FACE('',(#908),#700,.F.);
#908 = FACE_BOUND('',#909,.F.);
#909 = EDGE_LOOP('',(#910,#911,#934,#963,#990));
#910 = ORIENTED_EDGE('',*,*,#574,.F.);
#911 = ORIENTED_EDGE('',*,*,#912,.F.);
#912 = EDGE_CURVE('',#913,#575,#915,.T.);
#913 = VERTEX_POINT('',#914);
#914 = CARTESIAN_POINT('',(-5.388445916248E-16,4.9,17.3));
#915 = SEAM_CURVE('',#916,(#920,#927),.PCURVE_S1.);
#916 = LINE('',#917,#918);
#917 = CARTESIAN_POINT('',(-5.388445916248E-16,4.9,17.3));
#918 = VECTOR('',#919,1.);
#919 = DIRECTION('',(0.,1.,0.));
#920 = PCURVE('',#700,#921);
#921 = DEFINITIONAL_REPRESENTATION('',(#922),#926);
#922 = LINE('',#923,#924);
#923 = CARTESIAN_POINT('',(6.28318530718,-0.));
#924 = VECTOR('',#925,1.);
#925 = DIRECTION('',(0.,1.));
#926 = ( GEOMETRIC_REPRESENTATION_CONTEXT(2) 
PARAMETRIC_REPRESENTATION_CONTEXT() REPRESENTATION_CONTEXT('2D SPACE',''
  ) );
#927 = PCURVE('',#700,#928);
#928 = DEFINITIONAL_REPRESENTATION('',(#929),#933);
#929 = LINE('',#930,#931);
#930 = CARTESIAN_POINT('',(0.,-0.));
#931 = VECTOR('',#932,1.);
#932 = DIRECTION('',(0.,1.));
#933 = ( GEOMETRIC_REPRESENTATION_CONTEXT(2) 
PARAMETRIC_REPRESENTATION_CONTEXT() REPRESENTATION_CONTEXT('2D SPACE',''
  ) );
#934 = ORIENTED_EDGE('',*,*,#935,.T.);
#935 = EDGE_CURVE('',#913,#936,#938,.T.);
#936 = VERTEX_POINT('',#937);
#937 = CARTESIAN_POINT('',(2.694222958124E-16,4.9,12.9));
#938 = SURFACE_CURVE('',#939,(#944,#951),.PCURVE_S1.);
#939 = CIRCLE('',#940,2.2);
#940 = AXIS2_PLACEMENT_3D('',#941,#942,#943);
#941 = CARTESIAN_POINT('',(0.,4.9,15.1));
#942 = DIRECTION('',(0.,1.,0.));
#943 = DIRECTION('',(0.,-0.,1.));
#944 = PCURVE('',#700,#945);
#945 = DEFINITIONAL_REPRESENTATION('',(#946),#950);
#946 = LINE('',#947,#948);
#947 = CARTESIAN_POINT('',(0.,0.));
#948 = VECTOR('',#949,1.);
#949 = DIRECTION('',(1.,0.));
#950 = ( GEOMETRIC_REPRESENTATION_CONTEXT(2) 
PARAMETRIC_REPRESENTATION_CONTEXT() REPRESENTATION_CONTEXT('2D SPACE',''
  ) );
#951 = PCURVE('',#952,#957);
#952 = PLANE('',#953);
#953 = AXIS2_PLACEMENT_3D('',#954,#955,#956);
#954 = CARTESIAN_POINT('',(0.,4.9,15.1));
#955 = DIRECTION('',(0.,1.,0.));
#956 = DIRECTION('',(0.,-0.,1.));
#957 = DEFINITIONAL_REPRESENTATION('',(#958),#962);
#958 = CIRCLE('',#959,2.2);
#959 = AXIS2_PLACEMENT_2D('',#960,#961);
#960 = CARTESIAN_POINT('',(0.,0.));
#961 = DIRECTION('',(1.,0.));
#962 = ( GEOMETRIC_REPRESENTATION_CONTEXT(2) 
PARAMETRIC_REPRESENTATION_CONTEXT() REPRESENTATION_CONTEXT('2D SPACE',''
  ) );
#963 = ORIENTED_EDGE('',*,*,#964,.T.);
#964 = EDGE_CURVE('',#936,#913,#965,.T.);
#965 = SURFACE_CURVE('',#966,(#971,#978),.PCURVE_S1.);
#966 = CIRCLE('',#967,2.2);
#967 = AXIS2_PLACEMENT_3D('',#968,#969,#970);
#968 = CARTESIAN_POINT('',(0.,4.9,15.1));
#969 = DIRECTION('',(0.,1.,0.));
#970 = DIRECTION('',(0.,-0.,1.));
#971 = PCURVE('',#700,#972);
#972 = DEFINITIONAL_REPRESENTATION('',(#973),#977);
#973 = LINE('',#974,#975);
#974 = CARTESIAN_POINT('',(0.,0.));
#975 = VECTOR('',#976,1.);
#976 = DIRECTION('',(1.,0.));
#977 = ( GEOMETRIC_REPRESENTATION_CONTEXT(2) 
PARAMETRIC_REPRESENTATION_CONTEXT() REPRESENTATION_CONTEXT('2D SPACE',''
  ) );
#978 = PCURVE('',#979,#984);
#979 = PLANE('',#980);
#980 = AXIS2_PLACEMENT_3D('',#981,#982,#983);
#981 = CARTESIAN_POINT('',(0.,4.9,15.1));
#982 = DIRECTION('',(0.,1.,0.));
#983 = DIRECTION('',(0.,-0.,1.));
#984 = DEFINITIONAL_REPRESENTATION('',(#985),#989);
#985 = CIRCLE('',#986,2.2);
#986 = AXIS2_PLACEMENT_2D('',#987,#988);
#987 = CARTESIAN_POINT('',(0.,0.));
#988 = DIRECTION('',(1.,0.));
#989 = ( GEOMETRIC_REPRESENTATION_CONTEXT(2) 
PARAMETRIC_REPRESENTATION_CONTEXT() REPRESENTATION_CONTEXT('2D SPACE',''
  ) );
#990 = ORIENTED_EDGE('',*,*,#912,.T.);
#991 = ADVANCED_FACE('',(#992),#787,.T.);
#992 = FACE_BOUND('',#993,.T.);
#993 = EDGE_LOOP('',(#994,#995,#1016,#1017));
#994 = ORIENTED_EDGE('',*,*,#881,.F.);
#995 = ORIENTED_EDGE('',*,*,#996,.F.);
#996 = EDGE_CURVE('',#771,#882,#997,.T.);
#997 = SEAM_CURVE('',#998,(#1002,#1009),.PCURVE_S1.);
#998 = LINE('',#999,#1000);
#999 = CARTESIAN_POINT('',(17.4,-4.261770861033E-15,0.));
#1000 = VECTOR('',#1001,1.);
#1001 = DIRECTION('',(0.,0.,1.));
#1002 = PCURVE('',#787,#1003);
#1003 = DEFINITIONAL_REPRESENTATION('',(#1004),#1008);
#1004 = LINE('',#1005,#1006);
#1005 = CARTESIAN_POINT('',(6.28318530718,-0.));
#1006 = VECTOR('',#1007,1.);
#1007 = DIRECTION('',(0.,1.));
#1008 = ( GEOMETRIC_REPRESENTATION_CONTEXT(2) 
PARAMETRIC_REPRESENTATION_CONTEXT() REPRESENTATION_CONTEXT('2D SPACE',''
  ) );
#1009 = PCURVE('',#787,#1010);
#1010 = DEFINITIONAL_REPRESENTATION('',(#1011),#1015);
#1011 = LINE('',#1012,#1013);
#1012 = CARTESIAN_POINT('',(0.,-0.));
#1013 = VECTOR('',#1014,1.);
#1014 = DIRECTION('',(0.,1.));
#1015 = ( GEOMETRIC_REPRESENTATION_CONTEXT(2) 
PARAMETRIC_REPRESENTATION_CONTEXT() REPRESENTATION_CONTEXT('2D SPACE',''
  ) );
#1016 = ORIENTED_EDGE('',*,*,#770,.T.);
#1017 = ORIENTED_EDGE('',*,*,#996,.T.);
#1018 = ADVANCED_FACE('',(#1019),#864,.T.);
#1019 = FACE_BOUND('',#1020,.T.);
#1020 = EDGE_LOOP('',(#1021,#1022));
#1021 = ORIENTED_EDGE('',*,*,#849,.T.);
#1022 = ORIENTED_EDGE('',*,*,#226,.F.);
#1023 = ADVANCED_FACE('',(#1024),#242,.T.);
#1024 = FACE_BOUND('',#1025,.T.);
#1025 = EDGE_LOOP('',(#1026,#1027));
#1026 = ORIENTED_EDGE('',*,*,#226,.T.);
#1027 = ORIENTED_EDGE('',*,*,#827,.T.);
#1028 = ADVANCED_FACE('',(#1029),#979,.T.);
#1029 = FACE_BOUND('',#1030,.T.);
#1030 = EDGE_LOOP('',(#1031,#1032));
#1031 = ORIENTED_EDGE('',*,*,#964,.T.);
#1032 = ORIENTED_EDGE('',*,*,#1033,.F.);
#1033 = EDGE_CURVE('',#936,#913,#1034,.T.);
#1034 = SURFACE_CURVE('',#1035,(#1039,#1045),.PCURVE_S1.);
#1035 = LINE('',#1036,#1037);
#1036 = CARTESIAN_POINT('',(0.,4.9,-1.));
#1037 = VECTOR('',#1038,1.);
#1038 = DIRECTION('',(0.,0.,1.));
#1039 = PCURVE('',#979,#1040);
#1040 = DEFINITIONAL_REPRESENTATION('',(#1041),#1044);
#1041 = B_SPLINE_CURVE_WITH_KNOTS('',1,(#1042,#1043),.UNSPECIFIED.,.F.,
  .F.,(2,2),(13.46,18.74),.PIECEWISE_BEZIER_KNOTS.);
#1042 = CARTESIAN_POINT('',(-2.64,0.));
#1043 = CARTESIAN_POINT('',(2.64,0.));
#1044 = ( GEOMETRIC_REPRESENTATION_CONTEXT(2) 
PARAMETRIC_REPRESENTATION_CONTEXT() REPRESENTATION_CONTEXT('2D SPACE',''
  ) );
#1045 = PCURVE('',#952,#1046);
#1046 = DEFINITIONAL_REPRESENTATION('',(#1047),#1050);
#1047 = B_SPLINE_CURVE_WITH_KNOTS('',1,(#1048,#1049),.UNSPECIFIED.,.F.,
  .F.,(2,2),(13.46,18.74),.PIECEWISE_BEZIER_KNOTS.);
#1048 = CARTESIAN_POINT('',(-2.64,0.));
#1049 = CARTESIAN_POINT('',(2.64,0.));
#1050 = ( GEOMETRIC_REPRESENTATION_CONTEXT(2) 
PARAMETRIC_REPRESENTATION_CONTEXT() REPRESENTATION_CONTEXT('2D SPACE',''
  ) );
#1051 = ADVANCED_FACE('',(#1052),#952,.T.);
#1052 = FACE_BOUND('',#1053,.T.);
#1053 = EDGE_LOOP('',(#1054,#1055));
#1054 = ORIENTED_EDGE('',*,*,#1033,.T.);
#1055 = ORIENTED_EDGE('',*,*,#935,.T.);
#1056 = ( GEOMETRIC_REPRESENTATION_CONTEXT(3) 
GLOBAL_UNCERTAINTY_ASSIGNED_CONTEXT((#1060)) 
GLOBAL_UNIT_ASSIGNED_CONTEXT((#1057,#1058,#1059)) REPRESENTATION_CONTEXT
('Context #1','3D Context with UNIT and UNCERTAINTY') );
#1057 = ( LENGTH_UNIT() NAMED_UNIT(*) SI_UNIT(.MILLI.,.METRE.) );
#1058 = ( NAMED_UNIT(*) PLANE_ANGLE_UNIT() SI_UNIT($,.RADIAN.) );
#1059 = ( NAMED_UNIT(*) SI_UNIT($,.STERADIAN.) SOLID_ANGLE_UNIT() );
#1060 = UNCERTAINTY_MEASURE_WITH_UNIT(LENGTH_MEASURE(1.E-07),#1057,
  'distance_accuracy_value','confusion accuracy');
#1061 = CONTEXT_DEPENDENT_SHAPE_REPRESENTATION(#1062,#1064);
#1062 = ( REPRESENTATION_RELATIONSHIP('','',#36,#10) 
REPRESENTATION_RELATIONSHIP_WITH_TRANSFORMATION(#1063) 
SHAPE_REPRESENTATION_RELATIONSHIP() );
#1063 = ITEM_DEFINED_TRANSFORMATION('','',#11,#15);
#1064 = PRODUCT_DEFINITION_SHAPE('Placement','Placement of an item',
  #1065);
#1065 = NEXT_ASSEMBLY_USAGE_OCCURRENCE('1','','',#5,#31,$);
#1066 = PRODUCT_RELATED_PRODUCT_CATEGORY('part',$,(#33));
#1067 = SHAPE_DEFINITION_REPRESENTATION(#1068,#1074);
#1068 = PRODUCT_DEFINITION_SHAPE('','',#1069);
#1069 = PRODUCT_DEFINITION('design','',#1070,#1073);
#1070 = PRODUCT_DEFINITION_FORMATION('','',#1071);
#1071 = PRODUCT('Open CASCADE STEP translator 7.9 5.2',
  'Open CASCADE STEP translator 7.9 5.2','',(#1072));
#1072 = PRODUCT_CONTEXT('',#2,'mechanical');
#1073 = PRODUCT_DEFINITION_CONTEXT('part definition',#2,'design');
#1074 = SHAPE_REPRESENTATION('',(#11,#1075,#1079,#1083),#1087);
#1075 = AXIS2_PLACEMENT_3D('',#1076,#1077,#1078);
#1076 = CARTESIAN_POINT('',(0.,0.,0.));
#1077 = DIRECTION('',(0.,0.,1.));
#1078 = DIRECTION('',(1.,0.,-0.));
#1079 = AXIS2_PLACEMENT_3D('',#1080,#1081,#1082);
#1080 = CARTESIAN_POINT('',(0.,0.,0.));
#1081 = DIRECTION('',(0.,0.,1.));
#1082 = DIRECTION('',(1.,0.,-0.));
#1083 = AXIS2_PLACEMENT_3D('',#1084,#1085,#1086);
#1084 = CARTESIAN_POINT('',(0.,0.,0.));
#1085 = DIRECTION('',(0.,0.,1.));
#1086 = DIRECTION('',(1.,0.,-0.));
#1087 = ( GEOMETRIC_REPRESENTATION_CONTEXT(3) 
GLOBAL_UNCERTAINTY_ASSIGNED_CONTEXT((#1091)) 
GLOBAL_UNIT_ASSIGNED_CONTEXT((#1088,#1089,#1090)) REPRESENTATION_CONTEXT
('Context #1','3D Context with UNIT and UNCERTAINTY') );
#1088 = ( LENGTH_UNIT() NAMED_UNIT(*) SI_UNIT(.MILLI.,.METRE.) );
#1089 = ( NAMED_UNIT(*) PLANE_ANGLE_UNIT() SI_UNIT($,.RADIAN.) );
#1090 = ( NAMED_UNIT(*) SI_UNIT($,.STERADIAN.) SOLID_ANGLE_UNIT() );
#1091 = UNCERTAINTY_MEASURE_WITH_UNIT(LENGTH_MEASURE(1.E-07),#1088,
  'distance_accuracy_value','confusion accuracy');
#1092 = CONTEXT_DEPENDENT_SHAPE_REPRESENTATION(#1093,#1095);
#1093 = ( REPRESENTATION_RELATIONSHIP('','',#1074,#10) 
REPRESENTATION_RELATIONSHIP_WITH_TRANSFORMATION(#1094) 
SHAPE_REPRESENTATION_RELATIONSHIP() );
#1094 = ITEM_DEFINED_TRANSFORMATION('','',#11,#19);
#1095 = PRODUCT_DEFINITION_SHAPE('Placement','Placement of an item',
  #1096);
#1096 = NEXT_ASSEMBLY_USAGE_OCCURRENCE('5','','',#5,#1069,$);
#1097 = PRODUCT_RELATED_PRODUCT_CATEGORY('part',$,(#1071));
#1098 = SHAPE_DEFINITION_REPRESENTATION(#1099,#1105);
#1099 = PRODUCT_DEFINITION_SHAPE('','',#1100);
#1100 = PRODUCT_DEFINITION('design','',#1101,#1104);
#1101 = PRODUCT_DEFINITION_FORMATION('','',#1102);
#1102 = PRODUCT('Open CASCADE STEP translator 7.9 5.2.1',
  'Open CASCADE STEP translator 7.9 5.2.1','',(#1103));
#1103 = PRODUCT_CONTEXT('',#2,'mechanical');
#1104 = PRODUCT_DEFINITION_CONTEXT('part definition',#2,'design');
#1105 = ADVANCED_BREP_SHAPE_REPRESENTATION('',(#11,#1106),#1204);
#1106 = MANIFOLD_SOLID_BREP('',#1107);
#1107 = CLOSED_SHELL('',(#1108,#1196,#1200));
#1108 = ADVANCED_FACE('',(#1109),#1122,.T.);
#1109 = FACE_BOUND('',#1110,.T.);
#1110 = EDGE_LOOP('',(#1111,#1145,#1168,#1195));
#1111 = ORIENTED_EDGE('',*,*,#1112,.F.);
#1112 = EDGE_CURVE('',#1113,#1113,#1115,.T.);
#1113 = VERTEX_POINT('',#1114);
#1114 = CARTESIAN_POINT('',(18.,2.449293598295E-16,16.1));
#1115 = SURFACE_CURVE('',#1116,(#1121,#1133),.PCURVE_S1.);
#1116 = CIRCLE('',#1117,1.);
#1117 = AXIS2_PLACEMENT_3D('',#1118,#1119,#1120);
#1118 = CARTESIAN_POINT('',(18.,0.,15.1));
#1119 = DIRECTION('',(1.,0.,0.));
#1120 = DIRECTION('',(-0.,0.,1.));
#1121 = PCURVE('',#1122,#1127);
#1122 = CYLINDRICAL_SURFACE('',#1123,1.);
#1123 = AXIS2_PLACEMENT_3D('',#1124,#1125,#1126);
#1124 = CARTESIAN_POINT('',(-18.,0.,15.1));
#1125 = DIRECTION('',(1.,0.,0.));
#1126 = DIRECTION('',(-0.,0.,1.));
#1127 = DEFINITIONAL_REPRESENTATION('',(#1128),#1132);
#1128 = LINE('',#1129,#1130);
#1129 = CARTESIAN_POINT('',(0.,36.));
#1130 = VECTOR('',#1131,1.);
#1131 = DIRECTION('',(1.,0.));
#1132 = ( GEOMETRIC_REPRESENTATION_CONTEXT(2) 
PARAMETRIC_REPRESENTATION_CONTEXT() REPRESENTATION_CONTEXT('2D SPACE',''
  ) );
#1133 = PCURVE('',#1134,#1139);
#1134 = PLANE('',#1135);
#1135 = AXIS2_PLACEMENT_3D('',#1136,#1137,#1138);
#1136 = CARTESIAN_POINT('',(18.,0.,15.1));
#1137 = DIRECTION('',(1.,0.,0.));
#1138 = DIRECTION('',(-0.,0.,1.));
#1139 = DEFINITIONAL_REPRESENTATION('',(#1140),#1144);
#1140 = CIRCLE('',#1141,1.);
#1141 = AXIS2_PLACEMENT_2D('',#1142,#1143);
#1142 = CARTESIAN_POINT('',(0.,0.));
#1143 = DIRECTION('',(1.,0.));
#1144 = ( GEOMETRIC_REPRESENTATION_CONTEXT(2) 
PARAMETRIC_REPRESENTATION_CONTEXT() REPRESENTATION_CONTEXT('2D SPACE',''
  ) );
#1145 = ORIENTED_EDGE('',*,*,#1146,.F.);
#1146 = EDGE_CURVE('',#1147,#1113,#1149,.T.);
#1147 = VERTEX_POINT('',#1148);
#1148 = CARTESIAN_POINT('',(-18.,2.449293598295E-16,16.1));
#1149 = SEAM_CURVE('',#1150,(#1154,#1161),.PCURVE_S1.);
#1150 = LINE('',#1151,#1152);
#1151 = CARTESIAN_POINT('',(-18.,2.449293598295E-16,16.1));
#1152 = VECTOR('',#1153,1.);
#1153 = DIRECTION('',(1.,0.,0.));
#1154 = PCURVE('',#1122,#1155);
#1155 = DEFINITIONAL_REPRESENTATION('',(#1156),#1160);
#1156 = LINE('',#1157,#1158);
#1157 = CARTESIAN_POINT('',(6.28318530718,-0.));
#1158 = VECTOR('',#1159,1.);
#1159 = DIRECTION('',(0.,1.));
#1160 = ( GEOMETRIC_REPRESENTATION_CONTEXT(2) 
PARAMETRIC_REPRESENTATION_CONTEXT() REPRESENTATION_CONTEXT('2D SPACE',''
  ) );
#1161 = PCURVE('',#1122,#1162);
#1162 = DEFINITIONAL_REPRESENTATION('',(#1163),#1167);
#1163 = LINE('',#1164,#1165);
#1164 = CARTESIAN_POINT('',(0.,-0.));
#1165 = VECTOR('',#1166,1.);
#1166 = DIRECTION('',(0.,1.));
#1167 = ( GEOMETRIC_REPRESENTATION_CONTEXT(2) 
PARAMETRIC_REPRESENTATION_CONTEXT() REPRESENTATION_CONTEXT('2D SPACE',''
  ) );
#1168 = ORIENTED_EDGE('',*,*,#1169,.T.);
#1169 = EDGE_CURVE('',#1147,#1147,#1170,.T.);
#1170 = SURFACE_CURVE('',#1171,(#1176,#1183),.PCURVE_S1.);
#1171 = CIRCLE('',#1172,1.);
#1172 = AXIS2_PLACEMENT_3D('',#1173,#1174,#1175);
#1173 = CARTESIAN_POINT('',(-18.,0.,15.1));
#1174 = DIRECTION('',(1.,0.,0.));
#1175 = DIRECTION('',(-0.,0.,1.));
#1176 = PCURVE('',#1122,#1177);
#1177 = DEFINITIONAL_REPRESENTATION('',(#1178),#1182);
#1178 = LINE('',#1179,#1180);
#1179 = CARTESIAN_POINT('',(0.,0.));
#1180 = VECTOR('',#1181,1.);
#1181 = DIRECTION('',(1.,0.));
#1182 = ( GEOMETRIC_REPRESENTATION_CONTEXT(2) 
PARAMETRIC_REPRESENTATION_CONTEXT() REPRESENTATION_CONTEXT('2D SPACE',''
  ) );
#1183 = PCURVE('',#1184,#1189);
#1184 = PLANE('',#1185);
#1185 = AXIS2_PLACEMENT_3D('',#1186,#1187,#1188);
#1186 = CARTESIAN_POINT('',(-18.,0.,15.1));
#1187 = DIRECTION('',(1.,0.,0.));
#1188 = DIRECTION('',(-0.,0.,1.));
#1189 = DEFINITIONAL_REPRESENTATION('',(#1190),#1194);
#1190 = CIRCLE('',#1191,1.);
#1191 = AXIS2_PLACEMENT_2D('',#1192,#1193);
#1192 = CARTESIAN_POINT('',(0.,0.));
#1193 = DIRECTION('',(1.,0.));
#1194 = ( GEOMETRIC_REPRESENTATION_CONTEXT(2) 
PARAMETRIC_REPRESENTATION_CONTEXT() REPRESENTATION_CONTEXT('2D SPACE',''
  ) );
#1195 = ORIENTED_EDGE('',*,*,#1146,.T.);
#1196 = ADVANCED_FACE('',(#1197),#1134,.T.);
#1197 = FACE_BOUND('',#1198,.T.);
#1198 = EDGE_LOOP('',(#1199));
#1199 = ORIENTED_EDGE('',*,*,#1112,.T.);
#1200 = ADVANCED_FACE('',(#1201),#1184,.F.);
#1201 = FACE_BOUND('',#1202,.T.);
#1202 = EDGE_LOOP('',(#1203));
#1203 = ORIENTED_EDGE('',*,*,#1169,.F.);
#1204 = ( GEOMETRIC_REPRESENTATION_CONTEXT(3) 
GLOBAL_UNCERTAINTY_ASSIGNED_CONTEXT((#1208)) 
GLOBAL_UNIT_ASSIGNED_CONTEXT((#1205,#1206,#1207)) REPRESENTATION_CONTEXT
('Context #1','3D Context with UNIT and UNCERTAINTY') );
#1205 = ( LENGTH_UNIT() NAMED_UNIT(*) SI_UNIT(.MILLI.,.METRE.) );
#1206 = ( NAMED_UNIT(*) PLANE_ANGLE_UNIT() SI_UNIT($,.RADIAN.) );
#1207 = ( NAMED_UNIT(*) SI_UNIT($,.STERADIAN.) SOLID_ANGLE_UNIT() );
#1208 = UNCERTAINTY_MEASURE_WITH_UNIT(LENGTH_MEASURE(1.E-07),#1205,
  'distance_accuracy_value','confusion accuracy');
#1209 = CONTEXT_DEPENDENT_SHAPE_REPRESENTATION(#1210,#1212);
#1210 = ( REPRESENTATION_RELATIONSHIP('','',#1105,#1074) 
REPRESENTATION_RELATIONSHIP_WITH_TRANSFORMATION(#1211) 
SHAPE_REPRESENTATION_RELATIONSHIP() );
#1211 = ITEM_DEFINED_TRANSFORMATION('','',#11,#1075);
#1212 = PRODUCT_DEFINITION_SHAPE('Placement','Placement of an item',
  #1213);
#1213 = NEXT_ASSEMBLY_USAGE_OCCURRENCE('2','','',#1069,#1100,$);
#1214 = PRODUCT_RELATED_PRODUCT_CATEGORY('part',$,(#1102));
#1215 = SHAPE_DEFINITION_REPRESENTATION(#1216,#1222);
#1216 = PRODUCT_DEFINITION_SHAPE('','',#1217);
#1217 = PRODUCT_DEFINITION('design','',#1218,#1221);
#1218 = PRODUCT_DEFINITION_FORMATION('','',#1219);
#1219 = PRODUCT('Open CASCADE STEP translator 7.9 5.2.2',
  'Open CASCADE STEP translator 7.9 5.2.2','',(#1220));
#1220 = PRODUCT_CONTEXT('',#2,'mechanical');
#1221 = PRODUCT_DEFINITION_CONTEXT('part definition',#2,'design');
#1222 = ADVANCED_BREP_SHAPE_REPRESENTATION('',(#11,#1223),#1321);
#1223 = MANIFOLD_SOLID_BREP('',#1224);
#1224 = CLOSED_SHELL('',(#1225,#1313,#1317));
#1225 = ADVANCED_FACE('',(#1226),#1239,.T.);
#1226 = FACE_BOUND('',#1227,.T.);
#1227 = EDGE_LOOP('',(#1228,#1262,#1285,#1312));
#1228 = ORIENTED_EDGE('',*,*,#1229,.F.);
#1229 = EDGE_CURVE('',#1230,#1230,#1232,.T.);
#1230 = VERTEX_POINT('',#1231);
#1231 = CARTESIAN_POINT('',(-2.449293598295E-16,18.,16.1));
#1232 = SURFACE_CURVE('',#1233,(#1238,#1250),.PCURVE_S1.);
#1233 = CIRCLE('',#1234,1.);
#1234 = AXIS2_PLACEMENT_3D('',#1235,#1236,#1237);
#1235 = CARTESIAN_POINT('',(0.,18.,15.1));
#1236 = DIRECTION('',(0.,1.,0.));
#1237 = DIRECTION('',(0.,-0.,1.));
#1238 = PCURVE('',#1239,#1244);
#1239 = CYLINDRICAL_SURFACE('',#1240,1.);
#1240 = AXIS2_PLACEMENT_3D('',#1241,#1242,#1243);
#1241 = CARTESIAN_POINT('',(0.,-18.,15.1));
#1242 = DIRECTION('',(0.,1.,0.));
#1243 = DIRECTION('',(0.,-0.,1.));
#1244 = DEFINITIONAL_REPRESENTATION('',(#1245),#1249);
#1245 = LINE('',#1246,#1247);
#1246 = CARTESIAN_POINT('',(0.,36.));
#1247 = VECTOR('',#1248,1.);
#1248 = DIRECTION('',(1.,0.));
#1249 = ( GEOMETRIC_REPRESENTATION_CONTEXT(2) 
PARAMETRIC_REPRESENTATION_CONTEXT() REPRESENTATION_CONTEXT('2D SPACE',''
  ) );
#1250 = PCURVE('',#1251,#1256);
#1251 = PLANE('',#1252);
#1252 = AXIS2_PLACEMENT_3D('',#1253,#1254,#1255);
#1253 = CARTESIAN_POINT('',(0.,18.,15.1));
#1254 = DIRECTION('',(0.,1.,0.));
#1255 = DIRECTION('',(0.,-0.,1.));
#1256 = DEFINITIONAL_REPRESENTATION('',(#1257),#1261);
#1257 = CIRCLE('',#1258,1.);
#1258 = AXIS2_PLACEMENT_2D('',#1259,#1260);
#1259 = CARTESIAN_POINT('',(0.,0.));
#1260 = DIRECTION('',(1.,0.));
#1261 = ( GEOMETRIC_REPRESENTATION_CONTEXT(2) 
PARAMETRIC_REPRESENTATION_CONTEXT() REPRESENTATION_CONTEXT('2D SPACE',''
  ) );
#1262 = ORIENTED_EDGE('',*,*,#1263,.F.);
#1263 = EDGE_CURVE('',#1264,#1230,#1266,.T.);
#1264 = VERTEX_POINT('',#1265);
#1265 = CARTESIAN_POINT('',(-2.449293598295E-16,-18.,16.1));
#1266 = SEAM_CURVE('',#1267,(#1271,#1278),.PCURVE_S1.);
#1267 = LINE('',#1268,#1269);
#1268 = CARTESIAN_POINT('',(-2.449293598295E-16,-18.,16.1));
#1269 = VECTOR('',#1270,1.);
#1270 = DIRECTION('',(0.,1.,0.));
#1271 = PCURVE('',#1239,#1272);
#1272 = DEFINITIONAL_REPRESENTATION('',(#1273),#1277);
#1273 = LINE('',#1274,#1275);
#1274 = CARTESIAN_POINT('',(6.28318530718,-0.));
#1275 = VECTOR('',#1276,1.);
#1276 = DIRECTION('',(0.,1.));
#1277 = ( GEOMETRIC_REPRESENTATION_CONTEXT(2) 
PARAMETRIC_REPRESENTATION_CONTEXT() REPRESENTATION_CONTEXT('2D SPACE',''
  ) );
#1278 = PCURVE('',#1239,#1279);
#1279 = DEFINITIONAL_REPRESENTATION('',(#1280),#1284);
#1280 = LINE('',#1281,#1282);
#1281 = CARTESIAN_POINT('',(0.,-0.));
#1282 = VECTOR('',#1283,1.);
#1283 = DIRECTION('',(0.,1.));
#1284 = ( GEOMETRIC_REPRESENTATION_CONTEXT(2) 
PARAMETRIC_REPRESENTATION_CONTEXT() REPRESENTATION_CONTEXT('2D SPACE',''
  ) );
#1285 = ORIENTED_EDGE('',*,*,#1286,.T.);
#1286 = EDGE_CURVE('',#1264,#1264,#1287,.T.);
#1287 = SURFACE_CURVE('',#1288,(#1293,#1300),.PCURVE_S1.);
#1288 = CIRCLE('',#1289,1.);
#1289 = AXIS2_PLACEMENT_3D('',#1290,#1291,#1292);
#1290 = CARTESIAN_POINT('',(0.,-18.,15.1));
#1291 = DIRECTION('',(0.,1.,0.));
#1292 = DIRECTION('',(0.,-0.,1.));
#1293 = PCURVE('',#1239,#1294);
#1294 = DEFINITIONAL_REPRESENTATION('',(#1295),#1299);
#1295 = LINE('',#1296,#1297);
#1296 = CARTESIAN_POINT('',(0.,0.));
#1297 = VECTOR('',#1298,1.);
#1298 = DIRECTION('',(1.,0.));
#1299 = ( GEOMETRIC_REPRESENTATION_CONTEXT(2) 
PARAMETRIC_REPRESENTATION_CONTEXT() REPRESENTATION_CONTEXT('2D SPACE',''
  ) );
#1300 = PCURVE('',#1301,#1306);
#1301 = PLANE('',#1302);
#1302 = AXIS2_PLACEMENT_3D('',#1303,#1304,#1305);
#1303 = CARTESIAN_POINT('',(0.,-18.,15.1));
#1304 = DIRECTION('',(0.,1.,0.));
#1305 = DIRECTION('',(0.,-0.,1.));
#1306 = DEFINITIONAL_REPRESENTATION('',(#1307),#1311);
#1307 = CIRCLE('',#1308,1.);
#1308 = AXIS2_PLACEMENT_2D('',#1309,#1310);
#1309 = CARTESIAN_POINT('',(0.,0.));
#1310 = DIRECTION('',(1.,0.));
#1311 = ( GEOMETRIC_REPRESENTATION_CONTEXT(2) 
PARAMETRIC_REPRESENTATION_CONTEXT() REPRESENTATION_CONTEXT('2D SPACE',''
  ) );
#1312 = ORIENTED_EDGE('',*,*,#1263,.T.);
#1313 = ADVANCED_FACE('',(#1314),#1251,.T.);
#1314 = FACE_BOUND('',#1315,.T.);
#1315 = EDGE_LOOP('',(#1316));
#1316 = ORIENTED_EDGE('',*,*,#1229,.T.);
#1317 = ADVANCED_FACE('',(#1318),#1301,.F.);
#1318 = FACE_BOUND('',#1319,.T.);
#1319 = EDGE_LOOP('',(#1320));
#1320 = ORIENTED_EDGE('',*,*,#1286,.F.);
#1321 = ( GEOMETRIC_REPRESENTATION_CONTEXT(3) 
GLOBAL_UNCERTAINTY_ASSIGNED_CONTEXT((#1325)) 
GLOBAL_UNIT_ASSIGNED_CONTEXT((#1322,#1323,#1324)) REPRESENTATION_CONTEXT
('Context #1','3D Context with UNIT and UNCERTAINTY') );
#1322 = ( LENGTH_UNIT() NAMED_UNIT(*) SI_UNIT(.MILLI.,.METRE.) );
#1323 = ( NAMED_UNIT(*) PLANE_ANGLE_UNIT() SI_UNIT($,.RADIAN.) );
#1324 = ( NAMED_UNIT(*) SI_UNIT($,.STERADIAN.) SOLID_ANGLE_UNIT() );
#1325 = UNCERTAINTY_MEASURE_WITH_UNIT(LENGTH_MEASURE(1.E-07),#1322,
  'distance_accuracy_value','confusion accuracy');
#1326 = CONTEXT_DEPENDENT_SHAPE_REPRESENTATION(#1327,#1329);
#1327 = ( REPRESENTATION_RELATIONSHIP('','',#1222,#1074) 
REPRESENTATION_RELATIONSHIP_WITH_TRANSFORMATION(#1328) 
SHAPE_REPRESENTATION_RELATIONSHIP() );
#1328 = ITEM_DEFINED_TRANSFORMATION('','',#11,#1079);
#1329 = PRODUCT_DEFINITION_SHAPE('Placement','Placement of an item',
  #1330);
#1330 = NEXT_ASSEMBLY_USAGE_OCCURRENCE('3','','',#1069,#1217,$);
#1331 = PRODUCT_RELATED_PRODUCT_CATEGORY('part',$,(#1219));
#1332 = SHAPE_DEFINITION_REPRESENTATION(#1333,#1339);
#1333 = PRODUCT_DEFINITION_SHAPE('','',#1334);
#1334 = PRODUCT_DEFINITION('design','',#1335,#1338);
#1335 = PRODUCT_DEFINITION_FORMATION('','',#1336);
#1336 = PRODUCT('Open CASCADE STEP translator 7.9 5.2.3',
  'Open CASCADE STEP translator 7.9 5.2.3','',(#1337));
#1337 = PRODUCT_CONTEXT('',#2,'mechanical');
#1338 = PRODUCT_DEFINITION_CONTEXT('part definition',#2,'design');
#1339 = ADVANCED_BREP_SHAPE_REPRESENTATION('',(#11,#1340),#1438);
#1340 = MANIFOLD_SOLID_BREP('',#1341);
#1341 = CLOSED_SHELL('',(#1342,#1430,#1434));
#1342 = ADVANCED_FACE('',(#1343),#1356,.T.);
#1343 = FACE_BOUND('',#1344,.T.);
#1344 = EDGE_LOOP('',(#1345,#1379,#1402,#1429));
#1345 = ORIENTED_EDGE('',*,*,#1346,.F.);
#1346 = EDGE_CURVE('',#1347,#1347,#1349,.T.);
#1347 = VERTEX_POINT('',#1348);
#1348 = CARTESIAN_POINT('',(5.,-1.224646799147E-15,27.));
#1349 = SURFACE_CURVE('',#1350,(#1355,#1367),.PCURVE_S1.);
#1350 = CIRCLE('',#1351,5.);
#1351 = AXIS2_PLACEMENT_3D('',#1352,#1353,#1354);
#1352 = CARTESIAN_POINT('',(0.,0.,27.));
#1353 = DIRECTION('',(0.,0.,1.));
#1354 = DIRECTION('',(1.,0.,-0.));
#1355 = PCURVE('',#1356,#1361);
#1356 = CYLINDRICAL_SURFACE('',#1357,5.);
#1357 = AXIS2_PLACEMENT_3D('',#1358,#1359,#1360);
#1358 = CARTESIAN_POINT('',(0.,0.,-4.));
#1359 = DIRECTION('',(0.,0.,1.));
#1360 = DIRECTION('',(1.,0.,-0.));
#1361 = DEFINITIONAL_REPRESENTATION('',(#1362),#1366);
#1362 = LINE('',#1363,#1364);
#1363 = CARTESIAN_POINT('',(0.,31.));
#1364 = VECTOR('',#1365,1.);
#1365 = DIRECTION('',(1.,0.));
#1366 = ( GEOMETRIC_REPRESENTATION_CONTEXT(2) 
PARAMETRIC_REPRESENTATION_CONTEXT() REPRESENTATION_CONTEXT('2D SPACE',''
  ) );
#1367 = PCURVE('',#1368,#1373);
#1368 = PLANE('',#1369);
#1369 = AXIS2_PLACEMENT_3D('',#1370,#1371,#1372);
#1370 = CARTESIAN_POINT('',(0.,0.,27.));
#1371 = DIRECTION('',(0.,0.,1.));
#1372 = DIRECTION('',(1.,0.,-0.));
#1373 = DEFINITIONAL_REPRESENTATION('',(#1374),#1378);
#1374 = CIRCLE('',#1375,5.);
#1375 = AXIS2_PLACEMENT_2D('',#1376,#1377);
#1376 = CARTESIAN_POINT('',(0.,0.));
#1377 = DIRECTION('',(1.,0.));
#1378 = ( GEOMETRIC_REPRESENTATION_CONTEXT(2) 
PARAMETRIC_REPRESENTATION_CONTEXT() REPRESENTATION_CONTEXT('2D SPACE',''
  ) );
#1379 = ORIENTED_EDGE('',*,*,#1380,.F.);
#1380 = EDGE_CURVE('',#1381,#1347,#1383,.T.);
#1381 = VERTEX_POINT('',#1382);
#1382 = CARTESIAN_POINT('',(5.,-1.224646799147E-15,-4.));
#1383 = SEAM_CURVE('',#1384,(#1388,#1395),.PCURVE_S1.);
#1384 = LINE('',#1385,#1386);
#1385 = CARTESIAN_POINT('',(5.,-1.224646799147E-15,-4.));
#1386 = VECTOR('',#1387,1.);
#1387 = DIRECTION('',(0.,0.,1.));
#1388 = PCURVE('',#1356,#1389);
#1389 = DEFINITIONAL_REPRESENTATION('',(#1390),#1394);
#1390 = LINE('',#1391,#1392);
#1391 = CARTESIAN_POINT('',(6.28318530718,-0.));
#1392 = VECTOR('',#1393,1.);
#1393 = DIRECTION('',(0.,1.));
#1394 = ( GEOMETRIC_REPRESENTATION_CONTEXT(2) 
PARAMETRIC_REPRESENTATION_CONTEXT() REPRESENTATION_CONTEXT('2D SPACE',''
  ) );
#1395 = PCURVE('',#1356,#1396);
#1396 = DEFINITIONAL_REPRESENTATION('',(#1397),#1401);
#1397 = LINE('',#1398,#1399);
#1398 = CARTESIAN_POINT('',(0.,-0.));
#1399 = VECTOR('',#1400,1.);
#1400 = DIRECTION('',(0.,1.));
#1401 = ( GEOMETRIC_REPRESENTATION_CONTEXT(2) 
PARAMETRIC_REPRESENTATION_CONTEXT() REPRESENTATION_CONTEXT('2D SPACE',''
  ) );
#1402 = ORIENTED_EDGE('',*,*,#1403,.T.);
#1403 = EDGE_CURVE('',#1381,#1381,#1404,.T.);
#1404 = SURFACE_CURVE('',#1405,(#1410,#1417),.PCURVE_S1.);
#1405 = CIRCLE('',#1406,5.);
#1406 = AXIS2_PLACEMENT_3D('',#1407,#1408,#1409);
#1407 = CARTESIAN_POINT('',(0.,0.,-4.));
#1408 = DIRECTION('',(0.,0.,1.));
#1409 = DIRECTION('',(1.,0.,-0.));
#1410 = PCURVE('',#1356,#1411);
#1411 = DEFINITIONAL_REPRESENTATION('',(#1412),#1416);
#1412 = LINE('',#1413,#1414);
#1413 = CARTESIAN_POINT('',(0.,0.));
#1414 = VECTOR('',#1415,1.);
#1415 = DIRECTION('',(1.,0.));
#1416 = ( GEOMETRIC_REPRESENTATION_CONTEXT(2) 
PARAMETRIC_REPRESENTATION_CONTEXT() REPRESENTATION_CONTEXT('2D SPACE',''
  ) );
#1417 = PCURVE('',#1418,#1423);
#1418 = PLANE('',#1419);
#1419 = AXIS2_PLACEMENT_3D('',#1420,#1421,#1422);
#1420 = CARTESIAN_POINT('',(0.,0.,-4.));
#1421 = DIRECTION('',(0.,0.,1.));
#1422 = DIRECTION('',(1.,0.,-0.));
#1423 = DEFINITIONAL_REPRESENTATION('',(#1424),#1428);
#1424 = CIRCLE('',#1425,5.);
#1425 = AXIS2_PLACEMENT_2D('',#1426,#1427);
#1426 = CARTESIAN_POINT('',(0.,0.));
#1427 = DIRECTION('',(1.,0.));
#1428 = ( GEOMETRIC_REPRESENTATION_CONTEXT(2) 
PARAMETRIC_REPRESENTATION_CONTEXT() REPRESENTATION_CONTEXT('2D SPACE',''
  ) );
#1429 = ORIENTED_EDGE('',*,*,#1380,.T.);
#1430 = ADVANCED_FACE('',(#1431),#1368,.T.);
#1431 = FACE_BOUND('',#1432,.T.);
#1432 = EDGE_LOOP('',(#1433));
#1433 = ORIENTED_EDGE('',*,*,#1346,.T.);
#1434 = ADVANCED_FACE('',(#1435),#1418,.F.);
#1435 = FACE_BOUND('',#1436,.T.);
#1436 = EDGE_LOOP('',(#1437));
#1437 = ORIENTED_EDGE('',*,*,#1403,.F.);
#1438 = ( GEOMETRIC_REPRESENTATION_CONTEXT(3) 
GLOBAL_UNCERTAINTY_ASSIGNED_CONTEXT((#1442)) 
GLOBAL_UNIT_ASSIGNED_CONTEXT((#1439,#1440,#1441)) REPRESENTATION_CONTEXT
('Context #1','3D Context with UNIT and UNCERTAINTY') );
#1439 = ( LENGTH_UNIT() NAMED_UNIT(*) SI_UNIT(.MILLI.,.METRE.) );
#1440 = ( NAMED_UNIT(*) PLANE_ANGLE_UNIT() SI_UNIT($,.RADIAN.) );
#1441 = ( NAMED_UNIT(*) SI_UNIT($,.STERADIAN.) SOLID_ANGLE_UNIT() );
#1442 = UNCERTAINTY_MEASURE_WITH_UNIT(LENGTH_MEASURE(1.E-07),#1439,
  'distance_accuracy_value','confusion accuracy');
#1443 = CONTEXT_DEPENDENT_SHAPE_REPRESENTATION(#1444,#1446);
#1444 = ( REPRESENTATION_RELATIONSHIP('','',#1339,#1074) 
REPRESENTATION_RELATIONSHIP_WITH_TRANSFORMATION(#1445) 
SHAPE_REPRESENTATION_RELATIONSHIP() );
#1445 = ITEM_DEFINED_TRANSFORMATION('','',#11,#1083);
#1446 = PRODUCT_DEFINITION_SHAPE('Placement','Placement of an item',
  #1447);
#1447 = NEXT_ASSEMBLY_USAGE_OCCURRENCE('4','','',#1069,#1334,$);
#1448 = PRODUCT_RELATED_PRODUCT_CATEGORY('part',$,(#1336));
ENDSEC;
END-ISO-10303-21;
