0
SECTION
2
HEADER
9
$INSUNITS
70
4
0
ENDSEC
0
SECTION
2
ENTITIES
0
LINE
8
OUTLINE
10
-18
20
-40
30
0
11
18
21
-40
31
0
0
LINE
8
OUTLINE
10
-18
20
40
30
0
11
18
21
40
31
0
0
LINE
8
OUTLINE
10
-21
20
-37
30
0
11
-21
21
37
31
0
0
LINE
8
OUTLINE
10
21
20
-37
30
0
11
21
21
37
31
0
0
ARC
8
OUTLINE
10
-18
20
-37
30
0
40
3
50
180
51
270
0
ARC
8
OUTLINE
10
18
20
-37
30
0
40
3
50
270
51
360
0
ARC
8
OUTLINE
10
18
20
37
30
0
40
3
50
0
51
90
0
ARC
8
OUTLINE
10
-18
20
37
30
0
40
3
50
90
51
180
0
LINE
8
CENTERLINE
10
-30
20
0
30
0
11
30
21
0
31
0
0
LINE
8
CENTERLINE
10
0
20
-48
30
0
11
0
21
48
31
0
0
CIRCLE
8
M3
10
-12.0
20
-15.0
30
0
40
1.7
0
LINE
8
CENTERMARK
10
-14.5
20
-15.0
30
0
11
-9.5
21
-15.0
31
0
0
LINE
8
CENTERMARK
10
-12.0
20
-17.5
30
0
11
-12.0
21
-12.5
31
0
0
CIRCLE
8
M3
10
12.0
20
-15.0
30
0
40
1.7
0
LINE
8
CENTERMARK
10
9.5
20
-15.0
30
0
11
14.5
21
-15.0
31
0
0
LINE
8
CENTERMARK
10
12.0
20
-17.5
30
0
11
12.0
21
-12.5
31
0
0
CIRCLE
8
M3
10
-12.0
20
15.0
30
0
40
1.7
0
LINE
8
CENTERMARK
10
-14.5
20
15.0
30
0
11
-9.5
21
15.0
31
0
0
LINE
8
CENTERMARK
10
-12.0
20
12.5
30
0
11
-12.0
21
17.5
31
0
0
CIRCLE
8
M3
10
12.0
20
15.0
30
0
40
1.7
0
LINE
8
CENTERMARK
10
9.5
20
15.0
30
0
11
14.5
21
15.0
31
0
0
LINE
8
CENTERMARK
10
12.0
20
12.5
30
0
11
12.0
21
17.5
31
0
0
CIRCLE
8
M5
10
-10.0
20
-30.0
30
0
40
2.85
0
LINE
8
CENTERMARK
10
-12.5
20
-30.0
30
0
11
-7.5
21
-30.0
31
0
0
LINE
8
CENTERMARK
10
-10.0
20
-32.5
30
0
11
-10.0
21
-27.5
31
0
0
CIRCLE
8
M5
10
10.0
20
-30.0
30
0
40
2.85
0
LINE
8
CENTERMARK
10
7.5
20
-30.0
30
0
11
12.5
21
-30.0
31
0
0
LINE
8
CENTERMARK
10
10.0
20
-32.5
30
0
11
10.0
21
-27.5
31
0
0
CIRCLE
8
M5
10
-10.0
20
30.0
30
0
40
2.85
0
LINE
8
CENTERMARK
10
-12.5
20
30.0
30
0
11
-7.5
21
30.0
31
0
0
LINE
8
CENTERMARK
10
-10.0
20
27.5
30
0
11
-10.0
21
32.5
31
0
0
CIRCLE
8
M5
10
10.0
20
30.0
30
0
40
2.85
0
LINE
8
CENTERMARK
10
7.5
20
30.0
30
0
11
12.5
21
30.0
31
0
0
LINE
8
CENTERMARK
10
10.0
20
27.5
30
0
11
10.0
21
32.5
31
0
0
TEXT
8
ANNOTATION
10
-55
20
50
30
0
40
2.5
1
PS_CR_V0933 METAL DRILL TEMPLATE
0
TEXT
8
ANNOTATION
10
-55
20
46
30
0
40
2.5
1
UNITS mm | SCALE 1:1 | PRINT 100%
0
TEXT
8
ANNOTATION
10
-55
20
42
30
0
40
2.5
1
FIT TO PAGE OFF | AUTOMATIC SCALING OFF
0
TEXT
8
ANNOTATION
10
26
20
17
30
0
40
2.5
1
M3 DIA 3.4 x4
0
TEXT
8
ANNOTATION
10
26
20
30
30
0
40
2.5
1
M5 DIA 5.7 x4
0
TEXT
8
ANNOTATION
10
26
20
12
30
0
40
2.5
1
M3 PITCH X 24
0
TEXT
8
ANNOTATION
10
26
20
8
30
0
40
2.5
1
M3 PITCH Y 30
0
TEXT
8
ANNOTATION
10
26
20
4
30
0
40
2.5
1
M5 PITCH X 20
0
TEXT
8
ANNOTATION
10
26
20
0
30
0
40
2.5
1
M5 PITCH Y 60
0
TEXT
8
ANNOTATION
10
26
20
-6
30
0
40
2.5
1
OUTLINE 42x80 R3
0
TEXT
8
ANNOTATION
10
-25
20
-50
30
0
40
2.5
1
50 mm CHECK BAR
0
TEXT
8
ANNOTATION
10
-55
20
-58
30
0
40
2.5
1
DRILLING_REFERENCE_ONLY
0
LINE
8
SCALE_BAR
10
-25
20
-54
30
0
11
25
21
-54
31
0
0
LINE
8
SCALE_BAR
10
-25
20
-56
30
0
11
-25
21
-52
31
0
0
LINE
8
SCALE_BAR
10
25
20
-56
30
0
11
25
21
-52
31
0
0
ENDSEC
0
EOF
