<svg xmlns="http://www.w3.org/2000/svg" width="1000" height="620" viewBox="0 0 1000 620">
  <rect width="100%" height="100%" fill="#ffffff"/>
  <style>
    text { font-family: Arial, sans-serif; fill: #17202a; }
    .title { font-size: 26px; font-weight: bold; }
    .label { font-size: 17px; }
    .small { font-size: 14px; }
    .body { fill: #b7d8ee; stroke: #24506b; stroke-width: 2; }
    .guard { fill: #f4a261; stroke: #9c3f00; stroke-width: 2; }
    .connector { fill: #a8dadc; stroke: #1d6b70; stroke-width: 2; }
    .dim { stroke: #8b1e3f; stroke-width: 2; fill: none; }
    .hold { fill: #fff3cd; stroke: #8a6d1d; stroke-width: 2; }
  </style>
  <text x="30" y="40" class="title">Failed 4 mm root and reinforced 6 mm minimum root</text>
  
  <g transform="translate(90,110)">
    <rect x="0" y="210" width="300" height="95" class="body"/>
    <rect x="210" y="60" width="55" height="150" fill="#f8c4a8" stroke="#9c3f00" stroke-width="2"/>
    <line x1="205" y1="205" x2="270" y2="270" stroke="#c1121f" stroke-width="8"/>
    <line x1="270" y1="205" x2="205" y2="270" stroke="#c1121f" stroke-width="8"/>
    <text x="30" y="345" class="label">OLD root 4.0 mm</text>
    <text x="30" y="375" class="small">PHYSICAL_BREAKAGE_RECORDED</text>
  </g>
  <g transform="translate(570,110)">
    <rect x="0" y="210" width="300" height="95" class="body"/>
    <path d="M180 60 L250 60 L250 210 L160 210 Q160 180 190 150 L190 90 Z" class="guard"/>
    <line x1="160" y1="245" x2="250" y2="245" class="dim"/>
    <text x="170" y="272" class="small">6.0 mm minimum land</text>
    <text x="30" y="345" class="label">NEW R3-class broad load path</text>
    <text x="30" y="375" class="small">No thin-root final variant</text>
  </g>
  <text x="30" y="602" class="small">v0.9.6.17 | mesh authority | NOT FOR POWERED TEST</text>
</svg>
