<svg xmlns="http://www.w3.org/2000/svg" width="1200" height="760" viewBox="0 0 1200 760"><style>text{font-family:Arial,sans-serif;fill:#17212b}.t{font-size:31px;font-weight:700}.s{font-size:18px;fill:#455}.n{font-size:18px}.b{fill:#dbeafe;stroke:#245ca6;stroke-width:3}.g{fill:#dcfce7;stroke:#087f5b;stroke-width:3}.o{fill:#ffedd5;stroke:#c2410c;stroke-width:3}.d{fill:none;stroke:#7c3aed;stroke-width:3;stroke-dasharray:10 8}.l{stroke:#334155;stroke-width:3}</style><text x="50" y="55" class="t">Candidate C full 12T sprocket</text><text x="50" y="90" class="s">P20653 12T pattern; Candidate C engagement H4.5 / tip W6.5 / axial22</text><g transform="translate(390,420)"><circle r="205" class="b"/><circle r="150" class="g"/><rect x="-13" y="-250" width="26" height="48" rx="7" class="o" transform="rotate(15)"/><rect x="-13" y="-250" width="26" height="48" rx="7" class="o" transform="rotate(45)"/><rect x="-13" y="-250" width="26" height="48" rx="7" class="o" transform="rotate(75)"/><rect x="-13" y="-250" width="26" height="48" rx="7" class="o" transform="rotate(105)"/><rect x="-13" y="-250" width="26" height="48" rx="7" class="o" transform="rotate(135)"/><rect x="-13" y="-250" width="26" height="48" rx="7" class="o" transform="rotate(165)"/><rect x="-13" y="-250" width="26" height="48" rx="7" class="o" transform="rotate(195)"/><rect x="-13" y="-250" width="26" height="48" rx="7" class="o" transform="rotate(225)"/><rect x="-13" y="-250" width="26" height="48" rx="7" class="o" transform="rotate(255)"/><rect x="-13" y="-250" width="26" height="48" rx="7" class="o" transform="rotate(285)"/><rect x="-13" y="-250" width="26" height="48" rx="7" class="o" transform="rotate(315)"/><rect x="-13" y="-250" width="26" height="48" rx="7" class="o" transform="rotate(345)"/><circle r="45" fill="white" stroke="#334155" stroke-width="4"/></g><text x="690" y="190" class="n">12 teeth · phase 15° · spacing 30°</text><text x="690" y="235" class="n">pitch chord 20.6533333333 mm</text><text x="690" y="280" class="n">pitch diameter 79.798352262 mm</text><text x="690" y="325" class="n">same center axis / H2.5-A1 core</text><text x="690" y="370" class="n">engagement width 22 mm</text><text x="690" y="415" class="n">body/support width 44 mm retained</text><text x="690" y="485" class="n">PRINT READY · physical full-loop HOLD</text></svg>
