solid P25_SLIDE_IN_POSITIONING_V002
  facet normal -1.11022302463e-16 0 -1
    outer loop
      vertex 7.900000000 9.600000100 0.000000100
      vertex 7.900000000 11.700000100 0.000000100
      vertex 9.900000000 11.700000100 0.000000100
    endloop
  endfacet
  facet normal -1.11022302463e-16 0 -1
    outer loop
      vertex 4.000000000 9.600000100 0.000000100
      vertex 0.000000000 14.000000100 0.000000100
      vertex 4.000000000 14.000000100 0.000000100
    endloop
  endfacet
  facet normal -1.11022302463e-16 0 -1
    outer loop
      vertex 9.900000000 2.300000100 0.000000100
      vertex 7.900000000 9.600000100 0.000000100
      vertex 9.900000000 11.700000100 0.000000100
    endloop
  endfacet
  facet normal -1.11022302463e-16 0 -1
    outer loop
      vertex 9.900000000 2.300000100 0.000000100
      vertex 7.900000000 4.400000100 0.000000100
      vertex 7.900000000 9.600000100 0.000000100
    endloop
  endfacet
  facet normal -1.11022302463e-16 0 -1
    outer loop
      vertex 7.900000000 2.300000100 0.000000100
      vertex 7.900000000 4.400000100 0.000000100
      vertex 9.900000000 2.300000100 0.000000100
    endloop
  endfacet
  facet normal -1.11022301784e-16 0 -1
    outer loop
      vertex 4.000000000 4.400000100 0.000000100
      vertex 4.000000000 9.600000100 0.000000100
      vertex 7.900000000 9.600000100 0.000000100
    endloop
  endfacet
  facet normal -1.11022302463e-16 0 -1
    outer loop
      vertex 4.000000000 4.400000100 0.000000100
      vertex 0.000000000 14.000000100 0.000000100
      vertex 4.000000000 9.600000100 0.000000100
    endloop
  endfacet
  facet normal -1.11022301784e-16 0 -1
    outer loop
      vertex 4.000000000 4.400000100 0.000000100
      vertex 7.900000000 9.600000100 0.000000100
      vertex 7.900000000 4.400000100 0.000000100
    endloop
  endfacet
  facet normal -1.11022302463e-16 0 -1
    outer loop
      vertex 0.000000000 0.000000100 0.000000100
      vertex 4.000000000 4.400000100 0.000000100
      vertex 4.000000000 0.000000100 0.000000100
    endloop
  endfacet
  facet normal -1.11022302463e-16 0 -1
    outer loop
      vertex 0.000000000 0.000000100 0.000000100
      vertex 0.000000000 14.000000100 0.000000100
      vertex 4.000000000 4.400000100 0.000000100
    endloop
  endfacet
  facet normal 0 -1 0
    outer loop
      vertex 4.000000000 0.000000100 20.000000100
      vertex 0.000000000 0.000000100 0.000000100
      vertex 4.000000000 0.000000100 0.000000100
    endloop
  endfacet
  facet normal 0 -1 -0
    outer loop
      vertex 0.000000000 0.000000100 20.000000100
      vertex 0.000000000 0.000000100 0.000000100
      vertex 4.000000000 0.000000100 20.000000100
    endloop
  endfacet
  facet normal 1 0 0
    outer loop
      vertex 4.000000000 4.100000100 0.400000100
      vertex 4.000000000 0.000000100 0.000000100
      vertex 4.000000000 4.400000100 0.000000100
    endloop
  endfacet
  facet normal 1 8.66515531415e-18 -8.881784197e-17
    outer loop
      vertex 4.000000000 0.000000100 20.000000100
      vertex 4.000000000 0.000000100 0.000000100
      vertex 4.000000000 4.100000100 0.400000100
    endloop
  endfacet
  facet normal 1 0 -9.06304509898e-17
    outer loop
      vertex 4.000000000 4.100000100 20.000000100
      vertex 4.000000000 0.000000100 20.000000100
      vertex 4.000000000 4.100000100 0.400000100
    endloop
  endfacet
  facet normal -6.40513283438e-17 -0.8 -0.6
    outer loop
      vertex 7.900000000 4.100000100 0.400000100
      vertex 4.000000000 4.400000100 0.000000100
      vertex 7.900000000 4.400000100 0.000000100
    endloop
  endfacet
  facet normal -4.27008855625e-17 -0.8 -0.6
    outer loop
      vertex 7.900000000 4.100000100 0.400000100
      vertex 4.000000000 4.100000100 0.400000100
      vertex 4.000000000 4.400000100 0.000000100
    endloop
  endfacet
  facet normal -1 0 -0
    outer loop
      vertex 7.900000000 4.100000100 0.400000100
      vertex 7.900000000 4.400000100 0.000000100
      vertex 7.900000000 2.300000100 0.000000100
    endloop
  endfacet
  facet normal -1 0 0
    outer loop
      vertex 7.900000000 4.100000100 0.400000100
      vertex 7.900000000 2.300000100 0.000000100
      vertex 7.900000000 2.000000100 0.400000100
    endloop
  endfacet
  facet normal -1 0 9.06304509898e-17
    outer loop
      vertex 7.900000000 4.100000100 20.000000100
      vertex 7.900000000 2.000000100 0.400000100
      vertex 7.900000000 2.000000100 20.000000100
    endloop
  endfacet
  facet normal -1 0 9.06304509898e-17
    outer loop
      vertex 7.900000000 4.100000100 20.000000100
      vertex 7.900000000 4.100000100 0.400000100
      vertex 7.900000000 2.000000100 0.400000100
    endloop
  endfacet
  facet normal -6.93889390391e-17 -0.8 -0.6
    outer loop
      vertex 9.900000000 2.000000100 0.400000100
      vertex 7.900000000 2.300000100 0.000000100
      vertex 9.900000000 2.300000100 0.000000100
    endloop
  endfacet
  facet normal -6.66133814775e-17 -0.8 -0.6
    outer loop
      vertex 9.900000000 2.000000100 0.400000100
      vertex 7.900000000 2.000000100 0.400000100
      vertex 7.900000000 2.300000100 0.000000100
    endloop
  endfacet
  facet normal 1 0 -4.4408920985e-15
    outer loop
      vertex 9.900000000 12.000000100 0.400000100
      vertex 9.900000000 2.300000100 0.000000100
      vertex 9.900000000 11.700000100 0.000000100
    endloop
  endfacet
  facet normal 1 0 -4.4408920985e-15
    outer loop
      vertex 9.900000000 12.000000100 0.400000100
      vertex 9.900000000 2.000000100 0.400000100
      vertex 9.900000000 2.300000100 0.000000100
    endloop
  endfacet
  facet normal 1 0 0
    outer loop
      vertex 9.900000000 12.000000100 20.000000100
      vertex 9.900000000 2.000000100 20.000000100
      vertex 9.900000000 2.000000100 0.400000100
    endloop
  endfacet
  facet normal 1 0 0
    outer loop
      vertex 9.900000000 12.000000100 20.000000100
      vertex 9.900000000 2.000000100 0.400000100
      vertex 9.900000000 12.000000100 0.400000100
    endloop
  endfacet
  facet normal -6.93889390391e-17 0.8 -0.6
    outer loop
      vertex 7.900000000 12.000000100 0.400000100
      vertex 9.900000000 11.700000100 0.000000100
      vertex 7.900000000 11.700000100 0.000000100
    endloop
  endfacet
  facet normal -6.66133814775e-17 0.8 -0.6
    outer loop
      vertex 7.900000000 12.000000100 0.400000100
      vertex 9.900000000 12.000000100 0.400000100
      vertex 9.900000000 11.700000100 0.000000100
    endloop
  endfacet
  facet normal -1 0 0
    outer loop
      vertex 7.900000000 11.700000100 0.000000100
      vertex 7.900000000 9.600000100 0.000000100
      vertex 7.900000000 9.900000100 0.400000100
    endloop
  endfacet
  facet normal -1 -0 0
    outer loop
      vertex 7.900000000 12.000000100 0.400000100
      vertex 7.900000000 11.700000100 0.000000100
      vertex 7.900000000 9.900000100 0.400000100
    endloop
  endfacet
  facet normal -1 0 9.06304509898e-17
    outer loop
      vertex 7.900000000 12.000000100 20.000000100
      vertex 7.900000000 9.900000100 0.400000100
      vertex 7.900000000 9.900000100 20.000000100
    endloop
  endfacet
  facet normal -1 0 9.06304509898e-17
    outer loop
      vertex 7.900000000 12.000000100 20.000000100
      vertex 7.900000000 12.000000100 0.400000100
      vertex 7.900000000 9.900000100 0.400000100
    endloop
  endfacet
  facet normal -6.40513283438e-17 0.8 -0.6
    outer loop
      vertex 4.000000000 9.900000100 0.400000100
      vertex 7.900000000 9.600000100 0.000000100
      vertex 4.000000000 9.600000100 0.000000100
    endloop
  endfacet
  facet normal -4.27008855625e-17 0.8 -0.6
    outer loop
      vertex 4.000000000 9.900000100 0.400000100
      vertex 7.900000000 9.900000100 0.400000100
      vertex 7.900000000 9.600000100 0.000000100
    endloop
  endfacet
  facet normal 1 0 0
    outer loop
      vertex 4.000000000 14.000000100 0.000000100
      vertex 4.000000000 9.900000100 0.400000100
      vertex 4.000000000 9.600000100 0.000000100
    endloop
  endfacet
  facet normal 1 0 -9.06304509898e-17
    outer loop
      vertex 4.000000000 14.000000100 20.000000100
      vertex 4.000000000 9.900000100 20.000000100
      vertex 4.000000000 9.900000100 0.400000100
    endloop
  endfacet
  facet normal 1 -8.66515531415e-18 -8.881784197e-17
    outer loop
      vertex 4.000000000 14.000000100 20.000000100
      vertex 4.000000000 9.900000100 0.400000100
      vertex 4.000000000 14.000000100 0.000000100
    endloop
  endfacet
  facet normal 0 1 0
    outer loop
      vertex 4.000000000 14.000000100 20.000000100
      vertex 4.000000000 14.000000100 0.000000100
      vertex 0.000000000 14.000000100 0.000000100
    endloop
  endfacet
  facet normal -0 1 0
    outer loop
      vertex 0.000000000 14.000000100 20.000000100
      vertex 4.000000000 14.000000100 20.000000100
      vertex 0.000000000 14.000000100 0.000000100
    endloop
  endfacet
  facet normal -1 0 1.11022302463e-16
    outer loop
      vertex 0.000000000 14.000000100 20.000000100
      vertex 0.000000000 14.000000100 0.000000100
      vertex 0.000000000 0.000000100 0.000000100
    endloop
  endfacet
  facet normal -1 0 1.11022302463e-16
    outer loop
      vertex 0.000000000 14.000000100 20.000000100
      vertex 0.000000000 0.000000100 0.000000100
      vertex 0.000000000 0.000000100 20.000000100
    endloop
  endfacet
  facet normal 0 0 1
    outer loop
      vertex 7.900000000 9.900000100 20.000000100
      vertex 9.900000000 12.000000100 20.000000100
      vertex 7.900000000 12.000000100 20.000000100
    endloop
  endfacet
  facet normal 0 -0 1
    outer loop
      vertex 4.000000000 9.900000100 20.000000100
      vertex 4.000000000 14.000000100 20.000000100
      vertex 0.000000000 14.000000100 20.000000100
    endloop
  endfacet
  facet normal 0 -0 1
    outer loop
      vertex 9.900000000 2.000000100 20.000000100
      vertex 9.900000000 12.000000100 20.000000100
      vertex 7.900000000 9.900000100 20.000000100
    endloop
  endfacet
  facet normal 0 0 1
    outer loop
      vertex 9.900000000 2.000000100 20.000000100
      vertex 7.900000000 9.900000100 20.000000100
      vertex 7.900000000 4.100000100 20.000000100
    endloop
  endfacet
  facet normal 0 0 1
    outer loop
      vertex 7.900000000 2.000000100 20.000000100
      vertex 9.900000000 2.000000100 20.000000100
      vertex 7.900000000 4.100000100 20.000000100
    endloop
  endfacet
  facet normal 0 0 1
    outer loop
      vertex 4.000000000 4.100000100 20.000000100
      vertex 7.900000000 9.900000100 20.000000100
      vertex 4.000000000 9.900000100 20.000000100
    endloop
  endfacet
  facet normal 0 0 1
    outer loop
      vertex 4.000000000 4.100000100 20.000000100
      vertex 7.900000000 4.100000100 20.000000100
      vertex 7.900000000 9.900000100 20.000000100
    endloop
  endfacet
  facet normal 0 0 1
    outer loop
      vertex 0.000000000 0.000000100 20.000000100
      vertex 4.000000000 0.000000100 20.000000100
      vertex 4.000000000 4.100000100 20.000000100
    endloop
  endfacet
  facet normal 0 0 1
    outer loop
      vertex 0.000000000 0.000000100 20.000000100
      vertex 4.000000000 4.100000100 20.000000100
      vertex 4.000000000 9.900000100 20.000000100
    endloop
  endfacet
  facet normal 0 0 1
    outer loop
      vertex 0.000000000 0.000000100 20.000000100
      vertex 4.000000000 9.900000100 20.000000100
      vertex 0.000000000 14.000000100 20.000000100
    endloop
  endfacet
  facet normal 0 -1 0
    outer loop
      vertex 4.000000000 4.100000100 20.000000100
      vertex 7.900000000 4.100000100 0.400000100
      vertex 7.900000000 4.100000100 20.000000100
    endloop
  endfacet
  facet normal 0 -1 -0
    outer loop
      vertex 4.000000000 4.100000100 20.000000100
      vertex 4.000000000 4.100000100 0.400000100
      vertex 7.900000000 4.100000100 0.400000100
    endloop
  endfacet
  facet normal 0 -1 -0
    outer loop
      vertex 9.900000000 2.000000100 20.000000100
      vertex 7.900000000 2.000000100 0.400000100
      vertex 9.900000000 2.000000100 0.400000100
    endloop
  endfacet
  facet normal 0 -1 -0
    outer loop
      vertex 7.900000000 2.000000100 20.000000100
      vertex 7.900000000 2.000000100 0.400000100
      vertex 9.900000000 2.000000100 20.000000100
    endloop
  endfacet
  facet normal 0 1 0
    outer loop
      vertex 9.900000000 12.000000100 20.000000100
      vertex 9.900000000 12.000000100 0.400000100
      vertex 7.900000000 12.000000100 0.400000100
    endloop
  endfacet
  facet normal -0 1 0
    outer loop
      vertex 7.900000000 12.000000100 20.000000100
      vertex 9.900000000 12.000000100 20.000000100
      vertex 7.900000000 12.000000100 0.400000100
    endloop
  endfacet
  facet normal -0 1 0
    outer loop
      vertex 4.000000000 9.900000100 20.000000100
      vertex 7.900000000 9.900000100 20.000000100
      vertex 7.900000000 9.900000100 0.400000100
    endloop
  endfacet
  facet normal 0 1 0
    outer loop
      vertex 4.000000000 9.900000100 20.000000100
      vertex 7.900000000 9.900000100 0.400000100
      vertex 4.000000000 9.900000100 0.400000100
    endloop
  endfacet
  facet normal 1 0 0
    outer loop
      vertex 4.000000000 4.775000100 8.275000100
      vertex 4.000000000 4.500000100 8.000000100
      vertex 4.000000000 4.500000100 7.725000100
    endloop
  endfacet
  facet normal 1 0 0
    outer loop
      vertex 4.000000000 4.775000100 8.275000100
      vertex 4.000000000 4.225000100 8.000000100
      vertex 4.000000000 4.500000100 8.000000100
    endloop
  endfacet
  facet normal 1 0 0
    outer loop
      vertex 4.000000000 6.725000100 8.275000100
      vertex 4.000000000 4.775000100 8.275000100
      vertex 4.000000000 4.500000100 7.725000100
    endloop
  endfacet
  facet normal 1 1.50384755154e-15 -2.22044604925e-16
    outer loop
      vertex 4.000000000 4.775000100 11.725000100
      vertex 4.000000000 4.225000100 12.000000100
      vertex 4.000000000 4.225000100 8.000000100
    endloop
  endfacet
  facet normal 1 0 0
    outer loop
      vertex 4.000000000 4.775000100 11.725000100
      vertex 4.000000000 4.225000100 8.000000100
      vertex 4.000000000 4.775000100 8.275000100
    endloop
  endfacet
  facet normal 1 0 -3.229739708e-15
    outer loop
      vertex 4.000000000 4.500000100 12.000000100
      vertex 4.000000000 4.225000100 12.000000100
      vertex 4.000000000 4.775000100 11.725000100
    endloop
  endfacet
  facet normal 1 3.229739708e-15 0
    outer loop
      vertex 4.000000000 4.500000100 12.275000100
      vertex 4.000000000 4.500000100 12.000000100
      vertex 4.000000000 4.775000100 11.725000100
    endloop
  endfacet
  facet normal 1 0 0
    outer loop
      vertex 4.000000000 9.500000100 7.725000100
      vertex 4.000000000 6.725000100 8.275000100
      vertex 4.000000000 4.500000100 7.725000100
    endloop
  endfacet
  facet normal 1 0 0
    outer loop
      vertex 4.000000000 9.500000100 7.725000100
      vertex 4.000000000 7.275000100 8.275000100
      vertex 4.000000000 6.725000100 8.275000100
    endloop
  endfacet
  facet normal 1 0 0
    outer loop
      vertex 4.000000000 9.225000100 8.275000100
      vertex 4.000000000 7.275000100 8.275000100
      vertex 4.000000000 9.500000100 7.725000100
    endloop
  endfacet
  facet normal 1 0 0
    outer loop
      vertex 4.000000000 9.500000100 8.000000100
      vertex 4.000000000 9.225000100 8.275000100
      vertex 4.000000000 9.500000100 7.725000100
    endloop
  endfacet
  facet normal 1 0 0
    outer loop
      vertex 4.000000000 9.775000100 8.000000100
      vertex 4.000000000 9.225000100 8.275000100
      vertex 4.000000000 9.500000100 8.000000100
    endloop
  endfacet
  facet normal 1 0 -1.614869854e-15
    outer loop
      vertex 4.000000000 6.725000100 11.725000100
      vertex 4.000000000 4.500000100 12.275000100
      vertex 4.000000000 4.775000100 11.725000100
    endloop
  endfacet
  facet normal 1 0 0
    outer loop
      vertex 4.000000000 7.275000100 11.725000100
      vertex 4.000000000 6.725000100 11.725000100
      vertex 4.000000000 6.725000100 8.275000100
    endloop
  endfacet
  facet normal 1 0 0
    outer loop
      vertex 4.000000000 7.275000100 11.725000100
      vertex 4.000000000 6.725000100 8.275000100
      vertex 4.000000000 7.275000100 8.275000100
    endloop
  endfacet
  facet normal 1 0 -1.614869854e-15
    outer loop
      vertex 4.000000000 7.275000100 11.725000100
      vertex 4.000000000 4.500000100 12.275000100
      vertex 4.000000000 6.725000100 11.725000100
    endloop
  endfacet
  facet normal 1 0 0
    outer loop
      vertex 4.000000000 9.225000100 11.725000100
      vertex 4.000000000 9.225000100 8.275000100
      vertex 4.000000000 9.775000100 8.000000100
    endloop
  endfacet
  facet normal 1 0 -3.229739708e-15
    outer loop
      vertex 4.000000000 9.775000100 12.000000100
      vertex 4.000000000 9.500000100 12.000000100
      vertex 4.000000000 9.225000100 11.725000100
    endloop
  endfacet
  facet normal 1 -1.50384755154e-15 -2.22044604925e-16
    outer loop
      vertex 4.000000000 9.775000100 12.000000100
      vertex 4.000000000 9.225000100 11.725000100
      vertex 4.000000000 9.775000100 8.000000100
    endloop
  endfacet
  facet normal 1 0 -1.614869854e-15
    outer loop
      vertex 4.000000000 9.500000100 12.275000100
      vertex 4.000000000 7.275000100 11.725000100
      vertex 4.000000000 9.225000100 11.725000100
    endloop
  endfacet
  facet normal 1 5.73717021979e-31 -1.614869854e-15
    outer loop
      vertex 4.000000000 9.500000100 12.275000100
      vertex 4.000000000 4.500000100 12.275000100
      vertex 4.000000000 7.275000100 11.725000100
    endloop
  endfacet
  facet normal 1 -3.229739708e-15 0
    outer loop
      vertex 4.000000000 9.500000100 12.275000100
      vertex 4.000000000 9.225000100 11.725000100
      vertex 4.000000000 9.500000100 12.000000100
    endloop
  endfacet
  facet normal -0 1 0
    outer loop
      vertex 4.000000000 4.500000100 8.000000100
      vertex 4.600000000 4.500000100 8.000000100
      vertex 4.600000000 4.500000100 7.725000100
    endloop
  endfacet
  facet normal 0 1 0
    outer loop
      vertex 4.000000000 4.500000100 8.000000100
      vertex 4.600000000 4.500000100 7.725000100
      vertex 4.000000000 4.500000100 7.725000100
    endloop
  endfacet
  facet normal 0 0 1
    outer loop
      vertex 4.000000000 4.225000100 8.000000100
      vertex 4.600000000 4.225000100 8.000000100
      vertex 4.600000000 4.500000100 8.000000100
    endloop
  endfacet
  facet normal 0 0 1
    outer loop
      vertex 4.000000000 4.225000100 8.000000100
      vertex 4.600000000 4.500000100 8.000000100
      vertex 4.000000000 4.500000100 8.000000100
    endloop
  endfacet
  facet normal -0 1 0
    outer loop
      vertex 4.000000000 4.225000100 12.000000100
      vertex 4.600000000 4.225000100 12.000000100
      vertex 4.600000000 4.225000100 8.000000100
    endloop
  endfacet
  facet normal 0 1 0
    outer loop
      vertex 4.000000000 4.225000100 12.000000100
      vertex 4.600000000 4.225000100 8.000000100
      vertex 4.000000000 4.225000100 8.000000100
    endloop
  endfacet
  facet normal 0 0 -1
    outer loop
      vertex 4.000000000 4.225000100 12.000000100
      vertex 4.600000000 4.500000100 12.000000100
      vertex 4.600000000 4.225000100 12.000000100
    endloop
  endfacet
  facet normal 0 0 -1
    outer loop
      vertex 4.000000000 4.225000100 12.000000100
      vertex 4.000000000 4.500000100 12.000000100
      vertex 4.600000000 4.500000100 12.000000100
    endloop
  endfacet
  facet normal -0 1 0
    outer loop
      vertex 4.000000000 4.500000100 12.275000100
      vertex 4.600000000 4.500000100 12.275000100
      vertex 4.600000000 4.500000100 12.000000100
    endloop
  endfacet
  facet normal 0 1 0
    outer loop
      vertex 4.000000000 4.500000100 12.275000100
      vertex 4.600000000 4.500000100 12.000000100
      vertex 4.000000000 4.500000100 12.000000100
    endloop
  endfacet
  facet normal 0 3.5527136788e-16 -1
    outer loop
      vertex 4.000000000 9.500000100 12.275000100
      vertex 4.600000000 9.500000100 12.275000100
      vertex 4.600000000 4.500000100 12.275000100
    endloop
  endfacet
  facet normal 0 3.5527136788e-16 -1
    outer loop
      vertex 4.000000000 9.500000100 12.275000100
      vertex 4.600000000 4.500000100 12.275000100
      vertex 4.000000000 4.500000100 12.275000100
    endloop
  endfacet
  facet normal 0 -1 0
    outer loop
      vertex 4.000000000 9.500000100 12.275000100
      vertex 4.600000000 9.500000100 12.000000100
      vertex 4.600000000 9.500000100 12.275000100
    endloop
  endfacet
  facet normal 0 -1 0
    outer loop
      vertex 4.000000000 9.500000100 12.275000100
      vertex 4.000000000 9.500000100 12.000000100
      vertex 4.600000000 9.500000100 12.000000100
    endloop
  endfacet
  facet normal 0 0 -1
    outer loop
      vertex 4.000000000 9.500000100 12.000000100
      vertex 4.600000000 9.775000100 12.000000100
      vertex 4.600000000 9.500000100 12.000000100
    endloop
  endfacet
  facet normal 0 0 -1
    outer loop
      vertex 4.000000000 9.500000100 12.000000100
      vertex 4.000000000 9.775000100 12.000000100
      vertex 4.600000000 9.775000100 12.000000100
    endloop
  endfacet
  facet normal 0 -1 0
    outer loop
      vertex 4.000000000 9.775000100 12.000000100
      vertex 4.600000000 9.775000100 8.000000100
      vertex 4.600000000 9.775000100 12.000000100
    endloop
  endfacet
  facet normal 0 -1 -0
    outer loop
      vertex 4.000000000 9.775000100 12.000000100
      vertex 4.000000000 9.775000100 8.000000100
      vertex 4.600000000 9.775000100 8.000000100
    endloop
  endfacet
  facet normal 0 0 1
    outer loop
      vertex 4.000000000 9.500000100 8.000000100
      vertex 4.600000000 9.500000100 8.000000100
      vertex 4.600000000 9.775000100 8.000000100
    endloop
  endfacet
  facet normal 0 0 1
    outer loop
      vertex 4.000000000 9.500000100 8.000000100
      vertex 4.600000000 9.775000100 8.000000100
      vertex 4.000000000 9.775000100 8.000000100
    endloop
  endfacet
  facet normal 0 -1 0
    outer loop
      vertex 4.000000000 9.500000100 8.000000100
      vertex 4.600000000 9.500000100 7.725000100
      vertex 4.600000000 9.500000100 8.000000100
    endloop
  endfacet
  facet normal 0 -1 0
    outer loop
      vertex 4.000000000 9.500000100 8.000000100
      vertex 4.000000000 9.500000100 7.725000100
      vertex 4.600000000 9.500000100 7.725000100
    endloop
  endfacet
  facet normal 0 -1.7763568394e-16 1
    outer loop
      vertex 4.000000000 9.500000100 7.725000100
      vertex 4.600000000 4.500000100 7.725000100
      vertex 4.600000000 9.500000100 7.725000100
    endloop
  endfacet
  facet normal 0 -1.7763568394e-16 1
    outer loop
      vertex 4.000000000 9.500000100 7.725000100
      vertex 4.000000000 4.500000100 7.725000100
      vertex 4.600000000 4.500000100 7.725000100
    endloop
  endfacet
  facet normal -0 1 0
    outer loop
      vertex 4.000000000 6.725000100 11.725000100
      vertex 4.600000000 6.725000100 11.725000100
      vertex 4.600000000 6.725000100 8.275000100
    endloop
  endfacet
  facet normal 0 1 0
    outer loop
      vertex 4.000000000 6.725000100 11.725000100
      vertex 4.600000000 6.725000100 8.275000100
      vertex 4.000000000 6.725000100 8.275000100
    endloop
  endfacet
  facet normal -0 0 1
    outer loop
      vertex 4.000000000 6.725000100 11.725000100
      vertex 4.600000000 4.775000100 11.725000100
      vertex 4.600000000 6.725000100 11.725000100
    endloop
  endfacet
  facet normal 0 0 1
    outer loop
      vertex 4.000000000 6.725000100 11.725000100
      vertex 4.000000000 4.775000100 11.725000100
      vertex 4.600000000 4.775000100 11.725000100
    endloop
  endfacet
  facet normal 0 -1 0
    outer loop
      vertex 4.000000000 4.775000100 11.725000100
      vertex 4.600000000 4.775000100 8.275000100
      vertex 4.600000000 4.775000100 11.725000100
    endloop
  endfacet
  facet normal 0 -1 0
    outer loop
      vertex 4.000000000 4.775000100 11.725000100
      vertex 4.000000000 4.775000100 8.275000100
      vertex 4.600000000 4.775000100 8.275000100
    endloop
  endfacet
  facet normal 0 0 -1
    outer loop
      vertex 4.000000000 6.725000100 8.275000100
      vertex 4.600000000 6.725000100 8.275000100
      vertex 4.600000000 4.775000100 8.275000100
    endloop
  endfacet
  facet normal 0 0 -1
    outer loop
      vertex 4.000000000 6.725000100 8.275000100
      vertex 4.600000000 4.775000100 8.275000100
      vertex 4.000000000 4.775000100 8.275000100
    endloop
  endfacet
  facet normal 0 1 -5.14886040406e-16
    outer loop
      vertex 4.000000000 9.225000100 11.725000100
      vertex 4.600000000 9.225000100 11.725000100
      vertex 4.600000000 9.225000100 8.275000100
    endloop
  endfacet
  facet normal 0 1 -5.14886040406e-16
    outer loop
      vertex 4.000000000 9.225000100 11.725000100
      vertex 4.600000000 9.225000100 8.275000100
      vertex 4.000000000 9.225000100 8.275000100
    endloop
  endfacet
  facet normal -0 0 1
    outer loop
      vertex 4.000000000 9.225000100 11.725000100
      vertex 4.600000000 7.275000100 11.725000100
      vertex 4.600000000 9.225000100 11.725000100
    endloop
  endfacet
  facet normal 0 0 1
    outer loop
      vertex 4.000000000 9.225000100 11.725000100
      vertex 4.000000000 7.275000100 11.725000100
      vertex 4.600000000 7.275000100 11.725000100
    endloop
  endfacet
  facet normal 0 -1 0
    outer loop
      vertex 4.000000000 7.275000100 11.725000100
      vertex 4.600000000 7.275000100 8.275000100
      vertex 4.600000000 7.275000100 11.725000100
    endloop
  endfacet
  facet normal 0 -1 0
    outer loop
      vertex 4.000000000 7.275000100 11.725000100
      vertex 4.000000000 7.275000100 8.275000100
      vertex 4.600000000 7.275000100 8.275000100
    endloop
  endfacet
  facet normal 0 0 -1
    outer loop
      vertex 4.000000000 9.225000100 8.275000100
      vertex 4.600000000 9.225000100 8.275000100
      vertex 4.600000000 7.275000100 8.275000100
    endloop
  endfacet
  facet normal 0 0 -1
    outer loop
      vertex 4.000000000 9.225000100 8.275000100
      vertex 4.600000000 7.275000100 8.275000100
      vertex 4.000000000 7.275000100 8.275000100
    endloop
  endfacet
  facet normal -1 0 0
    outer loop
      vertex 4.600000000 4.775000100 11.725000100
      vertex 4.600000000 4.225000100 12.000000100
      vertex 4.600000000 4.500000100 12.000000100
    endloop
  endfacet
  facet normal -1 0 0
    outer loop
      vertex 4.600000000 4.775000100 11.725000100
      vertex 4.600000000 4.500000100 12.000000100
      vertex 4.600000000 4.500000100 12.275000100
    endloop
  endfacet
  facet normal -1 0 0
    outer loop
      vertex 4.600000000 6.725000100 11.725000100
      vertex 4.600000000 4.775000100 11.725000100
      vertex 4.600000000 4.500000100 12.275000100
    endloop
  endfacet
  facet normal -1 1.11022302463e-16 2.22044604925e-16
    outer loop
      vertex 4.600000000 4.225000100 8.000000100
      vertex 4.600000000 4.225000100 12.000000100
      vertex 4.600000000 4.775000100 11.725000100
    endloop
  endfacet
  facet normal -1 -1.28721510101e-16 2.57443020203e-16
    outer loop
      vertex 4.600000000 4.775000100 8.275000100
      vertex 4.600000000 4.225000100 8.000000100
      vertex 4.600000000 4.775000100 11.725000100
    endloop
  endfacet
  facet normal -1 0 0
    outer loop
      vertex 4.600000000 4.500000100 8.000000100
      vertex 4.600000000 4.225000100 8.000000100
      vertex 4.600000000 4.775000100 8.275000100
    endloop
  endfacet
  facet normal -1 0 0
    outer loop
      vertex 4.600000000 4.500000100 7.725000100
      vertex 4.600000000 4.500000100 8.000000100
      vertex 4.600000000 4.775000100 8.275000100
    endloop
  endfacet
  facet normal -1 0 0
    outer loop
      vertex 4.600000000 9.500000100 12.275000100
      vertex 4.600000000 6.725000100 11.725000100
      vertex 4.600000000 4.500000100 12.275000100
    endloop
  endfacet
  facet normal -1 0 0
    outer loop
      vertex 4.600000000 9.500000100 12.275000100
      vertex 4.600000000 7.275000100 11.725000100
      vertex 4.600000000 6.725000100 11.725000100
    endloop
  endfacet
  facet normal -1 0 0
    outer loop
      vertex 4.600000000 9.225000100 11.725000100
      vertex 4.600000000 9.500000100 12.275000100
      vertex 4.600000000 9.500000100 12.000000100
    endloop
  endfacet
  facet normal -1 0 0
    outer loop
      vertex 4.600000000 9.225000100 11.725000100
      vertex 4.600000000 7.275000100 11.725000100
      vertex 4.600000000 9.500000100 12.275000100
    endloop
  endfacet
  facet normal -1 -0 0
    outer loop
      vertex 4.600000000 9.775000100 12.000000100
      vertex 4.600000000 9.225000100 11.725000100
      vertex 4.600000000 9.500000100 12.000000100
    endloop
  endfacet
  facet normal -1 -0 0
    outer loop
      vertex 4.600000000 6.725000100 8.275000100
      vertex 4.600000000 4.500000100 7.725000100
      vertex 4.600000000 4.775000100 8.275000100
    endloop
  endfacet
  facet normal -1 0 2.57443020203e-16
    outer loop
      vertex 4.600000000 7.275000100 8.275000100
      vertex 4.600000000 6.725000100 8.275000100
      vertex 4.600000000 6.725000100 11.725000100
    endloop
  endfacet
  facet normal -1 0 2.57443020203e-16
    outer loop
      vertex 4.600000000 7.275000100 8.275000100
      vertex 4.600000000 6.725000100 11.725000100
      vertex 4.600000000 7.275000100 11.725000100
    endloop
  endfacet
  facet normal -1 1.28721510101e-16 2.57443020203e-16
    outer loop
      vertex 4.600000000 9.775000100 8.000000100
      vertex 4.600000000 9.225000100 8.275000100
      vertex 4.600000000 9.225000100 11.725000100
    endloop
  endfacet
  facet normal -1 -1.11022302463e-16 2.22044604925e-16
    outer loop
      vertex 4.600000000 9.775000100 8.000000100
      vertex 4.600000000 9.225000100 11.725000100
      vertex 4.600000000 9.775000100 12.000000100
    endloop
  endfacet
  facet normal -1 0 0
    outer loop
      vertex 4.600000000 9.775000100 8.000000100
      vertex 4.600000000 9.500000100 8.000000100
      vertex 4.600000000 9.225000100 8.275000100
    endloop
  endfacet
  facet normal -1 0 0
    outer loop
      vertex 4.600000000 9.500000100 7.725000100
      vertex 4.600000000 7.275000100 8.275000100
      vertex 4.600000000 9.225000100 8.275000100
    endloop
  endfacet
  facet normal -1 0 0
    outer loop
      vertex 4.600000000 9.500000100 7.725000100
      vertex 4.600000000 9.225000100 8.275000100
      vertex 4.600000000 9.500000100 8.000000100
    endloop
  endfacet
  facet normal -1 -0 0
    outer loop
      vertex 4.600000000 9.500000100 7.725000100
      vertex 4.600000000 4.500000100 7.725000100
      vertex 4.600000000 6.725000100 8.275000100
    endloop
  endfacet
  facet normal -1 0 0
    outer loop
      vertex 4.600000000 9.500000100 7.725000100
      vertex 4.600000000 6.725000100 8.275000100
      vertex 4.600000000 7.275000100 8.275000100
    endloop
  endfacet
endsolid P25_SLIDE_IN_POSITIONING_V002
