solid P25_SLIDE_IN_POSITIONING_V002
  facet normal -1.11022302463e-16 0 -1
    outer loop
      vertex 7.800000000 9.500000100 0.000000100
      vertex 7.800000000 11.600000100 0.000000100
      vertex 9.800000000 11.600000100 0.000000100
    endloop
  endfacet
  facet normal -1.11022302463e-16 0 -1
    outer loop
      vertex 4.000000000 9.500000100 0.000000100
      vertex 0.000000000 14.000000100 0.000000100
      vertex 4.000000000 14.000000100 0.000000100
    endloop
  endfacet
  facet normal -1.11022302463e-16 0 -1
    outer loop
      vertex 9.800000000 2.400000100 0.000000100
      vertex 7.800000000 9.500000100 0.000000100
      vertex 9.800000000 11.600000100 0.000000100
    endloop
  endfacet
  facet normal -1.11022302463e-16 0 -1
    outer loop
      vertex 9.800000000 2.400000100 0.000000100
      vertex 7.800000000 4.500000100 0.000000100
      vertex 7.800000000 9.500000100 0.000000100
    endloop
  endfacet
  facet normal -1.11022302463e-16 0 -1
    outer loop
      vertex 7.800000000 2.400000100 0.000000100
      vertex 7.800000000 4.500000100 0.000000100
      vertex 9.800000000 2.400000100 0.000000100
    endloop
  endfacet
  facet normal -1.11022301069e-16 0 -1
    outer loop
      vertex 4.000000000 4.500000100 0.000000100
      vertex 4.000000000 9.500000100 0.000000100
      vertex 7.800000000 9.500000100 0.000000100
    endloop
  endfacet
  facet normal -1.11022301069e-16 0 -1
    outer loop
      vertex 4.000000000 4.500000100 0.000000100
      vertex 7.800000000 9.500000100 0.000000100
      vertex 7.800000000 4.500000100 0.000000100
    endloop
  endfacet
  facet normal -1.11022302463e-16 0 -1
    outer loop
      vertex 0.000000000 0.000000100 0.000000100
      vertex 4.000000000 4.500000100 0.000000100
      vertex 4.000000000 0.000000100 0.000000100
    endloop
  endfacet
  facet normal -1.11022302463e-16 0 -1
    outer loop
      vertex 0.000000000 0.000000100 0.000000100
      vertex 4.000000000 9.500000100 0.000000100
      vertex 4.000000000 4.500000100 0.000000100
    endloop
  endfacet
  facet normal -1.11022302463e-16 0 -1
    outer loop
      vertex 0.000000000 0.000000100 0.000000100
      vertex 0.000000000 14.000000100 0.000000100
      vertex 4.000000000 9.500000100 0.000000100
    endloop
  endfacet
  facet normal 0 -1 0
    outer loop
      vertex 4.000000000 0.000000100 20.000000100
      vertex 0.000000000 0.000000100 0.000000100
      vertex 4.000000000 0.000000100 0.000000100
    endloop
  endfacet
  facet normal 0 -1 -0
    outer loop
      vertex 0.000000000 0.000000100 20.000000100
      vertex 0.000000000 0.000000100 0.000000100
      vertex 4.000000000 0.000000100 20.000000100
    endloop
  endfacet
  facet normal 1 0 0
    outer loop
      vertex 4.000000000 4.200000100 0.400000100
      vertex 4.000000000 0.000000100 0.000000100
      vertex 4.000000000 4.500000100 0.000000100
    endloop
  endfacet
  facet normal 1 8.45884209238e-18 -8.881784197e-17
    outer loop
      vertex 4.000000000 0.000000100 20.000000100
      vertex 4.000000000 0.000000100 0.000000100
      vertex 4.000000000 4.200000100 0.400000100
    endloop
  endfacet
  facet normal 1 0 -9.06304509898e-17
    outer loop
      vertex 4.000000000 4.200000100 20.000000100
      vertex 4.000000000 0.000000100 20.000000100
      vertex 4.000000000 4.200000100 0.400000100
    endloop
  endfacet
  facet normal -6.5736889616e-17 -0.8 -0.6
    outer loop
      vertex 7.800000000 4.200000100 0.400000100
      vertex 4.000000000 4.500000100 0.000000100
      vertex 7.800000000 4.500000100 0.000000100
    endloop
  endfacet
  facet normal -7.01193489237e-17 -0.8 -0.6
    outer loop
      vertex 7.800000000 4.200000100 0.400000100
      vertex 4.000000000 4.200000100 0.400000100
      vertex 4.000000000 4.500000100 0.000000100
    endloop
  endfacet
  facet normal -1 0 -2.22044604925e-15
    outer loop
      vertex 7.800000000 4.200000100 0.400000100
      vertex 7.800000000 4.500000100 0.000000100
      vertex 7.800000000 2.400000100 0.000000100
    endloop
  endfacet
  facet normal -1 -0 -2.22044604925e-15
    outer loop
      vertex 7.800000000 4.200000100 0.400000100
      vertex 7.800000000 2.400000100 0.000000100
      vertex 7.800000000 2.100000100 0.400000100
    endloop
  endfacet
  facet normal -1 0 1.8126090198e-16
    outer loop
      vertex 7.800000000 4.200000100 20.000000100
      vertex 7.800000000 2.100000100 0.400000100
      vertex 7.800000000 2.100000100 20.000000100
    endloop
  endfacet
  facet normal -1 0 1.8126090198e-16
    outer loop
      vertex 7.800000000 4.200000100 20.000000100
      vertex 7.800000000 4.200000100 0.400000100
      vertex 7.800000000 2.100000100 0.400000100
    endloop
  endfacet
  facet normal -6.93889390391e-17 -0.8 -0.6
    outer loop
      vertex 9.800000000 2.100000100 0.400000100
      vertex 7.800000000 2.400000100 0.000000100
      vertex 9.800000000 2.400000100 0.000000100
    endloop
  endfacet
  facet normal -6.66133814775e-17 -0.8 -0.6
    outer loop
      vertex 9.800000000 2.100000100 0.400000100
      vertex 7.800000000 2.100000100 0.400000100
      vertex 7.800000000 2.400000100 0.000000100
    endloop
  endfacet
  facet normal 1 0 0
    outer loop
      vertex 9.800000000 11.600000100 0.000000100
      vertex 9.800000000 2.100000100 0.400000100
      vertex 9.800000000 2.400000100 0.000000100
    endloop
  endfacet
  facet normal 1 0 0
    outer loop
      vertex 9.800000000 11.900000100 0.400000100
      vertex 9.800000000 2.100000100 0.400000100
      vertex 9.800000000 11.600000100 0.000000100
    endloop
  endfacet
  facet normal 1 0 -9.06304509898e-17
    outer loop
      vertex 9.800000000 11.900000100 20.000000100
      vertex 9.800000000 2.100000100 20.000000100
      vertex 9.800000000 2.100000100 0.400000100
    endloop
  endfacet
  facet normal 1 0 -9.06304509898e-17
    outer loop
      vertex 9.800000000 11.900000100 20.000000100
      vertex 9.800000000 2.100000100 0.400000100
      vertex 9.800000000 11.900000100 0.400000100
    endloop
  endfacet
  facet normal -5.55111512313e-17 0.8 -0.6
    outer loop
      vertex 7.800000000 11.900000100 0.400000100
      vertex 9.800000000 11.600000100 0.000000100
      vertex 7.800000000 11.600000100 0.000000100
    endloop
  endfacet
  facet normal -6.66133814775e-17 0.8 -0.6
    outer loop
      vertex 7.800000000 11.900000100 0.400000100
      vertex 9.800000000 11.900000100 0.400000100
      vertex 9.800000000 11.600000100 0.000000100
    endloop
  endfacet
  facet normal -1 -0 -2.22044604925e-15
    outer loop
      vertex 7.800000000 11.600000100 0.000000100
      vertex 7.800000000 9.500000100 0.000000100
      vertex 7.800000000 9.800000100 0.400000100
    endloop
  endfacet
  facet normal -1 -0 -2.22044604925e-15
    outer loop
      vertex 7.800000000 11.900000100 0.400000100
      vertex 7.800000000 11.600000100 0.000000100
      vertex 7.800000000 9.800000100 0.400000100
    endloop
  endfacet
  facet normal -1 0 1.8126090198e-16
    outer loop
      vertex 7.800000000 11.900000100 20.000000100
      vertex 7.800000000 9.800000100 0.400000100
      vertex 7.800000000 9.800000100 20.000000100
    endloop
  endfacet
  facet normal -1 0 1.8126090198e-16
    outer loop
      vertex 7.800000000 11.900000100 20.000000100
      vertex 7.800000000 11.900000100 0.400000100
      vertex 7.800000000 9.800000100 0.400000100
    endloop
  endfacet
  facet normal -6.5736889616e-17 0.8 -0.6
    outer loop
      vertex 4.000000000 9.800000100 0.400000100
      vertex 7.800000000 9.500000100 0.000000100
      vertex 4.000000000 9.500000100 0.000000100
    endloop
  endfacet
  facet normal -7.01193489237e-17 0.8 -0.6
    outer loop
      vertex 4.000000000 9.800000100 0.400000100
      vertex 7.800000000 9.800000100 0.400000100
      vertex 7.800000000 9.500000100 0.000000100
    endloop
  endfacet
  facet normal 1 0 0
    outer loop
      vertex 4.000000000 14.000000100 0.000000100
      vertex 4.000000000 9.800000100 0.400000100
      vertex 4.000000000 9.500000100 0.000000100
    endloop
  endfacet
  facet normal 1 0 -9.06304509898e-17
    outer loop
      vertex 4.000000000 14.000000100 20.000000100
      vertex 4.000000000 9.800000100 20.000000100
      vertex 4.000000000 9.800000100 0.400000100
    endloop
  endfacet
  facet normal 1 -8.45884209238e-18 -8.881784197e-17
    outer loop
      vertex 4.000000000 14.000000100 20.000000100
      vertex 4.000000000 9.800000100 0.400000100
      vertex 4.000000000 14.000000100 0.000000100
    endloop
  endfacet
  facet normal 0 1 0
    outer loop
      vertex 4.000000000 14.000000100 20.000000100
      vertex 4.000000000 14.000000100 0.000000100
      vertex 0.000000000 14.000000100 0.000000100
    endloop
  endfacet
  facet normal -0 1 0
    outer loop
      vertex 0.000000000 14.000000100 20.000000100
      vertex 4.000000000 14.000000100 20.000000100
      vertex 0.000000000 14.000000100 0.000000100
    endloop
  endfacet
  facet normal -1 0 1.11022302463e-16
    outer loop
      vertex 0.000000000 14.000000100 20.000000100
      vertex 0.000000000 14.000000100 0.000000100
      vertex 0.000000000 0.000000100 0.000000100
    endloop
  endfacet
  facet normal -1 0 1.11022302463e-16
    outer loop
      vertex 0.000000000 14.000000100 20.000000100
      vertex 0.000000000 0.000000100 0.000000100
      vertex 0.000000000 0.000000100 20.000000100
    endloop
  endfacet
  facet normal 0 0 1
    outer loop
      vertex 7.800000000 9.800000100 20.000000100
      vertex 9.800000000 11.900000100 20.000000100
      vertex 7.800000000 11.900000100 20.000000100
    endloop
  endfacet
  facet normal 0 -0 1
    outer loop
      vertex 4.000000000 9.800000100 20.000000100
      vertex 4.000000000 14.000000100 20.000000100
      vertex 0.000000000 14.000000100 20.000000100
    endloop
  endfacet
  facet normal 0 -0 1
    outer loop
      vertex 9.800000000 2.100000100 20.000000100
      vertex 9.800000000 11.900000100 20.000000100
      vertex 7.800000000 9.800000100 20.000000100
    endloop
  endfacet
  facet normal 0 0 1
    outer loop
      vertex 9.800000000 2.100000100 20.000000100
      vertex 7.800000000 9.800000100 20.000000100
      vertex 7.800000000 4.200000100 20.000000100
    endloop
  endfacet
  facet normal 0 0 1
    outer loop
      vertex 7.800000000 2.100000100 20.000000100
      vertex 9.800000000 2.100000100 20.000000100
      vertex 7.800000000 4.200000100 20.000000100
    endloop
  endfacet
  facet normal 0 0 1
    outer loop
      vertex 4.000000000 4.200000100 20.000000100
      vertex 7.800000000 9.800000100 20.000000100
      vertex 4.000000000 9.800000100 20.000000100
    endloop
  endfacet
  facet normal 0 0 1
    outer loop
      vertex 4.000000000 4.200000100 20.000000100
      vertex 7.800000000 4.200000100 20.000000100
      vertex 7.800000000 9.800000100 20.000000100
    endloop
  endfacet
  facet normal 0 0 1
    outer loop
      vertex 0.000000000 0.000000100 20.000000100
      vertex 4.000000000 0.000000100 20.000000100
      vertex 4.000000000 4.200000100 20.000000100
    endloop
  endfacet
  facet normal 0 0 1
    outer loop
      vertex 0.000000000 0.000000100 20.000000100
      vertex 4.000000000 4.200000100 20.000000100
      vertex 4.000000000 9.800000100 20.000000100
    endloop
  endfacet
  facet normal 0 0 1
    outer loop
      vertex 0.000000000 0.000000100 20.000000100
      vertex 4.000000000 9.800000100 20.000000100
      vertex 0.000000000 14.000000100 20.000000100
    endloop
  endfacet
  facet normal 0 -1 0
    outer loop
      vertex 4.000000000 4.200000100 20.000000100
      vertex 7.800000000 4.200000100 0.400000100
      vertex 7.800000000 4.200000100 20.000000100
    endloop
  endfacet
  facet normal 0 -1 -0
    outer loop
      vertex 4.000000000 4.200000100 20.000000100
      vertex 4.000000000 4.200000100 0.400000100
      vertex 7.800000000 4.200000100 0.400000100
    endloop
  endfacet
  facet normal 0 -1 0
    outer loop
      vertex 9.800000000 2.100000100 20.000000100
      vertex 7.800000000 2.100000100 0.400000100
      vertex 9.800000000 2.100000100 0.400000100
    endloop
  endfacet
  facet normal 0 -1 -0
    outer loop
      vertex 7.800000000 2.100000100 20.000000100
      vertex 7.800000000 2.100000100 0.400000100
      vertex 9.800000000 2.100000100 20.000000100
    endloop
  endfacet
  facet normal 0 1 0
    outer loop
      vertex 9.800000000 11.900000100 20.000000100
      vertex 9.800000000 11.900000100 0.400000100
      vertex 7.800000000 11.900000100 0.400000100
    endloop
  endfacet
  facet normal -0 1 0
    outer loop
      vertex 7.800000000 11.900000100 20.000000100
      vertex 9.800000000 11.900000100 20.000000100
      vertex 7.800000000 11.900000100 0.400000100
    endloop
  endfacet
  facet normal -0 1 0
    outer loop
      vertex 4.000000000 9.800000100 20.000000100
      vertex 7.800000000 9.800000100 20.000000100
      vertex 7.800000000 9.800000100 0.400000100
    endloop
  endfacet
  facet normal 0 1 0
    outer loop
      vertex 4.000000000 9.800000100 20.000000100
      vertex 7.800000000 9.800000100 0.400000100
      vertex 4.000000000 9.800000100 0.400000100
    endloop
  endfacet
  facet normal -0 0.928476690885 0.371390676354
    outer loop
      vertex 4.000000000 4.397867664 8.255331190
      vertex 4.600000000 4.397867664 8.255331190
      vertex 4.600000000 4.602132536 7.744669010
    endloop
  endfacet
  facet normal 0 0.928476690885 0.371390676354
    outer loop
      vertex 4.000000000 4.397867664 8.255331190
      vertex 4.600000000 4.602132536 7.744669010
      vertex 4.000000000 4.602132536 7.744669010
    endloop
  endfacet
  facet normal 0 0.371390676354 -0.928476690885
    outer loop
      vertex 4.000000000 6.725000100 9.186184164
      vertex 4.600000000 6.725000100 9.186184164
      vertex 4.600000000 4.397867664 8.255331190
    endloop
  endfacet
  facet normal 0 0.371390676354 -0.928476690885
    outer loop
      vertex 4.000000000 6.725000100 9.186184164
      vertex 4.600000000 4.397867664 8.255331190
      vertex 4.000000000 4.397867664 8.255331190
    endloop
  endfacet
  facet normal 1 -5.99747607301e-16 -1.49936901825e-15
    outer loop
      vertex 4.000000000 6.725000100 10.813816036
      vertex 4.000000000 4.602132536 12.255331190
      vertex 4.000000000 4.397867664 11.744669010
    endloop
  endfacet
  facet normal 1 0 0
    outer loop
      vertex 4.000000000 6.725000100 9.186184164
      vertex 4.000000000 4.397867664 8.255331190
      vertex 4.000000000 4.602132536 7.744669010
    endloop
  endfacet
  facet normal 1 0 0
    outer loop
      vertex 4.000000000 7.275000100 9.406184164
      vertex 4.000000000 6.725000100 10.813816036
      vertex 4.000000000 6.725000100 9.186184164
    endloop
  endfacet
  facet normal 1 0 -0
    outer loop
      vertex 4.000000000 7.275000100 9.406184164
      vertex 4.000000000 7.275000100 10.593816036
      vertex 4.000000000 6.725000100 10.813816036
    endloop
  endfacet
  facet normal 1 0 0
    outer loop
      vertex 4.000000000 9.602132536 10.255331190
      vertex 4.000000000 7.275000100 10.593816036
      vertex 4.000000000 8.759539939 10.000000100
    endloop
  endfacet
  facet normal 1 -1.67474974935e-16 -8.62776647189e-16
    outer loop
      vertex 4.000000000 9.602132536 10.255331190
      vertex 4.000000000 4.602132536 12.255331190
      vertex 4.000000000 6.725000100 10.813816036
    endloop
  endfacet
  facet normal 1 0 0
    outer loop
      vertex 4.000000000 9.602132536 10.255331190
      vertex 4.000000000 6.725000100 10.813816036
      vertex 4.000000000 7.275000100 10.593816036
    endloop
  endfacet
  facet normal 1 0 -0
    outer loop
      vertex 4.000000000 9.500000100 10.000000100
      vertex 4.000000000 9.602132536 10.255331190
      vertex 4.000000000 8.759539939 10.000000100
    endloop
  endfacet
  facet normal 1 0 0
    outer loop
      vertex 4.000000000 9.602132536 9.744669010
      vertex 4.000000000 8.759539939 10.000000100
      vertex 4.000000000 7.275000100 9.406184164
    endloop
  endfacet
  facet normal 1 0 0
    outer loop
      vertex 4.000000000 9.602132536 9.744669010
      vertex 4.000000000 9.500000100 10.000000100
      vertex 4.000000000 8.759539939 10.000000100
    endloop
  endfacet
  facet normal 1 0 0
    outer loop
      vertex 4.000000000 9.602132536 9.744669010
      vertex 4.000000000 7.275000100 9.406184164
      vertex 4.000000000 4.602132536 7.744669010
    endloop
  endfacet
  facet normal 1 0 0
    outer loop
      vertex 4.000000000 7.275000100 9.406184164
      vertex 4.000000000 6.725000100 9.186184164
      vertex 4.000000000 4.602132536 7.744669010
    endloop
  endfacet
  facet normal 0 -0.371390676354 0.928476690885
    outer loop
      vertex 4.000000000 9.602132536 9.744669010
      vertex 4.600000000 4.602132536 7.744669010
      vertex 4.600000000 9.602132536 9.744669010
    endloop
  endfacet
  facet normal 0 -0.371390676354 0.928476690885
    outer loop
      vertex 4.000000000 9.602132536 9.744669010
      vertex 4.000000000 4.602132536 7.744669010
      vertex 4.600000000 4.602132536 7.744669010
    endloop
  endfacet
  facet normal -1 -3.29019113662e-16 1.31607645465e-16
    outer loop
      vertex 4.600000000 6.725000100 10.813816036
      vertex 4.600000000 4.397867664 11.744669010
      vertex 4.600000000 4.602132536 12.255331190
    endloop
  endfacet
  facet normal -1 0 0
    outer loop
      vertex 4.600000000 6.725000100 9.186184164
      vertex 4.600000000 4.602132536 7.744669010
      vertex 4.600000000 4.397867664 8.255331190
    endloop
  endfacet
  facet normal -1 -0 0
    outer loop
      vertex 4.600000000 7.275000100 9.406184164
      vertex 4.600000000 6.725000100 9.186184164
      vertex 4.600000000 6.725000100 10.813816036
    endloop
  endfacet
  facet normal -1 0 0
    outer loop
      vertex 4.600000000 7.275000100 9.406184164
      vertex 4.600000000 6.725000100 10.813816036
      vertex 4.600000000 7.275000100 10.593816036
    endloop
  endfacet
  facet normal -1 -0 0
    outer loop
      vertex 4.600000000 9.602132536 10.255331190
      vertex 4.600000000 8.759539939 10.000000100
      vertex 4.600000000 7.275000100 10.593816036
    endloop
  endfacet
  facet normal -1 1.67474974935e-16 8.62776647189e-16
    outer loop
      vertex 4.600000000 9.602132536 10.255331190
      vertex 4.600000000 6.725000100 10.813816036
      vertex 4.600000000 4.602132536 12.255331190
    endloop
  endfacet
  facet normal -1 0 0
    outer loop
      vertex 4.600000000 9.602132536 10.255331190
      vertex 4.600000000 7.275000100 10.593816036
      vertex 4.600000000 6.725000100 10.813816036
    endloop
  endfacet
  facet normal -1 0 0
    outer loop
      vertex 4.600000000 9.500000100 10.000000100
      vertex 4.600000000 8.759539939 10.000000100
      vertex 4.600000000 9.602132536 10.255331190
    endloop
  endfacet
  facet normal -1 -0 0
    outer loop
      vertex 4.600000000 9.602132536 9.744669010
      vertex 4.600000000 7.275000100 9.406184164
      vertex 4.600000000 8.759539939 10.000000100
    endloop
  endfacet
  facet normal -1 0 0
    outer loop
      vertex 4.600000000 9.602132536 9.744669010
      vertex 4.600000000 8.759539939 10.000000100
      vertex 4.600000000 9.500000100 10.000000100
    endloop
  endfacet
  facet normal -1 0 0
    outer loop
      vertex 4.600000000 9.602132536 9.744669010
      vertex 4.600000000 4.602132536 7.744669010
      vertex 4.600000000 7.275000100 9.406184164
    endloop
  endfacet
  facet normal -1 0 0
    outer loop
      vertex 4.600000000 7.275000100 9.406184164
      vertex 4.600000000 4.602132536 7.744669010
      vertex 4.600000000 6.725000100 9.186184164
    endloop
  endfacet
  facet normal -0 1 5.45687532548e-16
    outer loop
      vertex 4.000000000 6.725000100 10.813816036
      vertex 4.600000000 6.725000100 10.813816036
      vertex 4.600000000 6.725000100 9.186184164
    endloop
  endfacet
  facet normal 0 1 5.45687532548e-16
    outer loop
      vertex 4.000000000 6.725000100 10.813816036
      vertex 4.600000000 6.725000100 9.186184164
      vertex 4.000000000 6.725000100 9.186184164
    endloop
  endfacet
  facet normal 0 -0.928476690885 -0.371390676354
    outer loop
      vertex 4.000000000 9.500000100 10.000000100
      vertex 4.600000000 9.602132536 9.744669010
      vertex 4.600000000 9.500000100 10.000000100
    endloop
  endfacet
  facet normal 0 -0.928476690885 -0.371390676354
    outer loop
      vertex 4.000000000 9.500000100 10.000000100
      vertex 4.000000000 9.602132536 9.744669010
      vertex 4.600000000 9.602132536 9.744669010
    endloop
  endfacet
  facet normal -0 0.371390676354 0.928476690885
    outer loop
      vertex 4.000000000 4.397867664 11.744669010
      vertex 4.600000000 4.397867664 11.744669010
      vertex 4.600000000 6.725000100 10.813816036
    endloop
  endfacet
  facet normal 0 0.371390676354 0.928476690885
    outer loop
      vertex 4.000000000 4.397867664 11.744669010
      vertex 4.600000000 6.725000100 10.813816036
      vertex 4.000000000 6.725000100 10.813816036
    endloop
  endfacet
  facet normal 0 0.928476690885 -0.371390676354
    outer loop
      vertex 4.000000000 4.602132536 12.255331190
      vertex 4.600000000 4.602132536 12.255331190
      vertex 4.600000000 4.397867664 11.744669010
    endloop
  endfacet
  facet normal 0 0.928476690885 -0.371390676354
    outer loop
      vertex 4.000000000 4.397867664 11.744669010
      vertex 4.000000000 4.602132536 12.255331190
      vertex 4.600000000 4.397867664 11.744669010
    endloop
  endfacet
  facet normal 0 -0.371390676354 -0.928476690885
    outer loop
      vertex 4.000000000 4.602132536 12.255331190
      vertex 4.600000000 9.602132536 10.255331190
      vertex 4.600000000 4.602132536 12.255331190
    endloop
  endfacet
  facet normal 0 -0.371390676354 -0.928476690885
    outer loop
      vertex 4.000000000 4.602132536 12.255331190
      vertex 4.000000000 9.602132536 10.255331190
      vertex 4.600000000 9.602132536 10.255331190
    endloop
  endfacet
  facet normal 0 -0.928476690885 0.371390676354
    outer loop
      vertex 4.000000000 9.500000100 10.000000100
      vertex 4.600000000 9.500000100 10.000000100
      vertex 4.600000000 9.602132536 10.255331190
    endloop
  endfacet
  facet normal 0 -0.928476690885 0.371390676354
    outer loop
      vertex 4.000000000 9.500000100 10.000000100
      vertex 4.600000000 9.602132536 10.255331190
      vertex 4.000000000 9.602132536 10.255331190
    endloop
  endfacet
  facet normal 0 0.371390676354 0.928476690885
    outer loop
      vertex 4.600000000 7.275000100 10.593816036
      vertex 4.600000000 8.759539939 10.000000100
      vertex 4.000000000 8.759539939 10.000000100
    endloop
  endfacet
  facet normal -0 0.371390676354 0.928476690885
    outer loop
      vertex 4.000000000 7.275000100 10.593816036
      vertex 4.600000000 7.275000100 10.593816036
      vertex 4.000000000 8.759539939 10.000000100
    endloop
  endfacet
  facet normal 0 -1 0
    outer loop
      vertex 4.000000000 7.275000100 10.593816036
      vertex 4.600000000 7.275000100 9.406184164
      vertex 4.600000000 7.275000100 10.593816036
    endloop
  endfacet
  facet normal 0 -1 0
    outer loop
      vertex 4.000000000 7.275000100 10.593816036
      vertex 4.000000000 7.275000100 9.406184164
      vertex 4.600000000 7.275000100 9.406184164
    endloop
  endfacet
  facet normal 0 0.371390676354 -0.928476690885
    outer loop
      vertex 4.000000000 8.759539939 10.000000100
      vertex 4.600000000 8.759539939 10.000000100
      vertex 4.600000000 7.275000100 9.406184164
    endloop
  endfacet
  facet normal 0 0.371390676354 -0.928476690885
    outer loop
      vertex 4.000000000 8.759539939 10.000000100
      vertex 4.600000000 7.275000100 9.406184164
      vertex 4.000000000 7.275000100 9.406184164
    endloop
  endfacet
endsolid P25_SLIDE_IN_POSITIONING_V002
