solid P25_SLIDE_IN_POSITIONING_V002
  facet normal -1.11022302463e-16 0 -1
    outer loop
      vertex 8.000000000 9.700000100 0.000000100
      vertex 8.000000000 11.800000100 0.000000100
      vertex 10.000000000 11.800000100 0.000000100
    endloop
  endfacet
  facet normal -1.11022302463e-16 0 -1
    outer loop
      vertex 4.000000000 9.700000100 0.000000100
      vertex 0.000000000 14.000000100 0.000000100
      vertex 4.000000000 14.000000100 0.000000100
    endloop
  endfacet
  facet normal -1.11022302463e-16 0 -1
    outer loop
      vertex 10.000000000 2.200000100 0.000000100
      vertex 8.000000000 9.700000100 0.000000100
      vertex 10.000000000 11.800000100 0.000000100
    endloop
  endfacet
  facet normal -1.11022302463e-16 0 -1
    outer loop
      vertex 10.000000000 2.200000100 0.000000100
      vertex 8.000000000 4.300000100 0.000000100
      vertex 8.000000000 9.700000100 0.000000100
    endloop
  endfacet
  facet normal -1.11022302463e-16 0 -1
    outer loop
      vertex 8.000000000 2.200000100 0.000000100
      vertex 8.000000000 4.300000100 0.000000100
      vertex 10.000000000 2.200000100 0.000000100
    endloop
  endfacet
  facet normal -1.11022302463e-16 0 -1
    outer loop
      vertex 4.000000000 4.300000100 0.000000100
      vertex 4.000000000 9.700000100 0.000000100
      vertex 8.000000000 9.700000100 0.000000100
    endloop
  endfacet
  facet normal -1.11022302463e-16 0 -1
    outer loop
      vertex 4.000000000 4.300000100 0.000000100
      vertex 0.000000000 14.000000100 0.000000100
      vertex 4.000000000 9.700000100 0.000000100
    endloop
  endfacet
  facet normal -1.11022302463e-16 0 -1
    outer loop
      vertex 4.000000000 4.300000100 0.000000100
      vertex 8.000000000 9.700000100 0.000000100
      vertex 8.000000000 4.300000100 0.000000100
    endloop
  endfacet
  facet normal -1.11022302463e-16 0 -1
    outer loop
      vertex 0.000000000 0.000000100 0.000000100
      vertex 4.000000000 4.300000100 0.000000100
      vertex 4.000000000 0.000000100 0.000000100
    endloop
  endfacet
  facet normal -1.11022302463e-16 0 -1
    outer loop
      vertex 0.000000000 0.000000100 0.000000100
      vertex 0.000000000 14.000000100 0.000000100
      vertex 4.000000000 4.300000100 0.000000100
    endloop
  endfacet
  facet normal 0 -1 0
    outer loop
      vertex 4.000000000 0.000000100 20.000000100
      vertex 0.000000000 0.000000100 0.000000100
      vertex 4.000000000 0.000000100 0.000000100
    endloop
  endfacet
  facet normal 0 -1 -0
    outer loop
      vertex 0.000000000 0.000000100 20.000000100
      vertex 0.000000000 0.000000100 0.000000100
      vertex 4.000000000 0.000000100 20.000000100
    endloop
  endfacet
  facet normal 1 0 0
    outer loop
      vertex 4.000000000 4.000000100 0.400000100
      vertex 4.000000000 0.000000100 0.000000100
      vertex 4.000000000 4.300000100 0.000000100
    endloop
  endfacet
  facet normal 1 8.881784197e-18 -8.881784197e-17
    outer loop
      vertex 4.000000000 0.000000100 20.000000100
      vertex 4.000000000 0.000000100 0.000000100
      vertex 4.000000000 4.000000100 0.400000100
    endloop
  endfacet
  facet normal 1 0 -9.06304509898e-17
    outer loop
      vertex 4.000000000 4.000000100 20.000000100
      vertex 4.000000000 0.000000100 20.000000100
      vertex 4.000000000 4.000000100 0.400000100
    endloop
  endfacet
  facet normal -6.24500451352e-17 -0.8 -0.6
    outer loop
      vertex 8.000000000 4.000000100 0.400000100
      vertex 4.000000000 4.300000100 0.000000100
      vertex 8.000000000 4.300000100 0.000000100
    endloop
  endfacet
  facet normal -6.66133814775e-17 -0.8 -0.6
    outer loop
      vertex 8.000000000 4.000000100 0.400000100
      vertex 4.000000000 4.000000100 0.400000100
      vertex 4.000000000 4.300000100 0.000000100
    endloop
  endfacet
  facet normal -1 0 -0
    outer loop
      vertex 8.000000000 4.000000100 0.400000100
      vertex 8.000000000 4.300000100 0.000000100
      vertex 8.000000000 2.200000100 0.000000100
    endloop
  endfacet
  facet normal -1 -0 0
    outer loop
      vertex 8.000000000 4.000000100 0.400000100
      vertex 8.000000000 2.200000100 0.000000100
      vertex 8.000000000 1.900000100 0.400000100
    endloop
  endfacet
  facet normal -1 0 9.06304509898e-17
    outer loop
      vertex 8.000000000 4.000000100 20.000000100
      vertex 8.000000000 1.900000100 0.400000100
      vertex 8.000000000 1.900000100 20.000000100
    endloop
  endfacet
  facet normal -1 0 9.06304509898e-17
    outer loop
      vertex 8.000000000 4.000000100 20.000000100
      vertex 8.000000000 4.000000100 0.400000100
      vertex 8.000000000 1.900000100 0.400000100
    endloop
  endfacet
  facet normal -6.93889390391e-17 -0.8 -0.6
    outer loop
      vertex 10.000000000 1.900000100 0.400000100
      vertex 8.000000000 2.200000100 0.000000100
      vertex 10.000000000 2.200000100 0.000000100
    endloop
  endfacet
  facet normal -6.66133814775e-17 -0.8 -0.6
    outer loop
      vertex 10.000000000 1.900000100 0.400000100
      vertex 8.000000000 1.900000100 0.400000100
      vertex 8.000000000 2.200000100 0.000000100
    endloop
  endfacet
  facet normal 1 0 0
    outer loop
      vertex 10.000000000 12.100000100 0.400000100
      vertex 10.000000000 2.200000100 0.000000100
      vertex 10.000000000 11.800000100 0.000000100
    endloop
  endfacet
  facet normal 1 0 0
    outer loop
      vertex 10.000000000 12.100000100 0.400000100
      vertex 10.000000000 1.900000100 0.400000100
      vertex 10.000000000 2.200000100 0.000000100
    endloop
  endfacet
  facet normal 1 0 -9.06304509898e-17
    outer loop
      vertex 10.000000000 12.100000100 20.000000100
      vertex 10.000000000 1.900000100 20.000000100
      vertex 10.000000000 1.900000100 0.400000100
    endloop
  endfacet
  facet normal 1 0 -9.06304509898e-17
    outer loop
      vertex 10.000000000 12.100000100 20.000000100
      vertex 10.000000000 1.900000100 0.400000100
      vertex 10.000000000 12.100000100 0.400000100
    endloop
  endfacet
  facet normal -5.55111512313e-17 0.8 -0.6
    outer loop
      vertex 8.000000000 12.100000100 0.400000100
      vertex 10.000000000 11.800000100 0.000000100
      vertex 8.000000000 11.800000100 0.000000100
    endloop
  endfacet
  facet normal -6.66133814775e-17 0.8 -0.6
    outer loop
      vertex 8.000000000 12.100000100 0.400000100
      vertex 10.000000000 12.100000100 0.400000100
      vertex 10.000000000 11.800000100 0.000000100
    endloop
  endfacet
  facet normal -1 0 0
    outer loop
      vertex 8.000000000 11.800000100 0.000000100
      vertex 8.000000000 9.700000100 0.000000100
      vertex 8.000000000 10.000000100 0.400000100
    endloop
  endfacet
  facet normal -1 -0 0
    outer loop
      vertex 8.000000000 12.100000100 0.400000100
      vertex 8.000000000 11.800000100 0.000000100
      vertex 8.000000000 10.000000100 0.400000100
    endloop
  endfacet
  facet normal -1 0 9.06304509898e-17
    outer loop
      vertex 8.000000000 12.100000100 20.000000100
      vertex 8.000000000 10.000000100 0.400000100
      vertex 8.000000000 10.000000100 20.000000100
    endloop
  endfacet
  facet normal -1 0 9.06304509898e-17
    outer loop
      vertex 8.000000000 12.100000100 20.000000100
      vertex 8.000000000 12.100000100 0.400000100
      vertex 8.000000000 10.000000100 0.400000100
    endloop
  endfacet
  facet normal -6.24500451352e-17 0.8 -0.6
    outer loop
      vertex 4.000000000 10.000000100 0.400000100
      vertex 8.000000000 9.700000100 0.000000100
      vertex 4.000000000 9.700000100 0.000000100
    endloop
  endfacet
  facet normal -6.66133814775e-17 0.8 -0.6
    outer loop
      vertex 4.000000000 10.000000100 0.400000100
      vertex 8.000000000 10.000000100 0.400000100
      vertex 8.000000000 9.700000100 0.000000100
    endloop
  endfacet
  facet normal 1 0 0
    outer loop
      vertex 4.000000000 14.000000100 0.000000100
      vertex 4.000000000 10.000000100 0.400000100
      vertex 4.000000000 9.700000100 0.000000100
    endloop
  endfacet
  facet normal 1 0 -9.06304509898e-17
    outer loop
      vertex 4.000000000 14.000000100 20.000000100
      vertex 4.000000000 10.000000100 20.000000100
      vertex 4.000000000 10.000000100 0.400000100
    endloop
  endfacet
  facet normal 1 -8.881784197e-18 -8.881784197e-17
    outer loop
      vertex 4.000000000 14.000000100 20.000000100
      vertex 4.000000000 10.000000100 0.400000100
      vertex 4.000000000 14.000000100 0.000000100
    endloop
  endfacet
  facet normal 0 1 0
    outer loop
      vertex 4.000000000 14.000000100 20.000000100
      vertex 4.000000000 14.000000100 0.000000100
      vertex 0.000000000 14.000000100 0.000000100
    endloop
  endfacet
  facet normal -0 1 0
    outer loop
      vertex 0.000000000 14.000000100 20.000000100
      vertex 4.000000000 14.000000100 20.000000100
      vertex 0.000000000 14.000000100 0.000000100
    endloop
  endfacet
  facet normal -1 0 1.11022302463e-16
    outer loop
      vertex 0.000000000 14.000000100 20.000000100
      vertex 0.000000000 14.000000100 0.000000100
      vertex 0.000000000 0.000000100 0.000000100
    endloop
  endfacet
  facet normal -1 0 1.11022302463e-16
    outer loop
      vertex 0.000000000 14.000000100 20.000000100
      vertex 0.000000000 0.000000100 0.000000100
      vertex 0.000000000 0.000000100 20.000000100
    endloop
  endfacet
  facet normal 0 0 1
    outer loop
      vertex 8.000000000 10.000000100 20.000000100
      vertex 10.000000000 12.100000100 20.000000100
      vertex 8.000000000 12.100000100 20.000000100
    endloop
  endfacet
  facet normal 0 -0 1
    outer loop
      vertex 4.000000000 10.000000100 20.000000100
      vertex 4.000000000 14.000000100 20.000000100
      vertex 0.000000000 14.000000100 20.000000100
    endloop
  endfacet
  facet normal 0 0 1
    outer loop
      vertex 8.000000000 4.000000100 20.000000100
      vertex 10.000000000 12.100000100 20.000000100
      vertex 8.000000000 10.000000100 20.000000100
    endloop
  endfacet
  facet normal 0 -0 1
    outer loop
      vertex 10.000000000 1.900000100 20.000000100
      vertex 10.000000000 12.100000100 20.000000100
      vertex 8.000000000 4.000000100 20.000000100
    endloop
  endfacet
  facet normal 0 0 1
    outer loop
      vertex 8.000000000 1.900000100 20.000000100
      vertex 10.000000000 1.900000100 20.000000100
      vertex 8.000000000 4.000000100 20.000000100
    endloop
  endfacet
  facet normal 0 0 1
    outer loop
      vertex 4.000000000 4.000000100 20.000000100
      vertex 8.000000000 10.000000100 20.000000100
      vertex 4.000000000 10.000000100 20.000000100
    endloop
  endfacet
  facet normal 0 0 1
    outer loop
      vertex 4.000000000 4.000000100 20.000000100
      vertex 8.000000000 4.000000100 20.000000100
      vertex 8.000000000 10.000000100 20.000000100
    endloop
  endfacet
  facet normal 0 0 1
    outer loop
      vertex 0.000000000 0.000000100 20.000000100
      vertex 4.000000000 0.000000100 20.000000100
      vertex 4.000000000 4.000000100 20.000000100
    endloop
  endfacet
  facet normal 0 0 1
    outer loop
      vertex 0.000000000 0.000000100 20.000000100
      vertex 4.000000000 4.000000100 20.000000100
      vertex 4.000000000 10.000000100 20.000000100
    endloop
  endfacet
  facet normal 0 0 1
    outer loop
      vertex 0.000000000 0.000000100 20.000000100
      vertex 4.000000000 10.000000100 20.000000100
      vertex 0.000000000 14.000000100 20.000000100
    endloop
  endfacet
  facet normal 0 -1 0
    outer loop
      vertex 4.000000000 4.000000100 20.000000100
      vertex 8.000000000 4.000000100 0.400000100
      vertex 8.000000000 4.000000100 20.000000100
    endloop
  endfacet
  facet normal 0 -1 -0
    outer loop
      vertex 4.000000000 4.000000100 20.000000100
      vertex 4.000000000 4.000000100 0.400000100
      vertex 8.000000000 4.000000100 0.400000100
    endloop
  endfacet
  facet normal 0 -1 0
    outer loop
      vertex 10.000000000 1.900000100 20.000000100
      vertex 8.000000000 1.900000100 0.400000100
      vertex 10.000000000 1.900000100 0.400000100
    endloop
  endfacet
  facet normal 0 -1 -0
    outer loop
      vertex 8.000000000 1.900000100 20.000000100
      vertex 8.000000000 1.900000100 0.400000100
      vertex 10.000000000 1.900000100 20.000000100
    endloop
  endfacet
  facet normal 0 1 0
    outer loop
      vertex 10.000000000 12.100000100 20.000000100
      vertex 10.000000000 12.100000100 0.400000100
      vertex 8.000000000 12.100000100 0.400000100
    endloop
  endfacet
  facet normal -0 1 0
    outer loop
      vertex 8.000000000 12.100000100 20.000000100
      vertex 10.000000000 12.100000100 20.000000100
      vertex 8.000000000 12.100000100 0.400000100
    endloop
  endfacet
  facet normal -0 1 0
    outer loop
      vertex 4.000000000 10.000000100 20.000000100
      vertex 8.000000000 10.000000100 20.000000100
      vertex 8.000000000 10.000000100 0.400000100
    endloop
  endfacet
  facet normal 0 1 0
    outer loop
      vertex 4.000000000 10.000000100 20.000000100
      vertex 8.000000000 10.000000100 0.400000100
      vertex 4.000000000 10.000000100 0.400000100
    endloop
  endfacet
  facet normal 1 0 0
    outer loop
      vertex 4.000000000 4.775000100 8.275000100
      vertex 4.000000000 4.500000100 8.000000100
      vertex 4.000000000 4.500000100 7.725000100
    endloop
  endfacet
  facet normal 1 0 0
    outer loop
      vertex 4.000000000 4.775000100 8.275000100
      vertex 4.000000000 4.225000100 8.000000100
      vertex 4.000000000 4.500000100 8.000000100
    endloop
  endfacet
  facet normal 1 1.11022302463e-16 -2.22044604925e-16
    outer loop
      vertex 4.000000000 4.225000100 12.000000100
      vertex 4.000000000 4.225000100 8.000000100
      vertex 4.000000000 4.775000100 8.275000100
    endloop
  endfacet
  facet normal 1 0 -2.38437159651e-16
    outer loop
      vertex 4.000000000 4.775000100 12.000000100
      vertex 4.000000000 4.225000100 12.000000100
      vertex 4.000000000 4.775000100 8.275000100
    endloop
  endfacet
  facet normal 1 0 0
    outer loop
      vertex 4.000000000 9.225000100 8.275000100
      vertex 4.000000000 9.500000100 7.725000100
      vertex 4.000000000 9.500000100 8.000000100
    endloop
  endfacet
  facet normal 1 0 0
    outer loop
      vertex 4.000000000 9.225000100 8.275000100
      vertex 4.000000000 4.500000100 7.725000100
      vertex 4.000000000 9.500000100 7.725000100
    endloop
  endfacet
  facet normal 1 0 0
    outer loop
      vertex 4.000000000 9.225000100 8.275000100
      vertex 4.000000000 4.775000100 8.275000100
      vertex 4.000000000 4.500000100 7.725000100
    endloop
  endfacet
  facet normal 1 0 0
    outer loop
      vertex 4.000000000 9.775000100 8.000000100
      vertex 4.000000000 9.225000100 8.275000100
      vertex 4.000000000 9.500000100 8.000000100
    endloop
  endfacet
  facet normal 1 0 -2.38437159651e-16
    outer loop
      vertex 4.000000000 9.775000100 12.000000100
      vertex 4.000000000 9.225000100 12.000000100
      vertex 4.000000000 9.225000100 8.275000100
    endloop
  endfacet
  facet normal 1 -1.11022302463e-16 -2.22044604925e-16
    outer loop
      vertex 4.000000000 9.775000100 12.000000100
      vertex 4.000000000 9.225000100 8.275000100
      vertex 4.000000000 9.775000100 8.000000100
    endloop
  endfacet
  facet normal -0 1 0
    outer loop
      vertex 4.000000000 4.500000100 8.000000100
      vertex 4.600000000 4.500000100 8.000000100
      vertex 4.600000000 4.500000100 7.725000100
    endloop
  endfacet
  facet normal 0 1 0
    outer loop
      vertex 4.000000000 4.500000100 8.000000100
      vertex 4.600000000 4.500000100 7.725000100
      vertex 4.000000000 4.500000100 7.725000100
    endloop
  endfacet
  facet normal 0 0 1
    outer loop
      vertex 4.000000000 4.225000100 8.000000100
      vertex 4.600000000 4.225000100 8.000000100
      vertex 4.600000000 4.500000100 8.000000100
    endloop
  endfacet
  facet normal 0 0 1
    outer loop
      vertex 4.000000000 4.225000100 8.000000100
      vertex 4.600000000 4.500000100 8.000000100
      vertex 4.000000000 4.500000100 8.000000100
    endloop
  endfacet
  facet normal -0 1 0
    outer loop
      vertex 4.000000000 4.225000100 12.000000100
      vertex 4.600000000 4.225000100 12.000000100
      vertex 4.600000000 4.225000100 8.000000100
    endloop
  endfacet
  facet normal 0 1 0
    outer loop
      vertex 4.000000000 4.225000100 12.000000100
      vertex 4.600000000 4.225000100 8.000000100
      vertex 4.000000000 4.225000100 8.000000100
    endloop
  endfacet
  facet normal 0 0 -1
    outer loop
      vertex 4.000000000 4.225000100 12.000000100
      vertex 4.600000000 4.775000100 12.000000100
      vertex 4.600000000 4.225000100 12.000000100
    endloop
  endfacet
  facet normal 0 0 -1
    outer loop
      vertex 4.000000000 4.225000100 12.000000100
      vertex 4.000000000 4.775000100 12.000000100
      vertex 4.600000000 4.775000100 12.000000100
    endloop
  endfacet
  facet normal 0 -1 0
    outer loop
      vertex 4.000000000 4.775000100 12.000000100
      vertex 4.600000000 4.775000100 8.275000100
      vertex 4.600000000 4.775000100 12.000000100
    endloop
  endfacet
  facet normal 0 -1 -0
    outer loop
      vertex 4.000000000 4.775000100 12.000000100
      vertex 4.000000000 4.775000100 8.275000100
      vertex 4.600000000 4.775000100 8.275000100
    endloop
  endfacet
  facet normal 0 -0 -1
    outer loop
      vertex 4.600000000 9.225000100 8.275000100
      vertex 4.600000000 4.775000100 8.275000100
      vertex 4.000000000 4.775000100 8.275000100
    endloop
  endfacet
  facet normal 0 0 -1
    outer loop
      vertex 4.000000000 9.225000100 8.275000100
      vertex 4.600000000 9.225000100 8.275000100
      vertex 4.000000000 4.775000100 8.275000100
    endloop
  endfacet
  facet normal 0 1 -4.76874319302e-16
    outer loop
      vertex 4.000000000 9.225000100 12.000000100
      vertex 4.600000000 9.225000100 12.000000100
      vertex 4.600000000 9.225000100 8.275000100
    endloop
  endfacet
  facet normal 0 1 -4.76874319302e-16
    outer loop
      vertex 4.000000000 9.225000100 12.000000100
      vertex 4.600000000 9.225000100 8.275000100
      vertex 4.000000000 9.225000100 8.275000100
    endloop
  endfacet
  facet normal 0 0 -1
    outer loop
      vertex 4.000000000 9.225000100 12.000000100
      vertex 4.600000000 9.775000100 12.000000100
      vertex 4.600000000 9.225000100 12.000000100
    endloop
  endfacet
  facet normal 0 0 -1
    outer loop
      vertex 4.000000000 9.225000100 12.000000100
      vertex 4.000000000 9.775000100 12.000000100
      vertex 4.600000000 9.775000100 12.000000100
    endloop
  endfacet
  facet normal 0 -1 0
    outer loop
      vertex 4.000000000 9.775000100 12.000000100
      vertex 4.600000000 9.775000100 8.000000100
      vertex 4.600000000 9.775000100 12.000000100
    endloop
  endfacet
  facet normal 0 -1 -0
    outer loop
      vertex 4.000000000 9.775000100 12.000000100
      vertex 4.000000000 9.775000100 8.000000100
      vertex 4.600000000 9.775000100 8.000000100
    endloop
  endfacet
  facet normal 0 0 1
    outer loop
      vertex 4.000000000 9.500000100 8.000000100
      vertex 4.600000000 9.500000100 8.000000100
      vertex 4.600000000 9.775000100 8.000000100
    endloop
  endfacet
  facet normal 0 0 1
    outer loop
      vertex 4.000000000 9.500000100 8.000000100
      vertex 4.600000000 9.775000100 8.000000100
      vertex 4.000000000 9.775000100 8.000000100
    endloop
  endfacet
  facet normal 0 -1 0
    outer loop
      vertex 4.000000000 9.500000100 8.000000100
      vertex 4.600000000 9.500000100 7.725000100
      vertex 4.600000000 9.500000100 8.000000100
    endloop
  endfacet
  facet normal 0 -1 0
    outer loop
      vertex 4.000000000 9.500000100 8.000000100
      vertex 4.000000000 9.500000100 7.725000100
      vertex 4.600000000 9.500000100 7.725000100
    endloop
  endfacet
  facet normal 0 -1.7763568394e-16 1
    outer loop
      vertex 4.000000000 9.500000100 7.725000100
      vertex 4.600000000 4.500000100 7.725000100
      vertex 4.600000000 9.500000100 7.725000100
    endloop
  endfacet
  facet normal 0 -1.7763568394e-16 1
    outer loop
      vertex 4.000000000 9.500000100 7.725000100
      vertex 4.000000000 4.500000100 7.725000100
      vertex 4.600000000 4.500000100 7.725000100
    endloop
  endfacet
  facet normal -1 -1.11022302463e-16 2.22044604925e-16
    outer loop
      vertex 4.600000000 4.775000100 8.275000100
      vertex 4.600000000 4.225000100 8.000000100
      vertex 4.600000000 4.225000100 12.000000100
    endloop
  endfacet
  facet normal -1 0 2.38437159651e-16
    outer loop
      vertex 4.600000000 4.775000100 8.275000100
      vertex 4.600000000 4.225000100 12.000000100
      vertex 4.600000000 4.775000100 12.000000100
    endloop
  endfacet
  facet normal -1 0 0
    outer loop
      vertex 4.600000000 4.500000100 8.000000100
      vertex 4.600000000 4.225000100 8.000000100
      vertex 4.600000000 4.775000100 8.275000100
    endloop
  endfacet
  facet normal -1 0 0
    outer loop
      vertex 4.600000000 4.500000100 7.725000100
      vertex 4.600000000 4.500000100 8.000000100
      vertex 4.600000000 4.775000100 8.275000100
    endloop
  endfacet
  facet normal -1 0 2.38437159651e-16
    outer loop
      vertex 4.600000000 9.225000100 8.275000100
      vertex 4.600000000 9.225000100 12.000000100
      vertex 4.600000000 9.775000100 12.000000100
    endloop
  endfacet
  facet normal -1 1.11022302463e-16 2.22044604925e-16
    outer loop
      vertex 4.600000000 9.775000100 8.000000100
      vertex 4.600000000 9.225000100 8.275000100
      vertex 4.600000000 9.775000100 12.000000100
    endloop
  endfacet
  facet normal -1 0 0
    outer loop
      vertex 4.600000000 9.775000100 8.000000100
      vertex 4.600000000 9.500000100 8.000000100
      vertex 4.600000000 9.225000100 8.275000100
    endloop
  endfacet
  facet normal -1 0 0
    outer loop
      vertex 4.600000000 9.500000100 7.725000100
      vertex 4.600000000 4.775000100 8.275000100
      vertex 4.600000000 9.225000100 8.275000100
    endloop
  endfacet
  facet normal -1 -0 0
    outer loop
      vertex 4.600000000 9.500000100 7.725000100
      vertex 4.600000000 4.500000100 7.725000100
      vertex 4.600000000 4.775000100 8.275000100
    endloop
  endfacet
  facet normal -1 0 0
    outer loop
      vertex 4.600000000 9.500000100 7.725000100
      vertex 4.600000000 9.225000100 8.275000100
      vertex 4.600000000 9.500000100 8.000000100
    endloop
  endfacet
endsolid P25_SLIDE_IN_POSITIONING_V002
