solid P25_SLIDE_IN_POSITIONING_V002
  facet normal -1.11022302463e-16 0 -1
    outer loop
      vertex 11.900000000 11.600000100 0.000000100
      vertex 11.900000000 13.700000100 0.000000100
      vertex 13.900000000 13.700000100 0.000000100
    endloop
  endfacet
  facet normal -1.11022302463e-16 0 -1
    outer loop
      vertex 13.900000000 4.300000100 0.000000100
      vertex 11.900000000 11.600000100 0.000000100
      vertex 13.900000000 13.700000100 0.000000100
    endloop
  endfacet
  facet normal -1.11022302463e-16 0 -1
    outer loop
      vertex 13.900000000 4.300000100 0.000000100
      vertex 11.900000000 6.400000100 0.000000100
      vertex 11.900000000 11.600000100 0.000000100
    endloop
  endfacet
  facet normal -1.11022302463e-16 0 -1
    outer loop
      vertex 0.000000000 18.000000100 0.000000100
      vertex 8.000000000 18.000000100 0.000000100
      vertex 8.000000000 11.600000100 0.000000100
    endloop
  endfacet
  facet normal -1.11022302463e-16 0 -1
    outer loop
      vertex 11.900000000 4.300000100 0.000000100
      vertex 11.900000000 6.400000100 0.000000100
      vertex 13.900000000 4.300000100 0.000000100
    endloop
  endfacet
  facet normal -1.11022301784e-16 0 -1
    outer loop
      vertex 8.000000000 6.400000100 0.000000100
      vertex 8.000000000 11.600000100 0.000000100
      vertex 11.900000000 11.600000100 0.000000100
    endloop
  endfacet
  facet normal -1.11022301784e-16 0 -1
    outer loop
      vertex 8.000000000 6.400000100 0.000000100
      vertex 11.900000000 11.600000100 0.000000100
      vertex 11.900000000 6.400000100 0.000000100
    endloop
  endfacet
  facet normal -1.11022302463e-16 0 -1
    outer loop
      vertex 0.000000000 0.000000100 0.000000100
      vertex 8.000000000 6.400000100 0.000000100
      vertex 8.000000000 0.000000100 0.000000100
    endloop
  endfacet
  facet normal -1.11022302463e-16 0 -1
    outer loop
      vertex 0.000000000 0.000000100 0.000000100
      vertex 8.000000000 11.600000100 0.000000100
      vertex 8.000000000 6.400000100 0.000000100
    endloop
  endfacet
  facet normal -1.11022302463e-16 0 -1
    outer loop
      vertex 0.000000000 0.000000100 0.000000100
      vertex 0.000000000 18.000000100 0.000000100
      vertex 8.000000000 11.600000100 0.000000100
    endloop
  endfacet
  facet normal 0 -1 0
    outer loop
      vertex 0.000000000 0.000000100 25.000000100
      vertex 8.000000000 0.000000100 0.000000100
      vertex 8.000000000 0.000000100 25.000000100
    endloop
  endfacet
  facet normal 0 -1 -0
    outer loop
      vertex 0.000000000 0.000000100 25.000000100
      vertex 0.000000000 0.000000100 0.000000100
      vertex 8.000000000 0.000000100 0.000000100
    endloop
  endfacet
  facet normal 1 0 0
    outer loop
      vertex 8.000000000 6.100000100 0.400000100
      vertex 8.000000000 0.000000100 0.000000100
      vertex 8.000000000 6.400000100 0.000000100
    endloop
  endfacet
  facet normal 1 9.31859325587e-18 -1.42108547152e-16
    outer loop
      vertex 8.000000000 0.000000100 25.000000100
      vertex 8.000000000 0.000000100 0.000000100
      vertex 8.000000000 6.100000100 0.400000100
    endloop
  endfacet
  facet normal 1 0 -1.44419255236e-16
    outer loop
      vertex 8.000000000 6.100000100 25.000000100
      vertex 8.000000000 0.000000100 25.000000100
      vertex 8.000000000 6.100000100 0.400000100
    endloop
  endfacet
  facet normal -6.40513283438e-17 -0.8 -0.6
    outer loop
      vertex 11.900000000 6.100000100 0.400000100
      vertex 8.000000000 6.400000100 0.000000100
      vertex 11.900000000 6.400000100 0.000000100
    endloop
  endfacet
  facet normal -4.27008855625e-17 -0.8 -0.6
    outer loop
      vertex 11.900000000 6.100000100 0.400000100
      vertex 8.000000000 6.100000100 0.400000100
      vertex 8.000000000 6.400000100 0.000000100
    endloop
  endfacet
  facet normal -1 0 -0
    outer loop
      vertex 11.900000000 6.100000100 0.400000100
      vertex 11.900000000 6.400000100 0.000000100
      vertex 11.900000000 4.300000100 0.000000100
    endloop
  endfacet
  facet normal -1 0 0
    outer loop
      vertex 11.900000000 6.100000100 0.400000100
      vertex 11.900000000 4.300000100 0.000000100
      vertex 11.900000000 4.000000100 0.400000100
    endloop
  endfacet
  facet normal -1 0 7.22096276179e-17
    outer loop
      vertex 11.900000000 4.000000100 25.000000100
      vertex 11.900000000 6.100000100 0.400000100
      vertex 11.900000000 4.000000100 0.400000100
    endloop
  endfacet
  facet normal -1 0 7.22096276179e-17
    outer loop
      vertex 11.900000000 6.100000100 25.000000100
      vertex 11.900000000 6.100000100 0.400000100
      vertex 11.900000000 4.000000100 25.000000100
    endloop
  endfacet
  facet normal -6.93889390391e-17 -0.8 -0.6
    outer loop
      vertex 13.900000000 4.000000100 0.400000100
      vertex 11.900000000 4.300000100 0.000000100
      vertex 13.900000000 4.300000100 0.000000100
    endloop
  endfacet
  facet normal -6.66133814775e-17 -0.8 -0.6
    outer loop
      vertex 13.900000000 4.000000100 0.400000100
      vertex 11.900000000 4.000000100 0.400000100
      vertex 11.900000000 4.300000100 0.000000100
    endloop
  endfacet
  facet normal 1 0 -4.4408920985e-15
    outer loop
      vertex 13.900000000 14.000000100 0.400000100
      vertex 13.900000000 4.300000100 0.000000100
      vertex 13.900000000 13.700000100 0.000000100
    endloop
  endfacet
  facet normal 1 0 -4.4408920985e-15
    outer loop
      vertex 13.900000000 14.000000100 0.400000100
      vertex 13.900000000 4.000000100 0.400000100
      vertex 13.900000000 4.300000100 0.000000100
    endloop
  endfacet
  facet normal 1 0 0
    outer loop
      vertex 13.900000000 14.000000100 25.000000100
      vertex 13.900000000 4.000000100 25.000000100
      vertex 13.900000000 4.000000100 0.400000100
    endloop
  endfacet
  facet normal 1 0 0
    outer loop
      vertex 13.900000000 14.000000100 25.000000100
      vertex 13.900000000 4.000000100 0.400000100
      vertex 13.900000000 14.000000100 0.400000100
    endloop
  endfacet
  facet normal -5.55111512313e-17 0.8 -0.6
    outer loop
      vertex 11.900000000 14.000000100 0.400000100
      vertex 13.900000000 13.700000100 0.000000100
      vertex 11.900000000 13.700000100 0.000000100
    endloop
  endfacet
  facet normal -6.66133814775e-17 0.8 -0.6
    outer loop
      vertex 11.900000000 14.000000100 0.400000100
      vertex 13.900000000 14.000000100 0.400000100
      vertex 13.900000000 13.700000100 0.000000100
    endloop
  endfacet
  facet normal -1 0 0
    outer loop
      vertex 11.900000000 13.700000100 0.000000100
      vertex 11.900000000 11.600000100 0.000000100
      vertex 11.900000000 11.900000100 0.400000100
    endloop
  endfacet
  facet normal -1 -0 0
    outer loop
      vertex 11.900000000 14.000000100 0.400000100
      vertex 11.900000000 13.700000100 0.000000100
      vertex 11.900000000 11.900000100 0.400000100
    endloop
  endfacet
  facet normal -1 0 7.22096276179e-17
    outer loop
      vertex 11.900000000 14.000000100 25.000000100
      vertex 11.900000000 11.900000100 0.400000100
      vertex 11.900000000 11.900000100 25.000000100
    endloop
  endfacet
  facet normal -1 0 7.22096276179e-17
    outer loop
      vertex 11.900000000 14.000000100 25.000000100
      vertex 11.900000000 14.000000100 0.400000100
      vertex 11.900000000 11.900000100 0.400000100
    endloop
  endfacet
  facet normal -6.40513283438e-17 0.8 -0.6
    outer loop
      vertex 8.000000000 11.900000100 0.400000100
      vertex 11.900000000 11.600000100 0.000000100
      vertex 8.000000000 11.600000100 0.000000100
    endloop
  endfacet
  facet normal -4.27008855625e-17 0.8 -0.6
    outer loop
      vertex 8.000000000 11.900000100 0.400000100
      vertex 11.900000000 11.900000100 0.400000100
      vertex 11.900000000 11.600000100 0.000000100
    endloop
  endfacet
  facet normal 1 0 0
    outer loop
      vertex 8.000000000 18.000000100 0.000000100
      vertex 8.000000000 11.900000100 0.400000100
      vertex 8.000000000 11.600000100 0.000000100
    endloop
  endfacet
  facet normal 1 0 -1.44419255236e-16
    outer loop
      vertex 8.000000000 18.000000100 25.000000100
      vertex 8.000000000 11.900000100 25.000000100
      vertex 8.000000000 11.900000100 0.400000100
    endloop
  endfacet
  facet normal 1 -9.31859325587e-18 -1.42108547152e-16
    outer loop
      vertex 8.000000000 18.000000100 25.000000100
      vertex 8.000000000 11.900000100 0.400000100
      vertex 8.000000000 18.000000100 0.000000100
    endloop
  endfacet
  facet normal -0 1 0
    outer loop
      vertex 0.000000000 18.000000100 25.000000100
      vertex 8.000000000 18.000000100 25.000000100
      vertex 8.000000000 18.000000100 0.000000100
    endloop
  endfacet
  facet normal 0 1 0
    outer loop
      vertex 0.000000000 18.000000100 25.000000100
      vertex 8.000000000 18.000000100 0.000000100
      vertex 0.000000000 18.000000100 0.000000100
    endloop
  endfacet
  facet normal -1 0 0
    outer loop
      vertex 0.000000000 8.550000100 7.400000100
      vertex 0.000000000 5.750000100 9.000000100
      vertex 0.000000000 6.250000100 9.000000100
    endloop
  endfacet
  facet normal -1 4.13106241721e-17 7.22935923012e-17
    outer loop
      vertex 0.000000000 8.550000100 7.400000100
      vertex 0.000000000 0.000000100 0.000000100
      vertex 0.000000000 5.750000100 9.000000100
    endloop
  endfacet
  facet normal -1 5.56851673793e-17 5.56851673793e-17
    outer loop
      vertex 0.000000000 8.550000100 7.400000100
      vertex 0.000000000 8.800000100 7.150000100
      vertex 0.000000000 0.000000100 0.000000100
    endloop
  endfacet
  facet normal -1 -0 0
    outer loop
      vertex 0.000000000 8.800000100 7.400000100
      vertex 0.000000000 8.800000100 7.150000100
      vertex 0.000000000 8.550000100 7.400000100
    endloop
  endfacet
  facet normal -1 0 1.24220758e-16
    outer loop
      vertex 0.000000000 18.000000100 0.000000100
      vertex 0.000000000 0.000000100 0.000000100
      vertex 0.000000000 8.800000100 7.150000100
    endloop
  endfacet
  facet normal -1 -4.59709152227e-32 1.24220758e-16
    outer loop
      vertex 0.000000000 11.200000100 7.150000100
      vertex 0.000000000 18.000000100 0.000000100
      vertex 0.000000000 8.800000100 7.150000100
    endloop
  endfacet
  facet normal -1 -0 0
    outer loop
      vertex 0.000000000 11.450000100 7.400000100
      vertex 0.000000000 11.200000100 7.150000100
      vertex 0.000000000 11.200000100 7.400000100
    endloop
  endfacet
  facet normal -1 0 -0
    outer loop
      vertex 0.000000000 8.550000100 10.600000100
      vertex 0.000000000 8.550000100 7.400000100
      vertex 0.000000000 6.250000100 9.000000100
    endloop
  endfacet
  facet normal -1 -3.56203650394e-17 1.2144394652e-16
    outer loop
      vertex 0.000000000 4.335599187 15.898630842
      vertex 0.000000000 5.750000100 9.000000100
      vertex 0.000000000 0.000000100 0.000000100
    endloop
  endfacet
  facet normal -1 2.59999886527e-16 1.8205388048e-16
    outer loop
      vertex 0.000000000 4.335599187 15.898630842
      vertex 0.000000000 5.654824991 14.014581140
      vertex 0.000000000 5.750000100 9.000000100
    endloop
  endfacet
  facet normal -1 -1.30059806663e-17 1.1185143373e-16
    outer loop
      vertex 0.000000000 13.350000100 7.400000100
      vertex 0.000000000 18.000000100 0.000000100
      vertex 0.000000000 11.200000100 7.150000100
    endloop
  endfacet
  facet normal -1 -0 0
    outer loop
      vertex 0.000000000 13.350000100 7.400000100
      vertex 0.000000000 11.200000100 7.150000100
      vertex 0.000000000 11.450000100 7.400000100
    endloop
  endfacet
  facet normal -1 0 4.93432455389e-16
    outer loop
      vertex 0.000000000 8.550000100 12.400000100
      vertex 0.000000000 9.050000100 10.600000100
      vertex 0.000000000 8.550000100 10.600000100
    endloop
  endfacet
  facet normal -1 1.27925386401e-16 1.74691185582e-16
    outer loop
      vertex 0.000000000 8.550000100 12.400000100
      vertex 0.000000000 6.250000100 9.000000100
      vertex 0.000000000 6.345175209 14.014581140
    endloop
  endfacet
  facet normal -1 -3.43257360271e-16 4.93432455389e-16
    outer loop
      vertex 0.000000000 8.550000100 12.400000100
      vertex 0.000000000 8.550000100 10.600000100
      vertex 0.000000000 6.250000100 9.000000100
    endloop
  endfacet
  facet normal -1 0 1.2002411077e-16
    outer loop
      vertex 0.000000000 13.850000100 7.400000100
      vertex 0.000000000 18.000000100 0.000000100
      vertex 0.000000000 13.350000100 7.400000100
    endloop
  endfacet
  facet normal -1 0 4.93432455389e-16
    outer loop
      vertex 0.000000000 9.050000100 12.400000100
      vertex 0.000000000 9.050000100 10.600000100
      vertex 0.000000000 8.550000100 12.400000100
    endloop
  endfacet
  facet normal -1 0 -0
    outer loop
      vertex 0.000000000 10.950000100 10.600000100
      vertex 0.000000000 10.950000100 7.650000100
      vertex 0.000000000 9.050000100 7.650000100
    endloop
  endfacet
  facet normal -1 -0 0
    outer loop
      vertex 0.000000000 10.950000100 10.600000100
      vertex 0.000000000 9.050000100 7.650000100
      vertex 0.000000000 9.050000100 10.600000100
    endloop
  endfacet
  facet normal -1 -0 -0
    outer loop
      vertex 0.000000000 5.750000100 16.000000100
      vertex 0.000000000 5.750000100 14.750380395
      vertex 0.000000000 4.745175209 16.185419060
    endloop
  endfacet
  facet normal -1 0 -0
    outer loop
      vertex 0.000000000 11.200000100 10.850000100
      vertex 0.000000000 11.200000100 10.600000100
      vertex 0.000000000 10.950000100 10.600000100
    endloop
  endfacet
  facet normal -1 0 0
    outer loop
      vertex 0.000000000 6.250000100 16.000000100
      vertex 0.000000000 5.750000100 16.000000100
      vertex 0.000000000 4.745175209 16.185419060
    endloop
  endfacet
  facet normal -1 0 4.93432455389e-16
    outer loop
      vertex 0.000000000 10.950000100 12.400000100
      vertex 0.000000000 9.050000100 10.600000100
      vertex 0.000000000 9.050000100 12.400000100
    endloop
  endfacet
  facet normal -1 0 4.93432455389e-16
    outer loop
      vertex 0.000000000 10.950000100 12.400000100
      vertex 0.000000000 10.950000100 10.600000100
      vertex 0.000000000 9.050000100 10.600000100
    endloop
  endfacet
  facet normal -1 -6.83214169e-16 6.83214169e-16
    outer loop
      vertex 0.000000000 11.200000100 12.150000100
      vertex 0.000000000 11.200000100 10.850000100
      vertex 0.000000000 10.950000100 10.600000100
    endloop
  endfacet
  facet normal -1 4.93432455389e-16 4.93432455389e-16
    outer loop
      vertex 0.000000000 11.200000100 12.150000100
      vertex 0.000000000 10.950000100 10.600000100
      vertex 0.000000000 10.950000100 12.400000100
    endloop
  endfacet
  facet normal -1 -0 0
    outer loop
      vertex 0.000000000 7.254824991 16.185419060
      vertex 0.000000000 6.250000100 16.000000100
      vertex 0.000000000 4.745175209 16.185419060
    endloop
  endfacet
  facet normal -1 0 0
    outer loop
      vertex 0.000000000 7.254824991 16.185419060
      vertex 0.000000000 6.250000100 14.750380395
      vertex 0.000000000 6.250000100 16.000000100
    endloop
  endfacet
  facet normal -1 -0 -0
    outer loop
      vertex 0.000000000 11.200000100 12.400000100
      vertex 0.000000000 11.200000100 12.150000100
      vertex 0.000000000 10.950000100 12.400000100
    endloop
  endfacet
  facet normal -1 0 -0
    outer loop
      vertex 0.000000000 13.350000100 10.350000100
      vertex 0.000000000 13.350000100 7.400000100
      vertex 0.000000000 11.450000100 7.400000100
    endloop
  endfacet
  facet normal -1 -0 0
    outer loop
      vertex 0.000000000 13.350000100 10.350000100
      vertex 0.000000000 11.450000100 7.400000100
      vertex 0.000000000 11.450000100 10.350000100
    endloop
  endfacet
  facet normal -1 -0 0
    outer loop
      vertex 0.000000000 8.550000100 15.600000100
      vertex 0.000000000 6.345175209 14.014581140
      vertex 0.000000000 7.664401013 15.898630842
    endloop
  endfacet
  facet normal -1 0 -0
    outer loop
      vertex 0.000000000 8.550000100 15.600000100
      vertex 0.000000000 8.550000100 12.400000100
      vertex 0.000000000 6.345175209 14.014581140
    endloop
  endfacet
  facet normal -1 -1.0113601349e-30 6.83214169e-16
    outer loop
      vertex 0.000000000 13.600000100 10.850000100
      vertex 0.000000000 11.200000100 10.850000100
      vertex 0.000000000 11.200000100 12.150000100
    endloop
  endfacet
  facet normal -1 -2.14018896313e-16 -0
    outer loop
      vertex 0.000000000 13.850000100 10.600000100
      vertex 0.000000000 18.000000100 0.000000100
      vertex 0.000000000 13.850000100 7.400000100
    endloop
  endfacet
  facet normal -1 0 0
    outer loop
      vertex 0.000000000 13.850000100 10.600000100
      vertex 0.000000000 13.600000100 10.600000100
      vertex 0.000000000 13.600000100 10.850000100
    endloop
  endfacet
  facet normal -1 0 0
    outer loop
      vertex 0.000000000 8.800000100 15.850000100
      vertex 0.000000000 7.664401013 15.898630842
      vertex 0.000000000 7.254824991 16.185419060
    endloop
  endfacet
  facet normal -1 -0 0
    outer loop
      vertex 0.000000000 8.800000100 15.850000100
      vertex 0.000000000 8.550000100 15.600000100
      vertex 0.000000000 7.664401013 15.898630842
    endloop
  endfacet
  facet normal -1 0 -0
    outer loop
      vertex 0.000000000 8.800000100 15.850000100
      vertex 0.000000000 8.800000100 15.600000100
      vertex 0.000000000 8.550000100 15.600000100
    endloop
  endfacet
  facet normal -1 -5.12399744608e-17 7.31782673917e-17
    outer loop
      vertex 0.000000000 0.000000100 25.000000100
      vertex 0.000000000 4.745175209 16.185419060
      vertex 0.000000000 4.335599187 15.898630842
    endloop
  endfacet
  facet normal -1 0 1.00762408976e-16
    outer loop
      vertex 0.000000000 0.000000100 25.000000100
      vertex 0.000000000 7.254824991 16.185419060
      vertex 0.000000000 4.745175209 16.185419060
    endloop
  endfacet
  facet normal -1 1.88805169557e-17 1.06581410364e-16
    outer loop
      vertex 0.000000000 0.000000100 25.000000100
      vertex 0.000000000 4.335599187 15.898630842
      vertex 0.000000000 0.000000100 0.000000100
    endloop
  endfacet
  facet normal -1 0 6.83214169e-16
    outer loop
      vertex 0.000000000 13.600000100 12.150000100
      vertex 0.000000000 13.600000100 10.850000100
      vertex 0.000000000 11.200000100 12.150000100
    endloop
  endfacet
  facet normal -1 4.93432455389e-16 4.93432455389e-16
    outer loop
      vertex 0.000000000 13.850000100 12.400000100
      vertex 0.000000000 13.850000100 10.600000100
      vertex 0.000000000 13.600000100 10.850000100
    endloop
  endfacet
  facet normal -1 -0 0
    outer loop
      vertex 0.000000000 13.850000100 12.400000100
      vertex 0.000000000 13.600000100 12.150000100
      vertex 0.000000000 13.600000100 12.400000100
    endloop
  endfacet
  facet normal -1 -6.83214169e-16 6.83214169e-16
    outer loop
      vertex 0.000000000 13.850000100 12.400000100
      vertex 0.000000000 13.600000100 10.850000100
      vertex 0.000000000 13.600000100 12.150000100
    endloop
  endfacet
  facet normal -1 0 -0
    outer loop
      vertex 0.000000000 10.950000100 15.350000100
      vertex 0.000000000 10.950000100 12.400000100
      vertex 0.000000000 9.050000100 12.400000100
    endloop
  endfacet
  facet normal -1 -0 0
    outer loop
      vertex 0.000000000 10.950000100 15.350000100
      vertex 0.000000000 9.050000100 12.400000100
      vertex 0.000000000 9.050000100 15.350000100
    endloop
  endfacet
  facet normal -1 0 0
    outer loop
      vertex 0.000000000 11.200000100 15.850000100
      vertex 0.000000000 11.450000100 15.600000100
      vertex 0.000000000 11.200000100 15.600000100
    endloop
  endfacet
  facet normal -1 0 -0
    outer loop
      vertex 0.000000000 13.350000100 15.600000100
      vertex 0.000000000 13.350000100 12.650000100
      vertex 0.000000000 11.450000100 12.650000100
    endloop
  endfacet
  facet normal -1 -0 0
    outer loop
      vertex 0.000000000 13.350000100 15.600000100
      vertex 0.000000000 11.450000100 12.650000100
      vertex 0.000000000 11.450000100 15.600000100
    endloop
  endfacet
  facet normal -1 0 0
    outer loop
      vertex 0.000000000 13.350000100 15.600000100
      vertex 0.000000000 11.450000100 15.600000100
      vertex 0.000000000 11.200000100 15.850000100
    endloop
  endfacet
  facet normal -1 0 1.00762408976e-16
    outer loop
      vertex 0.000000000 18.000000100 25.000000100
      vertex 0.000000000 7.254824991 16.185419060
      vertex 0.000000000 0.000000100 25.000000100
    endloop
  endfacet
  facet normal -1 0 9.44870659255e-17
    outer loop
      vertex 0.000000000 18.000000100 25.000000100
      vertex 0.000000000 13.850000100 15.600000100
      vertex 0.000000000 13.350000100 15.600000100
    endloop
  endfacet
  facet normal -1 1.72961162943e-17 7.96780491577e-17
    outer loop
      vertex 0.000000000 18.000000100 25.000000100
      vertex 0.000000000 8.800000100 15.850000100
      vertex 0.000000000 7.254824991 16.185419060
    endloop
  endfacet
  facet normal -1 0 9.70686797486e-17
    outer loop
      vertex 0.000000000 18.000000100 25.000000100
      vertex 0.000000000 11.200000100 15.850000100
      vertex 0.000000000 8.800000100 15.850000100
    endloop
  endfacet
  facet normal -1 1.03892668113e-17 8.93476945774e-17
    outer loop
      vertex 0.000000000 18.000000100 25.000000100
      vertex 0.000000000 13.350000100 15.600000100
      vertex 0.000000000 11.200000100 15.850000100
    endloop
  endfacet
  facet normal -1 5.82131397972e-17 1.06581410364e-16
    outer loop
      vertex 0.000000000 18.000000100 25.000000100
      vertex 0.000000000 18.000000100 0.000000100
      vertex 0.000000000 13.850000100 10.600000100
    endloop
  endfacet
  facet normal -1 -1.28411337788e-15 4.93432455389e-16
    outer loop
      vertex 0.000000000 18.000000100 25.000000100
      vertex 0.000000000 13.850000100 10.600000100
      vertex 0.000000000 13.850000100 12.400000100
    endloop
  endfacet
  facet normal -1 2.14018896313e-16 0
    outer loop
      vertex 0.000000000 18.000000100 25.000000100
      vertex 0.000000000 13.850000100 12.400000100
      vertex 0.000000000 13.850000100 15.600000100
    endloop
  endfacet
  facet normal -1 1.22393600831e-16 1.74796177064e-16
    outer loop
      vertex 0.000000000 6.250000100 9.000000100
      vertex 0.000000000 6.250000100 14.081223469
      vertex 0.000000000 6.345175209 14.014581140
    endloop
  endfacet
  facet normal -1 -1.22393600831e-16 1.74796177064e-16
    outer loop
      vertex 0.000000000 5.654824991 14.014581140
      vertex 0.000000000 5.750000100 14.081223469
      vertex 0.000000000 5.750000100 9.000000100
    endloop
  endfacet
  facet normal 0 0 1
    outer loop
      vertex 11.900000000 11.900000100 25.000000100
      vertex 13.900000000 14.000000100 25.000000100
      vertex 11.900000000 14.000000100 25.000000100
    endloop
  endfacet
  facet normal -0 0 1
    outer loop
      vertex 0.000000000 18.000000100 25.000000100
      vertex 8.000000000 11.900000100 25.000000100
      vertex 8.000000000 18.000000100 25.000000100
    endloop
  endfacet
  facet normal 0 -0 1
    outer loop
      vertex 11.900000000 6.100000100 25.000000100
      vertex 11.900000000 11.900000100 25.000000100
      vertex 8.000000000 11.900000100 25.000000100
    endloop
  endfacet
  facet normal 0 0 1
    outer loop
      vertex 11.900000000 6.100000100 25.000000100
      vertex 13.900000000 14.000000100 25.000000100
      vertex 11.900000000 11.900000100 25.000000100
    endloop
  endfacet
  facet normal 0 -0 1
    outer loop
      vertex 13.900000000 4.000000100 25.000000100
      vertex 13.900000000 14.000000100 25.000000100
      vertex 11.900000000 6.100000100 25.000000100
    endloop
  endfacet
  facet normal 0 0 1
    outer loop
      vertex 11.900000000 4.000000100 25.000000100
      vertex 13.900000000 4.000000100 25.000000100
      vertex 11.900000000 6.100000100 25.000000100
    endloop
  endfacet
  facet normal 0 0 1
    outer loop
      vertex 8.000000000 6.100000100 25.000000100
      vertex 11.900000000 6.100000100 25.000000100
      vertex 8.000000000 11.900000100 25.000000100
    endloop
  endfacet
  facet normal 0 -0 1
    outer loop
      vertex 8.000000000 6.100000100 25.000000100
      vertex 8.000000000 11.900000100 25.000000100
      vertex 0.000000000 18.000000100 25.000000100
    endloop
  endfacet
  facet normal 0 0 1
    outer loop
      vertex 0.000000000 0.000000100 25.000000100
      vertex 8.000000000 0.000000100 25.000000100
      vertex 8.000000000 6.100000100 25.000000100
    endloop
  endfacet
  facet normal 0 0 1
    outer loop
      vertex 0.000000000 0.000000100 25.000000100
      vertex 8.000000000 6.100000100 25.000000100
      vertex 0.000000000 18.000000100 25.000000100
    endloop
  endfacet
  facet normal 0 -1 0
    outer loop
      vertex 11.900000000 6.100000100 25.000000100
      vertex 8.000000000 6.100000100 0.400000100
      vertex 11.900000000 6.100000100 0.400000100
    endloop
  endfacet
  facet normal 0 -1 -0
    outer loop
      vertex 8.000000000 6.100000100 25.000000100
      vertex 8.000000000 6.100000100 0.400000100
      vertex 11.900000000 6.100000100 25.000000100
    endloop
  endfacet
  facet normal 0 -1 0
    outer loop
      vertex 11.900000000 4.000000100 25.000000100
      vertex 13.900000000 4.000000100 0.400000100
      vertex 13.900000000 4.000000100 25.000000100
    endloop
  endfacet
  facet normal 0 -1 -0
    outer loop
      vertex 11.900000000 4.000000100 25.000000100
      vertex 11.900000000 4.000000100 0.400000100
      vertex 13.900000000 4.000000100 0.400000100
    endloop
  endfacet
  facet normal -0 1 0
    outer loop
      vertex 11.900000000 14.000000100 25.000000100
      vertex 13.900000000 14.000000100 25.000000100
      vertex 13.900000000 14.000000100 0.400000100
    endloop
  endfacet
  facet normal 0 1 0
    outer loop
      vertex 11.900000000 14.000000100 25.000000100
      vertex 13.900000000 14.000000100 0.400000100
      vertex 11.900000000 14.000000100 0.400000100
    endloop
  endfacet
  facet normal 0 1 0
    outer loop
      vertex 11.900000000 11.900000100 25.000000100
      vertex 11.900000000 11.900000100 0.400000100
      vertex 8.000000000 11.900000100 0.400000100
    endloop
  endfacet
  facet normal -0 1 0
    outer loop
      vertex 8.000000000 11.900000100 25.000000100
      vertex 11.900000000 11.900000100 25.000000100
      vertex 8.000000000 11.900000100 0.400000100
    endloop
  endfacet
  facet normal 0 0 1
    outer loop
      vertex 0.000000000 5.750000100 9.000000100
      vertex 0.600000000 5.750000100 9.000000100
      vertex 0.600000000 6.250000100 9.000000100
    endloop
  endfacet
  facet normal 0 0 1
    outer loop
      vertex 0.000000000 5.750000100 9.000000100
      vertex 0.600000000 6.250000100 9.000000100
      vertex 0.000000000 6.250000100 9.000000100
    endloop
  endfacet
  facet normal -0 1 0
    outer loop
      vertex 0.000000000 5.750000100 14.081223469
      vertex 0.600000000 5.750000100 14.081223469
      vertex 0.600000000 5.750000100 9.000000100
    endloop
  endfacet
  facet normal 0 1 0
    outer loop
      vertex 0.000000000 5.750000100 14.081223469
      vertex 0.600000000 5.750000100 9.000000100
      vertex 0.000000000 5.750000100 9.000000100
    endloop
  endfacet
  facet normal 0 -0.573576436351 0.819152044289
    outer loop
      vertex 0.000000000 5.654824991 14.014581140
      vertex 0.600000000 5.654824991 14.014581140
      vertex 0.600000000 5.750000100 14.081223469
    endloop
  endfacet
  facet normal 0 -0.573576436351 0.819152044289
    outer loop
      vertex 0.000000000 5.654824991 14.014581140
      vertex 0.600000000 5.750000100 14.081223469
      vertex 0.000000000 5.750000100 14.081223469
    endloop
  endfacet
  facet normal 1.69812737605e-15 0.819152044289 0.573576436351
    outer loop
      vertex 0.000000000 4.335599187 15.898630842
      vertex 0.600000000 4.335599187 15.898630842
      vertex 0.600000000 5.654824991 14.014581140
    endloop
  endfacet
  facet normal 0 0.819152044289 0.573576436351
    outer loop
      vertex 0.000000000 4.335599187 15.898630842
      vertex 0.600000000 5.654824991 14.014581140
      vertex 0.000000000 5.654824991 14.014581140
    endloop
  endfacet
  facet normal -2.4251772273e-15 0.573576436351 -0.819152044289
    outer loop
      vertex 0.000000000 4.335599187 15.898630842
      vertex 0.600000000 4.745175209 16.185419060
      vertex 0.600000000 4.335599187 15.898630842
    endloop
  endfacet
  facet normal 0 0.573576436351 -0.819152044289
    outer loop
      vertex 0.000000000 4.335599187 15.898630842
      vertex 0.000000000 4.745175209 16.185419060
      vertex 0.600000000 4.745175209 16.185419060
    endloop
  endfacet
  facet normal 0 -0.819152044289 -0.573576436351
    outer loop
      vertex 0.000000000 4.745175209 16.185419060
      vertex 0.600000000 5.750000100 14.750380395
      vertex 0.600000000 4.745175209 16.185419060
    endloop
  endfacet
  facet normal -1.68997343887e-15 -0.819152044289 -0.573576436351
    outer loop
      vertex 0.000000000 4.745175209 16.185419060
      vertex 0.000000000 5.750000100 14.750380395
      vertex 0.600000000 5.750000100 14.750380395
    endloop
  endfacet
  facet normal -0 1 0
    outer loop
      vertex 0.000000000 5.750000100 16.000000100
      vertex 0.600000000 5.750000100 16.000000100
      vertex 0.600000000 5.750000100 14.750380395
    endloop
  endfacet
  facet normal 0 1 0
    outer loop
      vertex 0.000000000 5.750000100 16.000000100
      vertex 0.600000000 5.750000100 14.750380395
      vertex 0.000000000 5.750000100 14.750380395
    endloop
  endfacet
  facet normal 0 0 -1
    outer loop
      vertex 0.000000000 5.750000100 16.000000100
      vertex 0.600000000 6.250000100 16.000000100
      vertex 0.600000000 5.750000100 16.000000100
    endloop
  endfacet
  facet normal 0 0 -1
    outer loop
      vertex 0.000000000 5.750000100 16.000000100
      vertex 0.000000000 6.250000100 16.000000100
      vertex 0.600000000 6.250000100 16.000000100
    endloop
  endfacet
  facet normal 0 -1 0
    outer loop
      vertex 0.000000000 6.250000100 16.000000100
      vertex 0.600000000 6.250000100 14.750380395
      vertex 0.600000000 6.250000100 16.000000100
    endloop
  endfacet
  facet normal 0 -1 0
    outer loop
      vertex 0.000000000 6.250000100 16.000000100
      vertex 0.000000000 6.250000100 14.750380395
      vertex 0.600000000 6.250000100 14.750380395
    endloop
  endfacet
  facet normal 0 0.819152044289 -0.573576436351
    outer loop
      vertex 0.000000000 7.254824991 16.185419060
      vertex 0.600000000 7.254824991 16.185419060
      vertex 0.600000000 6.250000100 14.750380395
    endloop
  endfacet
  facet normal 0 0.819152044289 -0.573576436351
    outer loop
      vertex 0.000000000 7.254824991 16.185419060
      vertex 0.600000000 6.250000100 14.750380395
      vertex 0.000000000 6.250000100 14.750380395
    endloop
  endfacet
  facet normal 0 -0.573576436351 -0.819152044289
    outer loop
      vertex 0.000000000 7.254824991 16.185419060
      vertex 0.600000000 7.664401013 15.898630842
      vertex 0.600000000 7.254824991 16.185419060
    endloop
  endfacet
  facet normal -2.45174251271e-15 -0.573576436351 -0.819152044289
    outer loop
      vertex 0.000000000 7.254824991 16.185419060
      vertex 0.000000000 7.664401013 15.898630842
      vertex 0.600000000 7.664401013 15.898630842
    endloop
  endfacet
  facet normal 1.69812737605e-15 -0.819152044289 0.573576436351
    outer loop
      vertex 0.000000000 7.664401013 15.898630842
      vertex 0.600000000 6.345175209 14.014581140
      vertex 0.600000000 7.664401013 15.898630842
    endloop
  endfacet
  facet normal 0 -0.819152044289 0.573576436351
    outer loop
      vertex 0.000000000 7.664401013 15.898630842
      vertex 0.000000000 6.345175209 14.014581140
      vertex 0.600000000 6.345175209 14.014581140
    endloop
  endfacet
  facet normal -0 0.573576436351 0.819152044289
    outer loop
      vertex 0.000000000 6.250000100 14.081223469
      vertex 0.600000000 6.250000100 14.081223469
      vertex 0.600000000 6.345175209 14.014581140
    endloop
  endfacet
  facet normal 0 0.573576436351 0.819152044289
    outer loop
      vertex 0.000000000 6.250000100 14.081223469
      vertex 0.600000000 6.345175209 14.014581140
      vertex 0.000000000 6.345175209 14.014581140
    endloop
  endfacet
  facet normal 0 -1 0
    outer loop
      vertex 0.000000000 6.250000100 14.081223469
      vertex 0.600000000 6.250000100 9.000000100
      vertex 0.600000000 6.250000100 14.081223469
    endloop
  endfacet
  facet normal 0 -1 -0
    outer loop
      vertex 0.000000000 6.250000100 14.081223469
      vertex 0.000000000 6.250000100 9.000000100
      vertex 0.600000000 6.250000100 9.000000100
    endloop
  endfacet
  facet normal 0 0 1
    outer loop
      vertex 0.000000000 13.350000100 7.400000100
      vertex 0.600000000 13.350000100 7.400000100
      vertex 0.600000000 13.850000100 7.400000100
    endloop
  endfacet
  facet normal 0 0 1
    outer loop
      vertex 0.000000000 13.350000100 7.400000100
      vertex 0.600000000 13.850000100 7.400000100
      vertex 0.000000000 13.850000100 7.400000100
    endloop
  endfacet
  facet normal -0 1 0
    outer loop
      vertex 0.000000000 13.350000100 10.350000100
      vertex 0.600000000 13.350000100 10.350000100
      vertex 0.600000000 13.350000100 7.400000100
    endloop
  endfacet
  facet normal 0 1 0
    outer loop
      vertex 0.000000000 13.350000100 10.350000100
      vertex 0.600000000 13.350000100 7.400000100
      vertex 0.000000000 13.350000100 7.400000100
    endloop
  endfacet
  facet normal -0 0 1
    outer loop
      vertex 0.000000000 13.350000100 10.350000100
      vertex 0.600000000 11.450000100 10.350000100
      vertex 0.600000000 13.350000100 10.350000100
    endloop
  endfacet
  facet normal 0 0 1
    outer loop
      vertex 0.000000000 13.350000100 10.350000100
      vertex 0.000000000 11.450000100 10.350000100
      vertex 0.600000000 11.450000100 10.350000100
    endloop
  endfacet
  facet normal 0 -1 0
    outer loop
      vertex 0.000000000 11.450000100 10.350000100
      vertex 0.600000000 11.450000100 7.400000100
      vertex 0.600000000 11.450000100 10.350000100
    endloop
  endfacet
  facet normal 0 -1 0
    outer loop
      vertex 0.000000000 11.450000100 10.350000100
      vertex 0.000000000 11.450000100 7.400000100
      vertex 0.600000000 11.450000100 7.400000100
    endloop
  endfacet
  facet normal 0 0 1
    outer loop
      vertex 0.000000000 11.200000100 7.400000100
      vertex 0.600000000 11.200000100 7.400000100
      vertex 0.600000000 11.450000100 7.400000100
    endloop
  endfacet
  facet normal 0 0 1
    outer loop
      vertex 0.000000000 11.200000100 7.400000100
      vertex 0.600000000 11.450000100 7.400000100
      vertex 0.000000000 11.450000100 7.400000100
    endloop
  endfacet
  facet normal 0 -1 0
    outer loop
      vertex 0.000000000 11.200000100 7.400000100
      vertex 0.600000000 11.200000100 7.150000100
      vertex 0.600000000 11.200000100 7.400000100
    endloop
  endfacet
  facet normal 0 -1 0
    outer loop
      vertex 0.000000000 11.200000100 7.400000100
      vertex 0.000000000 11.200000100 7.150000100
      vertex 0.600000000 11.200000100 7.150000100
    endloop
  endfacet
  facet normal 0 -3.70074341542e-16 1
    outer loop
      vertex 0.000000000 11.200000100 7.150000100
      vertex 0.600000000 8.800000100 7.150000100
      vertex 0.600000000 11.200000100 7.150000100
    endloop
  endfacet
  facet normal 0 -3.70074341542e-16 1
    outer loop
      vertex 0.000000000 11.200000100 7.150000100
      vertex 0.000000000 8.800000100 7.150000100
      vertex 0.600000000 8.800000100 7.150000100
    endloop
  endfacet
  facet normal 0 1 -7.1054273576e-15
    outer loop
      vertex 0.000000000 8.800000100 7.400000100
      vertex 0.600000000 8.800000100 7.400000100
      vertex 0.600000000 8.800000100 7.150000100
    endloop
  endfacet
  facet normal 0 1 -7.1054273576e-15
    outer loop
      vertex 0.000000000 8.800000100 7.400000100
      vertex 0.600000000 8.800000100 7.150000100
      vertex 0.000000000 8.800000100 7.150000100
    endloop
  endfacet
  facet normal 0 0 1
    outer loop
      vertex 0.000000000 8.550000100 7.400000100
      vertex 0.600000000 8.550000100 7.400000100
      vertex 0.600000000 8.800000100 7.400000100
    endloop
  endfacet
  facet normal 0 0 1
    outer loop
      vertex 0.000000000 8.550000100 7.400000100
      vertex 0.600000000 8.800000100 7.400000100
      vertex 0.000000000 8.800000100 7.400000100
    endloop
  endfacet
  facet normal 0 1 0
    outer loop
      vertex 0.000000000 8.550000100 10.600000100
      vertex 0.600000000 8.550000100 10.600000100
      vertex 0.600000000 8.550000100 7.400000100
    endloop
  endfacet
  facet normal 0 1 0
    outer loop
      vertex 0.000000000 8.550000100 10.600000100
      vertex 0.600000000 8.550000100 7.400000100
      vertex 0.000000000 8.550000100 7.400000100
    endloop
  endfacet
  facet normal -2.96059473233e-15 0 -1
    outer loop
      vertex 0.000000000 8.550000100 10.600000100
      vertex 0.600000000 9.050000100 10.600000100
      vertex 0.600000000 8.550000100 10.600000100
    endloop
  endfacet
  facet normal -2.96059473233e-15 0 -1
    outer loop
      vertex 0.000000000 8.550000100 10.600000100
      vertex 0.000000000 9.050000100 10.600000100
      vertex 0.600000000 9.050000100 10.600000100
    endloop
  endfacet
  facet normal 0 -1 0
    outer loop
      vertex 0.000000000 9.050000100 10.600000100
      vertex 0.600000000 9.050000100 7.650000100
      vertex 0.600000000 9.050000100 10.600000100
    endloop
  endfacet
  facet normal 0 -1 0
    outer loop
      vertex 0.000000000 9.050000100 10.600000100
      vertex 0.000000000 9.050000100 7.650000100
      vertex 0.600000000 9.050000100 7.650000100
    endloop
  endfacet
  facet normal 0 0 -1
    outer loop
      vertex 0.000000000 10.950000100 7.650000100
      vertex 0.600000000 10.950000100 7.650000100
      vertex 0.600000000 9.050000100 7.650000100
    endloop
  endfacet
  facet normal 0 0 -1
    outer loop
      vertex 0.000000000 10.950000100 7.650000100
      vertex 0.600000000 9.050000100 7.650000100
      vertex 0.000000000 9.050000100 7.650000100
    endloop
  endfacet
  facet normal 0 1 0
    outer loop
      vertex 0.000000000 10.950000100 10.600000100
      vertex 0.600000000 10.950000100 10.600000100
      vertex 0.600000000 10.950000100 7.650000100
    endloop
  endfacet
  facet normal 0 1 0
    outer loop
      vertex 0.000000000 10.950000100 10.600000100
      vertex 0.600000000 10.950000100 7.650000100
      vertex 0.000000000 10.950000100 7.650000100
    endloop
  endfacet
  facet normal -2.96059473233e-15 0 -1
    outer loop
      vertex 0.000000000 10.950000100 10.600000100
      vertex 0.600000000 11.200000100 10.600000100
      vertex 0.600000000 10.950000100 10.600000100
    endloop
  endfacet
  facet normal -2.96059473233e-15 0 -1
    outer loop
      vertex 0.000000000 10.950000100 10.600000100
      vertex 0.000000000 11.200000100 10.600000100
      vertex 0.600000000 11.200000100 10.600000100
    endloop
  endfacet
  facet normal -0 1 0
    outer loop
      vertex 0.000000000 11.200000100 10.850000100
      vertex 0.600000000 11.200000100 10.850000100
      vertex 0.600000000 11.200000100 10.600000100
    endloop
  endfacet
  facet normal 0 1 0
    outer loop
      vertex 0.000000000 11.200000100 10.850000100
      vertex 0.600000000 11.200000100 10.600000100
      vertex 0.000000000 11.200000100 10.600000100
    endloop
  endfacet
  facet normal -2.96059473233e-15 7.40148683083e-16 -1
    outer loop
      vertex 0.000000000 13.600000100 10.850000100
      vertex 0.600000000 13.600000100 10.850000100
      vertex 0.600000000 11.200000100 10.850000100
    endloop
  endfacet
  facet normal 0 1.48029736617e-15 -1
    outer loop
      vertex 0.000000000 13.600000100 10.850000100
      vertex 0.600000000 11.200000100 10.850000100
      vertex 0.000000000 11.200000100 10.850000100
    endloop
  endfacet
  facet normal 0 -1 0
    outer loop
      vertex 0.000000000 13.600000100 10.850000100
      vertex 0.600000000 13.600000100 10.600000100
      vertex 0.600000000 13.600000100 10.850000100
    endloop
  endfacet
  facet normal 0 -1 0
    outer loop
      vertex 0.000000000 13.600000100 10.850000100
      vertex 0.000000000 13.600000100 10.600000100
      vertex 0.600000000 13.600000100 10.600000100
    endloop
  endfacet
  facet normal -2.96059473233e-15 0 -1
    outer loop
      vertex 0.000000000 13.600000100 10.600000100
      vertex 0.600000000 13.850000100 10.600000100
      vertex 0.600000000 13.600000100 10.600000100
    endloop
  endfacet
  facet normal -2.96059473233e-15 0 -1
    outer loop
      vertex 0.000000000 13.600000100 10.600000100
      vertex 0.000000000 13.850000100 10.600000100
      vertex 0.600000000 13.850000100 10.600000100
    endloop
  endfacet
  facet normal 0 -1 0
    outer loop
      vertex 0.000000000 13.850000100 10.600000100
      vertex 0.600000000 13.850000100 7.400000100
      vertex 0.600000000 13.850000100 10.600000100
    endloop
  endfacet
  facet normal 0 -1 0
    outer loop
      vertex 0.000000000 13.850000100 10.600000100
      vertex 0.000000000 13.850000100 7.400000100
      vertex 0.600000000 13.850000100 7.400000100
    endloop
  endfacet
  facet normal 0 -1 0
    outer loop
      vertex 0.000000000 13.600000100 12.400000100
      vertex 0.600000000 13.600000100 12.150000100
      vertex 0.600000000 13.600000100 12.400000100
    endloop
  endfacet
  facet normal 0 -1 0
    outer loop
      vertex 0.000000000 13.600000100 12.400000100
      vertex 0.000000000 13.600000100 12.150000100
      vertex 0.600000000 13.600000100 12.150000100
    endloop
  endfacet
  facet normal 2.96059473233e-15 0 1
    outer loop
      vertex 0.000000000 13.600000100 12.150000100
      vertex 0.600000000 11.200000100 12.150000100
      vertex 0.600000000 13.600000100 12.150000100
    endloop
  endfacet
  facet normal 2.96059473233e-15 0 1
    outer loop
      vertex 0.000000000 13.600000100 12.150000100
      vertex 0.000000000 11.200000100 12.150000100
      vertex 0.600000000 11.200000100 12.150000100
    endloop
  endfacet
  facet normal 0 1 0
    outer loop
      vertex 0.000000000 11.200000100 12.400000100
      vertex 0.600000000 11.200000100 12.400000100
      vertex 0.600000000 11.200000100 12.150000100
    endloop
  endfacet
  facet normal 0 1 0
    outer loop
      vertex 0.000000000 11.200000100 12.400000100
      vertex 0.600000000 11.200000100 12.150000100
      vertex 0.000000000 11.200000100 12.150000100
    endloop
  endfacet
  facet normal 2.96059473233e-15 0 1
    outer loop
      vertex 0.000000000 10.950000100 12.400000100
      vertex 0.600000000 10.950000100 12.400000100
      vertex 0.600000000 11.200000100 12.400000100
    endloop
  endfacet
  facet normal 2.96059473233e-15 -0 1
    outer loop
      vertex 0.000000000 10.950000100 12.400000100
      vertex 0.600000000 11.200000100 12.400000100
      vertex 0.000000000 11.200000100 12.400000100
    endloop
  endfacet
  facet normal 0 1 0
    outer loop
      vertex 0.600000000 10.950000100 15.350000100
      vertex 0.600000000 10.950000100 12.400000100
      vertex 0.000000000 10.950000100 12.400000100
    endloop
  endfacet
  facet normal 0 1 0
    outer loop
      vertex 0.000000000 10.950000100 15.350000100
      vertex 0.600000000 10.950000100 15.350000100
      vertex 0.000000000 10.950000100 12.400000100
    endloop
  endfacet
  facet normal 2.96059473233e-15 0 1
    outer loop
      vertex 0.000000000 10.950000100 15.350000100
      vertex 0.600000000 9.050000100 15.350000100
      vertex 0.600000000 10.950000100 15.350000100
    endloop
  endfacet
  facet normal 2.96059473233e-15 0 1
    outer loop
      vertex 0.000000000 10.950000100 15.350000100
      vertex 0.000000000 9.050000100 15.350000100
      vertex 0.600000000 9.050000100 15.350000100
    endloop
  endfacet
  facet normal 0 -1 -0
    outer loop
      vertex 0.600000000 9.050000100 15.350000100
      vertex 0.000000000 9.050000100 12.400000100
      vertex 0.600000000 9.050000100 12.400000100
    endloop
  endfacet
  facet normal 0 -1 0
    outer loop
      vertex 0.000000000 9.050000100 15.350000100
      vertex 0.000000000 9.050000100 12.400000100
      vertex 0.600000000 9.050000100 15.350000100
    endloop
  endfacet
  facet normal 2.96059473233e-15 0 1
    outer loop
      vertex 0.000000000 8.550000100 12.400000100
      vertex 0.600000000 8.550000100 12.400000100
      vertex 0.600000000 9.050000100 12.400000100
    endloop
  endfacet
  facet normal 2.96059473233e-15 -0 1
    outer loop
      vertex 0.000000000 8.550000100 12.400000100
      vertex 0.600000000 9.050000100 12.400000100
      vertex 0.000000000 9.050000100 12.400000100
    endloop
  endfacet
  facet normal 0 1 0
    outer loop
      vertex 0.600000000 8.550000100 15.600000100
      vertex 0.600000000 8.550000100 12.400000100
      vertex 0.000000000 8.550000100 12.400000100
    endloop
  endfacet
  facet normal 0 1 0
    outer loop
      vertex 0.000000000 8.550000100 15.600000100
      vertex 0.600000000 8.550000100 15.600000100
      vertex 0.000000000 8.550000100 12.400000100
    endloop
  endfacet
  facet normal -2.96059473233e-15 0 -1
    outer loop
      vertex 0.000000000 8.550000100 15.600000100
      vertex 0.600000000 8.800000100 15.600000100
      vertex 0.600000000 8.550000100 15.600000100
    endloop
  endfacet
  facet normal -2.96059473233e-15 0 -1
    outer loop
      vertex 0.000000000 8.550000100 15.600000100
      vertex 0.000000000 8.800000100 15.600000100
      vertex 0.600000000 8.800000100 15.600000100
    endloop
  endfacet
  facet normal 0 1 0
    outer loop
      vertex 0.000000000 8.800000100 15.850000100
      vertex 0.600000000 8.800000100 15.850000100
      vertex 0.600000000 8.800000100 15.600000100
    endloop
  endfacet
  facet normal 0 1 0
    outer loop
      vertex 0.000000000 8.800000100 15.850000100
      vertex 0.600000000 8.800000100 15.600000100
      vertex 0.000000000 8.800000100 15.600000100
    endloop
  endfacet
  facet normal -2.96059473233e-15 0 -1
    outer loop
      vertex 0.000000000 11.200000100 15.850000100
      vertex 0.600000000 11.200000100 15.850000100
      vertex 0.600000000 8.800000100 15.850000100
    endloop
  endfacet
  facet normal -2.96059473233e-15 -0 -1
    outer loop
      vertex 0.000000000 11.200000100 15.850000100
      vertex 0.600000000 8.800000100 15.850000100
      vertex 0.000000000 8.800000100 15.850000100
    endloop
  endfacet
  facet normal 0 -1 0
    outer loop
      vertex 0.000000000 11.200000100 15.850000100
      vertex 0.600000000 11.200000100 15.600000100
      vertex 0.600000000 11.200000100 15.850000100
    endloop
  endfacet
  facet normal 0 -1 0
    outer loop
      vertex 0.000000000 11.200000100 15.850000100
      vertex 0.000000000 11.200000100 15.600000100
      vertex 0.600000000 11.200000100 15.600000100
    endloop
  endfacet
  facet normal -2.96059473233e-15 0 -1
    outer loop
      vertex 0.000000000 11.200000100 15.600000100
      vertex 0.600000000 11.450000100 15.600000100
      vertex 0.600000000 11.200000100 15.600000100
    endloop
  endfacet
  facet normal -2.96059473233e-15 0 -1
    outer loop
      vertex 0.000000000 11.200000100 15.600000100
      vertex 0.000000000 11.450000100 15.600000100
      vertex 0.600000000 11.450000100 15.600000100
    endloop
  endfacet
  facet normal 0 -1 -0
    outer loop
      vertex 0.600000000 11.450000100 15.600000100
      vertex 0.000000000 11.450000100 12.650000100
      vertex 0.600000000 11.450000100 12.650000100
    endloop
  endfacet
  facet normal 0 -1 0
    outer loop
      vertex 0.000000000 11.450000100 15.600000100
      vertex 0.000000000 11.450000100 12.650000100
      vertex 0.600000000 11.450000100 15.600000100
    endloop
  endfacet
  facet normal -2.96059473233e-15 0 -1
    outer loop
      vertex 0.000000000 13.350000100 12.650000100
      vertex 0.600000000 13.350000100 12.650000100
      vertex 0.600000000 11.450000100 12.650000100
    endloop
  endfacet
  facet normal -2.96059473233e-15 -0 -1
    outer loop
      vertex 0.000000000 13.350000100 12.650000100
      vertex 0.600000000 11.450000100 12.650000100
      vertex 0.000000000 11.450000100 12.650000100
    endloop
  endfacet
  facet normal 0 1 0
    outer loop
      vertex 0.600000000 13.350000100 15.600000100
      vertex 0.600000000 13.350000100 12.650000100
      vertex 0.000000000 13.350000100 12.650000100
    endloop
  endfacet
  facet normal 0 1 0
    outer loop
      vertex 0.000000000 13.350000100 15.600000100
      vertex 0.600000000 13.350000100 15.600000100
      vertex 0.000000000 13.350000100 12.650000100
    endloop
  endfacet
  facet normal -2.96059473233e-15 0 -1
    outer loop
      vertex 0.000000000 13.350000100 15.600000100
      vertex 0.600000000 13.850000100 15.600000100
      vertex 0.600000000 13.350000100 15.600000100
    endloop
  endfacet
  facet normal -2.96059473233e-15 0 -1
    outer loop
      vertex 0.000000000 13.350000100 15.600000100
      vertex 0.000000000 13.850000100 15.600000100
      vertex 0.600000000 13.850000100 15.600000100
    endloop
  endfacet
  facet normal 0 -1 -0
    outer loop
      vertex 0.600000000 13.850000100 15.600000100
      vertex 0.000000000 13.850000100 12.400000100
      vertex 0.600000000 13.850000100 12.400000100
    endloop
  endfacet
  facet normal 0 -1 0
    outer loop
      vertex 0.000000000 13.850000100 15.600000100
      vertex 0.000000000 13.850000100 12.400000100
      vertex 0.600000000 13.850000100 15.600000100
    endloop
  endfacet
  facet normal 2.96059473233e-15 0 1
    outer loop
      vertex 0.000000000 13.600000100 12.400000100
      vertex 0.600000000 13.600000100 12.400000100
      vertex 0.600000000 13.850000100 12.400000100
    endloop
  endfacet
  facet normal 2.96059473233e-15 -0 1
    outer loop
      vertex 0.000000000 13.600000100 12.400000100
      vertex 0.600000000 13.850000100 12.400000100
      vertex 0.000000000 13.850000100 12.400000100
    endloop
  endfacet
  facet normal -1 0 -0
    outer loop
      vertex 0.600000000 5.750000100 14.750380395
      vertex 0.600000000 5.750000100 14.081223469
      vertex 0.600000000 5.654824991 14.014581140
    endloop
  endfacet
  facet normal -1 -0 0
    outer loop
      vertex 0.600000000 5.750000100 14.750380395
      vertex 0.600000000 5.654824991 14.014581140
      vertex 0.600000000 4.335599187 15.898630842
    endloop
  endfacet
  facet normal -1 0 0
    outer loop
      vertex 0.600000000 5.750000100 14.750380395
      vertex 0.600000000 6.250000100 14.081223469
      vertex 0.600000000 5.750000100 14.081223469
    endloop
  endfacet
  facet normal -1 0 -0
    outer loop
      vertex 0.600000000 4.745175209 16.185419060
      vertex 0.600000000 5.750000100 14.750380395
      vertex 0.600000000 4.335599187 15.898630842
    endloop
  endfacet
  facet normal -1 0 0
    outer loop
      vertex 0.600000000 6.250000100 14.750380395
      vertex 0.600000000 6.345175209 14.014581140
      vertex 0.600000000 6.250000100 14.081223469
    endloop
  endfacet
  facet normal -1 -0 -0
    outer loop
      vertex 0.600000000 6.250000100 14.750380395
      vertex 0.600000000 6.250000100 14.081223469
      vertex 0.600000000 5.750000100 14.750380395
    endloop
  endfacet
  facet normal -1 -0 0
    outer loop
      vertex 0.600000000 6.250000100 16.000000100
      vertex 0.600000000 5.750000100 14.750380395
      vertex 0.600000000 5.750000100 16.000000100
    endloop
  endfacet
  facet normal -1 0 -0
    outer loop
      vertex 0.600000000 6.250000100 16.000000100
      vertex 0.600000000 6.250000100 14.750380395
      vertex 0.600000000 5.750000100 14.750380395
    endloop
  endfacet
  facet normal -1 -0 0
    outer loop
      vertex 0.600000000 7.664401013 15.898630842
      vertex 0.600000000 6.250000100 14.750380395
      vertex 0.600000000 7.254824991 16.185419060
    endloop
  endfacet
  facet normal -1 0 0
    outer loop
      vertex 0.600000000 7.664401013 15.898630842
      vertex 0.600000000 6.345175209 14.014581140
      vertex 0.600000000 6.250000100 14.750380395
    endloop
  endfacet
  facet normal -1 0 1.74796177064e-16
    outer loop
      vertex 0.600000000 6.250000100 14.081223469
      vertex 0.600000000 6.250000100 9.000000100
      vertex 0.600000000 5.750000100 14.081223469
    endloop
  endfacet
  facet normal -1 0 1.74796177064e-16
    outer loop
      vertex 0.600000000 5.750000100 14.081223469
      vertex 0.600000000 6.250000100 9.000000100
      vertex 0.600000000 5.750000100 9.000000100
    endloop
  endfacet
  facet normal -1 0 0
    outer loop
      vertex 0.600000000 9.050000100 7.650000100
      vertex 0.600000000 8.800000100 7.150000100
      vertex 0.600000000 8.800000100 7.400000100
    endloop
  endfacet
  facet normal -1 0 0
    outer loop
      vertex 0.600000000 9.050000100 7.650000100
      vertex 0.600000000 8.800000100 7.400000100
      vertex 0.600000000 8.550000100 7.400000100
    endloop
  endfacet
  facet normal -1 -0 0
    outer loop
      vertex 0.600000000 11.200000100 7.150000100
      vertex 0.600000000 8.800000100 7.150000100
      vertex 0.600000000 9.050000100 7.650000100
    endloop
  endfacet
  facet normal -1 0 0
    outer loop
      vertex 0.600000000 10.950000100 7.650000100
      vertex 0.600000000 11.200000100 7.400000100
      vertex 0.600000000 11.200000100 7.150000100
    endloop
  endfacet
  facet normal -1 -0 -0
    outer loop
      vertex 0.600000000 10.950000100 7.650000100
      vertex 0.600000000 11.200000100 7.150000100
      vertex 0.600000000 9.050000100 7.650000100
    endloop
  endfacet
  facet normal -1 0 0
    outer loop
      vertex 0.600000000 11.450000100 7.400000100
      vertex 0.600000000 11.200000100 7.400000100
      vertex 0.600000000 10.950000100 7.650000100
    endloop
  endfacet
  facet normal -1 0 0
    outer loop
      vertex 0.600000000 8.550000100 10.600000100
      vertex 0.600000000 9.050000100 7.650000100
      vertex 0.600000000 8.550000100 7.400000100
    endloop
  endfacet
  facet normal -1 -0 -0
    outer loop
      vertex 0.600000000 9.050000100 10.600000100
      vertex 0.600000000 9.050000100 7.650000100
      vertex 0.600000000 8.550000100 10.600000100
    endloop
  endfacet
  facet normal -1 -0 0
    outer loop
      vertex 0.600000000 11.450000100 10.350000100
      vertex 0.600000000 10.950000100 7.650000100
      vertex 0.600000000 10.950000100 10.600000100
    endloop
  endfacet
  facet normal -1 0 -0
    outer loop
      vertex 0.600000000 11.450000100 10.350000100
      vertex 0.600000000 11.450000100 7.400000100
      vertex 0.600000000 10.950000100 7.650000100
    endloop
  endfacet
  facet normal -1 -0 -0
    outer loop
      vertex 0.600000000 11.200000100 10.600000100
      vertex 0.600000000 11.450000100 10.350000100
      vertex 0.600000000 10.950000100 10.600000100
    endloop
  endfacet
  facet normal -1 0 0
    outer loop
      vertex 0.600000000 11.200000100 10.850000100
      vertex 0.600000000 11.450000100 10.350000100
      vertex 0.600000000 11.200000100 10.600000100
    endloop
  endfacet
  facet normal -1 0 0
    outer loop
      vertex 0.600000000 13.350000100 10.350000100
      vertex 0.600000000 13.850000100 7.400000100
      vertex 0.600000000 13.350000100 7.400000100
    endloop
  endfacet
  facet normal -1 0 0
    outer loop
      vertex 0.600000000 13.350000100 10.350000100
      vertex 0.600000000 11.450000100 10.350000100
      vertex 0.600000000 11.200000100 10.850000100
    endloop
  endfacet
  facet normal -1 0 0
    outer loop
      vertex 0.600000000 13.600000100 10.850000100
      vertex 0.600000000 13.350000100 10.350000100
      vertex 0.600000000 11.200000100 10.850000100
    endloop
  endfacet
  facet normal -1 0 -0
    outer loop
      vertex 0.600000000 13.600000100 10.850000100
      vertex 0.600000000 13.600000100 10.600000100
      vertex 0.600000000 13.350000100 10.350000100
    endloop
  endfacet
  facet normal -1 0 -0
    outer loop
      vertex 0.600000000 13.850000100 10.600000100
      vertex 0.600000000 13.850000100 7.400000100
      vertex 0.600000000 13.350000100 10.350000100
    endloop
  endfacet
  facet normal -1 -0 0
    outer loop
      vertex 0.600000000 13.850000100 10.600000100
      vertex 0.600000000 13.350000100 10.350000100
      vertex 0.600000000 13.600000100 10.600000100
    endloop
  endfacet
  facet normal -1 0 0
    outer loop
      vertex 0.600000000 9.050000100 15.350000100
      vertex 0.600000000 8.550000100 15.600000100
      vertex 0.600000000 8.800000100 15.600000100
    endloop
  endfacet
  facet normal -1 0 0
    outer loop
      vertex 0.600000000 9.050000100 15.350000100
      vertex 0.600000000 8.800000100 15.600000100
      vertex 0.600000000 8.800000100 15.850000100
    endloop
  endfacet
  facet normal -1 0 0
    outer loop
      vertex 0.600000000 10.950000100 15.350000100
      vertex 0.600000000 8.800000100 15.850000100
      vertex 0.600000000 11.200000100 15.850000100
    endloop
  endfacet
  facet normal -1 0 0
    outer loop
      vertex 0.600000000 10.950000100 15.350000100
      vertex 0.600000000 9.050000100 15.350000100
      vertex 0.600000000 8.800000100 15.850000100
    endloop
  endfacet
  facet normal -1 -0 0
    outer loop
      vertex 0.600000000 11.200000100 15.600000100
      vertex 0.600000000 10.950000100 15.350000100
      vertex 0.600000000 11.200000100 15.850000100
    endloop
  endfacet
  facet normal -1 -0 0
    outer loop
      vertex 0.600000000 11.450000100 15.600000100
      vertex 0.600000000 10.950000100 15.350000100
      vertex 0.600000000 11.200000100 15.600000100
    endloop
  endfacet
  facet normal -1 0 0
    outer loop
      vertex 0.600000000 8.550000100 12.400000100
      vertex 0.600000000 8.550000100 15.600000100
      vertex 0.600000000 9.050000100 15.350000100
    endloop
  endfacet
  facet normal -1 0 0
    outer loop
      vertex 0.600000000 9.050000100 12.400000100
      vertex 0.600000000 8.550000100 12.400000100
      vertex 0.600000000 9.050000100 15.350000100
    endloop
  endfacet
  facet normal -1 -0 0
    outer loop
      vertex 0.600000000 11.450000100 12.650000100
      vertex 0.600000000 10.950000100 12.400000100
      vertex 0.600000000 10.950000100 15.350000100
    endloop
  endfacet
  facet normal -1 0 0
    outer loop
      vertex 0.600000000 11.450000100 12.650000100
      vertex 0.600000000 10.950000100 15.350000100
      vertex 0.600000000 11.450000100 15.600000100
    endloop
  endfacet
  facet normal -1 0 0
    outer loop
      vertex 0.600000000 11.200000100 12.400000100
      vertex 0.600000000 10.950000100 12.400000100
      vertex 0.600000000 11.450000100 12.650000100
    endloop
  endfacet
  facet normal -1 0 0
    outer loop
      vertex 0.600000000 11.200000100 12.150000100
      vertex 0.600000000 11.200000100 12.400000100
      vertex 0.600000000 11.450000100 12.650000100
    endloop
  endfacet
  facet normal -1 0 0
    outer loop
      vertex 0.600000000 13.350000100 12.650000100
      vertex 0.600000000 13.350000100 15.600000100
      vertex 0.600000000 13.850000100 15.600000100
    endloop
  endfacet
  facet normal -1 -0 0
    outer loop
      vertex 0.600000000 13.350000100 12.650000100
      vertex 0.600000000 11.200000100 12.150000100
      vertex 0.600000000 11.450000100 12.650000100
    endloop
  endfacet
  facet normal -1 0 0
    outer loop
      vertex 0.600000000 13.850000100 12.400000100
      vertex 0.600000000 13.350000100 12.650000100
      vertex 0.600000000 13.850000100 15.600000100
    endloop
  endfacet
  facet normal -1 0 0
    outer loop
      vertex 0.600000000 13.850000100 12.400000100
      vertex 0.600000000 13.600000100 12.400000100
      vertex 0.600000000 13.350000100 12.650000100
    endloop
  endfacet
  facet normal -1 0 0
    outer loop
      vertex 0.600000000 13.600000100 12.150000100
      vertex 0.600000000 11.200000100 12.150000100
      vertex 0.600000000 13.350000100 12.650000100
    endloop
  endfacet
  facet normal -1 0 0
    outer loop
      vertex 0.600000000 13.600000100 12.150000100
      vertex 0.600000000 13.350000100 12.650000100
      vertex 0.600000000 13.600000100 12.400000100
    endloop
  endfacet
endsolid P25_SLIDE_IN_POSITIONING_V002
