<svg xmlns="http://www.w3.org/2000/svg" width="1200" height="760" viewBox="0 0 1200 760">
<style>text{font-family:Arial,'Noto Sans JP',sans-serif;font-size:20px}.small{font-size:15px}.label{font-size:18px;font-weight:bold}.outline{fill:none;stroke:#111;stroke-width:3}.part{fill:#e6eef5;stroke:#111;stroke-width:2}.shell{fill:#d9ead3;stroke:#111;stroke-width:3}.float{fill:#d9e2f3;stroke:#111;stroke-width:2}.charge{fill:#fff2cc;stroke:#111;stroke-width:2}.danger{fill:#f4cccc;stroke:#111;stroke-width:2}</style>
<text x="40" y="50" style="font-size:32px;font-weight:bold">Paddy Swarm Turtle Shell Chassis v0.2 - Overview</text>
<text x="40" y="80" class="small">Standard turtle shell is the first defense layer. Inner dry cassette remains the second defense layer.</text>
<!-- top view -->
<text x="80" y="130" class="label">Top View / 上面</text>
<rect x="130" y="180" width="650" height="80" rx="35" class="float"/>
<rect x="130" y="420" width="650" height="80" rx="35" class="float"/>
<rect x="190" y="285" width="530" height="110" rx="15" class="part"/>
<ellipse cx="455" cy="340" rx="285" ry="150" class="shell"/>
<line x1="455" y1="190" x2="455" y2="490" stroke="#111" stroke-width="2" stroke-dasharray="10,8"/>
<rect x="525" y="300" width="110" height="80" rx="8" class="charge"/>
<text x="535" y="345" class="small">Charge Scute</text>
<text x="535" y="365" class="small">充電甲板</text>
<rect x="285" y="300" width="145" height="80" rx="8" fill="none" stroke="#333" stroke-width="2" stroke-dasharray="6,6"/>
<text x="300" y="345" class="small">Solar-ready</text>
<text x="300" y="365" class="small">後付け面</text>
<text x="805" y="225" class="small">Side floats / 左右フロート</text>
<text x="805" y="340" class="small">Central chassis + Power Bay</text>
<text x="805" y="365" class="small">中央シャーシ + 電源ベイ</text>
<!-- side view -->
<text x="80" y="570" class="label">Side View / 側面</text>
<rect x="160" y="675" width="600" height="22" class="part"/>
<rect x="300" y="630" width="240" height="40" rx="8" class="part"/>
<path d="M170 625 C260 505, 650 505, 750 625 L720 642 C620 555, 300 555, 200 642 Z" class="shell"/>
<rect x="395" y="584" width="110" height="42" rx="6" class="charge"/>
<text x="415" y="610" class="small">CHG</text>
<text x="790" y="610" class="small">甲羅は水切り・泥はね防止・10度傾斜時の水面ガード</text>
<text x="790" y="635" class="small">内部ドライカセットは残す。甲羅だけを最終防水にしない。</text>
<text x="790" y="660" class="small">No battery in shell. Keep mass low.</text>
</svg>