solid BBOX_4POINT_LOWER_CRADLE_V001
  facet normal -1 0 0
    outer loop
      vertex -15.000000000 -5.000000000 0.500000000
      vertex -15.000000000 5.000000000 0.000000000
      vertex -15.000000000 -5.000000000 0.000000000
    endloop
  endfacet
  facet normal -1 0 0
    outer loop
      vertex -15.000000000 -5.000000000 0.500000000
      vertex -15.000000000 5.000000000 0.500000000
      vertex -15.000000000 5.000000000 0.000000000
    endloop
  endfacet
  facet normal 1 0 0
    outer loop
      vertex 15.000000000 -5.000000000 0.500000000
      vertex 15.000000000 -5.000000000 0.000000000
      vertex 15.000000000 5.000000000 0.000000000
    endloop
  endfacet
  facet normal 1 -0 0
    outer loop
      vertex 15.000000000 -5.000000000 0.500000000
      vertex 15.000000000 5.000000000 0.000000000
      vertex 15.000000000 5.000000000 0.500000000
    endloop
  endfacet
  facet normal 0 -1 -0
    outer loop
      vertex 15.000000000 -5.000000000 0.500000000
      vertex -15.000000000 -5.000000000 0.000000000
      vertex 15.000000000 -5.000000000 0.000000000
    endloop
  endfacet
  facet normal -0 -1 0
    outer loop
      vertex 15.000000000 -5.000000000 0.500000000
      vertex -15.000000000 -5.000000000 0.500000000
      vertex -15.000000000 -5.000000000 0.000000000
    endloop
  endfacet
  facet normal 0 1 0
    outer loop
      vertex 15.000000000 5.000000000 0.500000000
      vertex 15.000000000 5.000000000 0.000000000
      vertex -15.000000000 5.000000000 0.000000000
    endloop
  endfacet
  facet normal 0 1 0
    outer loop
      vertex 15.000000000 5.000000000 0.500000000
      vertex -15.000000000 5.000000000 0.000000000
      vertex -15.000000000 5.000000000 0.500000000
    endloop
  endfacet
  facet normal -0 0 -1
    outer loop
      vertex 15.000000000 5.000000000 0.000000000
      vertex -15.000000000 -5.000000000 0.000000000
      vertex -15.000000000 5.000000000 0.000000000
    endloop
  endfacet
  facet normal 0 -0 -1
    outer loop
      vertex 15.000000000 5.000000000 0.000000000
      vertex 15.000000000 -5.000000000 0.000000000
      vertex -15.000000000 -5.000000000 0.000000000
    endloop
  endfacet
  facet normal 0 0 1
    outer loop
      vertex 15.000000000 5.000000000 0.500000000
      vertex -15.000000000 5.000000000 0.500000000
      vertex -15.000000000 -5.000000000 0.500000000
    endloop
  endfacet
  facet normal 0 0 1
    outer loop
      vertex 15.000000000 5.000000000 0.500000000
      vertex -15.000000000 -5.000000000 0.500000000
      vertex 15.000000000 -5.000000000 0.500000000
    endloop
  endfacet
endsolid BBOX_4POINT_LOWER_CRADLE_V001
