0
SECTION
2
HEADER
9
$ACADVER
1
AC1009
0
ENDSEC
0
SECTION
2
ENTITIES
0
POLYLINE
8
CANDIDATE_OUTLINE
66
1
70
1
0
VERTEX
8
CANDIDATE_OUTLINE
10
-47.500
20
0.000
30
0.000
0
VERTEX
8
CANDIDATE_OUTLINE
10
47.500
20
0.000
30
0.000
0
VERTEX
8
CANDIDATE_OUTLINE
10
47.500
20
58.800
30
0.000
0
VERTEX
8
CANDIDATE_OUTLINE
10
25.650
20
140.000
30
0.000
0
VERTEX
8
CANDIDATE_OUTLINE
10
-25.650
20
140.000
30
0.000
0
VERTEX
8
CANDIDATE_OUTLINE
10
-47.500
20
58.800
30
0.000
0
SEQEND
8
CANDIDATE_OUTLINE
0
CIRCLE
8
REFERENCE_HOLES_NOT_FOR_MANUFACTURING
10
-17.500
20
120.000
40
4.500
0
CIRCLE
8
REFERENCE_HOLES_NOT_FOR_MANUFACTURING
10
17.500
20
120.000
40
4.500
0
CIRCLE
8
REFERENCE_HOLES_NOT_FOR_MANUFACTURING
10
-25.000
20
22.000
40
3.300
0
CIRCLE
8
REFERENCE_HOLES_NOT_FOR_MANUFACTURING
10
25.000
20
22.000
40
3.300
0
CIRCLE
8
REFERENCE_HOLES_NOT_FOR_MANUFACTURING
10
-25.000
20
62.000
40
3.300
0
CIRCLE
8
REFERENCE_HOLES_NOT_FOR_MANUFACTURING
10
25.000
20
62.000
40
3.300
0
TEXT
8
WARNING
10
-47.500
20
-15.000
40
4.000
1
RIGHT KP000 SUPPORT PLATE V0.8.2
0
TEXT
8
WARNING
10
-47.500
20
-23.000
40
4.000
1
NOT_FOR_MANUFACTURING
0
TEXT
8
WARNING
10
-47.500
20
-31.000
40
4.000
1
PART_MEASUREMENT_REQUIRED
0
TEXT
8
WARNING
10
-47.500
20
-39.000
40
4.000
1
ALL HOLES ARE PARAMETRIC PLACEHOLDERS
0
ENDSEC
0
EOF
